<?xml version="1.0" encoding="UTF-8"?>
<!DOCTYPE score-partwise PUBLIC "-//Recordare//DTD MusicXML 2.0 Partwise//EN" "http://www.musicxml.org/dtds/partwise.dtd">
<score-partwise version="2.0">
    <work>
        <work-number></work-number>
        <work-title></work-title>
    </work>
    <movement-number></movement-number>
    <movement-title>All Through the Night</movement-title>
    <identification>
        <creator type="composer">Cole Porter</creator>
        <creator type="poet">Cole Porter</creator>
        <rights>All Rights Reserved</rights>
        <encoding>
            <software>Finale 2008 for Macintosh</software>
            <software>Dolet Light for Finale 2008</software>
            <encoding-date>2012-07-28</encoding-date>
            <software>ProxyMusic 2.0 c</software>
        </encoding>
        <source>http://wikifonia.org/node/17021/revisions/22582/view</source>
    </identification>
    <defaults>
        <scaling>
            <millimeters>8.3167</millimeters>
            <tenths>40</tenths>
        </scaling>
        <page-layout>
            <page-height>1344</page-height>
            <page-width>1038</page-width>
            <page-margins type="both">
                <left-margin>61</left-margin>
                <right-margin>61</right-margin>
                <top-margin>59</top-margin>
                <bottom-margin>76</bottom-margin>
            </page-margins>
        </page-layout>
        <system-layout>
            <system-margins>
                <left-margin>0</left-margin>
                <right-margin>0</right-margin>
            </system-margins>
            <system-distance>75</system-distance>
            <top-system-distance>33</top-system-distance>
        </system-layout>
        <music-font font-size="23.6" font-family="Maestro"/>
        <word-font font-size="11.8" font-family="Times"/>
        <lyric-font font-size="11.8" font-family="Times" name="verse"/>
    </defaults>
    <credit>
        <credit-words font-weight="bold" font-size="23" default-y="1304" default-x="532" justify="center" valign="top">all through the night</credit-words>
    </credit>
    <credit>
        <credit-words font-weight="bold" font-size="11.5" default-y="1290" default-x="958" justify="right" valign="top">Cole Porter</credit-words>
    </credit>
    <credit>
        <credit-words font-size="10.4" default-y="1267" default-x="88" valign="top">chart by zack@zackdanziger.com</credit-words>
    </credit>
    <part-list>
        <score-part id="P1">
            <part-name print-object="no">MusicXML Part</part-name>
            <score-instrument id="P1-I1">
                <instrument-name>Acoustic Grand Piano</instrument-name>
            </score-instrument>
            <midi-instrument id="P1-I1">
                <midi-channel>1</midi-channel>
                <midi-program>1</midi-program>
            </midi-instrument>
        </score-part>
    </part-list>
    <part id="P1">
        <measure width="238" number="1">
            <print page-number="1">
                <page-layout>
                    <page-height>1344</page-height>
                    <page-width>1038</page-width>
                    <page-margins>
                        <left-margin>87</left-margin>
                        <right-margin>61</right-margin>
                        <top-margin>59</top-margin>
                        <bottom-margin>76</bottom-margin>
                    </page-margins>
                </page-layout>
                <system-layout>
                    <top-system-distance>84</top-system-distance>
                </system-layout>
            </print>
            <attributes>
                <divisions>2</divisions>
                <key>
                    <fifths>0</fifths>
                    <mode>major</mode>
                </key>
                <time>
                    <beats>4</beats>
                    <beat-type>4</beat-type>
                </time>
                <clef>
                    <sign>G</sign>
                    <line>2</line>
                </clef>
            </attributes>
            <sound tempo="120"/>
            <harmony font-size="15.7" default-y="9">
                <root>
                    <root-step>C</root-step>
                </root>
                <kind text="">major-seventh</kind>
            </harmony>
            <note default-x="80">
                <pitch>
                    <step>E</step>
                    <octave>4</octave>
                </pitch>
                <duration>8</duration>
                <tie type="start"/>
                <voice>1</voice>
                <type>whole</type>
                <notations>
                    <tied type="start"/>
                </notations>
                <lyric justify="left" default-y="-88" number="1">
                    <syllabic>single</syllabic>
                    <text font-size="14.7">All</text>
                    <extend/>
                </lyric>
            </note>
        </measure>
        <measure width="257" number="2">
            <harmony font-size="15.7" default-y="9">
                <root>
                    <root-step>F</root-step>
                    <root-alter>1</root-alter>
                </root>
                <kind text="m7">minor-seventh</kind>
            </harmony>
            <note default-x="10">
                <pitch>
                    <step>E</step>
                    <octave>4</octave>
                </pitch>
                <duration>4</duration>
                <tie type="stop"/>
                <voice>1</voice>
                <type>half</type>
                <stem default-y="-4">up</stem>
                <notations>
                    <tied type="stop"/>
                </notations>
            </note>
            <harmony font-size="15.7" default-y="9">
                <root>
                    <root-step>F</root-step>
                </root>
                <kind text="m7">minor-seventh</kind>
            </harmony>
            <note default-x="120">
                <pitch>
                    <step>E</step>
                    <alter>-1</alter>
                    <octave>4</octave>
                </pitch>
                <duration>2</duration>
                <voice>1</voice>
                <type>quarter</type>
                <accidental>flat</accidental>
                <stem default-y="-4">up</stem>
                <lyric default-y="-88" number="1">
                    <syllabic>single</syllabic>
                    <text font-size="14.7">thru</text>
                </lyric>
            </note>
            <note default-x="188">
                <pitch>
                    <step>D</step>
                    <octave>4</octave>
                </pitch>
                <duration>2</duration>
                <voice>1</voice>
                <type>quarter</type>
                <stem default-y="-9">up</stem>
                <lyric default-y="-88" number="1">
                    <syllabic>single</syllabic>
                    <text font-size="14.7">the</text>
                </lyric>
            </note>
        </measure>
        <measure width="169" number="3">
            <harmony font-size="15.7" default-y="9">
                <root>
                    <root-step>E</root-step>
                </root>
                <kind text="m7">minor-seventh</kind>
            </harmony>
            <note default-x="10">
                <pitch>
                    <step>D</step>
                    <octave>4</octave>
                </pitch>
                <duration>8</duration>
                <tie type="start"/>
                <voice>1</voice>
                <type>whole</type>
                <notations>
                    <tied type="start"/>
                </notations>
                <lyric justify="left" default-y="-88" number="1">
                    <syllabic>single</syllabic>
                    <text font-size="14.7">night</text>
                    <extend/>
                </lyric>
            </note>
        </measure>
        <measure width="227" number="4">
            <harmony font-size="15.7" default-y="9">
                <root>
                    <root-step>G</root-step>
                </root>
                <kind text="m7">minor-seventh</kind>
            </harmony>
            <note default-x="10">
                <pitch>
                    <step>D</step>
                    <octave>4</octave>
                </pitch>
                <duration>4</duration>
                <tie type="stop"/>
                <voice>1</voice>
                <type>half</type>
                <stem default-y="-9">up</stem>
                <notations>
                    <tied type="stop"/>
                </notations>
            </note>
            <harmony font-size="15.7" default-y="9">
                <root>
                    <root-step>C</root-step>
                </root>
                <kind text="7" parentheses-degrees="yes">dominant</kind>
                <degree>
                    <degree-value>9</degree-value>
                    <degree-alter>-1</degree-alter>
                    <degree-type>add</degree-type>
                </degree>
            </harmony>
            <note default-x="106">
                <pitch>
                    <step>D</step>
                    <alter>-1</alter>
                    <octave>4</octave>
                </pitch>
                <duration>2</duration>
                <voice>1</voice>
                <type>quarter</type>
                <accidental>flat</accidental>
                <stem default-y="-9">up</stem>
                <lyric default-y="-88" number="1">
                    <syllabic>single</syllabic>
                    <text font-size="14.7">I</text>
                </lyric>
            </note>
            <note default-x="166">
                <pitch>
                    <step>C</step>
                    <octave>4</octave>
                </pitch>
                <duration>2</duration>
                <voice>1</voice>
                <type>quarter</type>
                <stem default-y="-14">up</stem>
                <lyric default-y="-88" number="1">
                    <syllabic>begin</syllabic>
                    <text font-size="14.7">de</text>
                </lyric>
            </note>
        </measure>
        <measure width="215" number="5">
            <print new-system="yes">
                <system-layout>
                    <system-distance>105</system-distance>
                </system-layout>
            </print>
            <harmony font-size="15.7" default-y="9">
                <root>
                    <root-step>F</root-step>
                </root>
                <kind text="">major-seventh</kind>
            </harmony>
            <note default-x="51">
                <pitch>
                    <step>C</step>
                    <octave>4</octave>
                </pitch>
                <duration>8</duration>
                <tie type="start"/>
                <voice>1</voice>
                <type>whole</type>
                <notations>
                    <tied type="start"/>
                </notations>
                <lyric justify="left" default-y="-88" number="1">
                    <syllabic>end</syllabic>
                    <text font-size="14.7">light</text>
                    <extend/>
                </lyric>
            </note>
        </measure>
        <measure width="275" number="6">
            <harmony font-size="15.7" default-y="9">
                <root>
                    <root-step>F</root-step>
                </root>
                <kind text="m7">minor-seventh</kind>
            </harmony>
            <note default-x="14">
                <pitch>
                    <step>C</step>
                    <octave>4</octave>
                </pitch>
                <duration>4</duration>
                <tie type="stop"/>
                <voice>1</voice>
                <type>half</type>
                <stem default-y="-14">up</stem>
                <notations>
                    <tied type="stop"/>
                </notations>
            </note>
            <harmony font-size="15.7" default-y="9">
                <root>
                    <root-step>B</root-step>
                    <root-alter>-1</root-alter>
                </root>
                <kind text="7" parentheses-degrees="yes">dominant</kind>
                <degree>
                    <degree-value>9</degree-value>
                    <degree-alter>-1</degree-alter>
                    <degree-type>add</degree-type>
                </degree>
            </harmony>
            <note default-x="130">
                <pitch>
                    <step>B</step>
                    <octave>3</octave>
                </pitch>
                <duration>2</duration>
                <voice>1</voice>
                <type>quarter</type>
                <stem default-y="-19">up</stem>
                <lyric default-y="-88" number="1">
                    <syllabic>single</syllabic>
                    <text font-size="14.7">in</text>
                </lyric>
            </note>
            <note default-x="202">
                <pitch>
                    <step>B</step>
                    <alter>-1</alter>
                    <octave>3</octave>
                </pitch>
                <duration>2</duration>
                <voice>1</voice>
                <type>quarter</type>
                <accidental>flat</accidental>
                <stem default-y="-19">up</stem>
                <lyric default-y="-88" number="1">
                    <syllabic>single</syllabic>
                    <text font-size="14.7">your</text>
                </lyric>
            </note>
        </measure>
        <measure width="193" number="7">
            <harmony font-size="15.7" default-y="9">
                <root>
                    <root-step>E</root-step>
                    <root-alter>-1</root-alter>
                </root>
                <kind text="">major-seventh</kind>
            </harmony>
            <note default-x="23">
                <pitch>
                    <step>B</step>
                    <alter>-1</alter>
                    <octave>3</octave>
                </pitch>
                <duration>8</duration>
                <tie type="start"/>
                <voice>1</voice>
                <type>whole</type>
                <accidental>flat</accidental>
                <notations>
                    <tied type="start"/>
                </notations>
                <lyric justify="left" default-y="-88" number="1">
                    <syllabic>single</syllabic>
                    <text font-size="14.7">love</text>
                    <extend/>
                </lyric>
            </note>
        </measure>
        <measure width="208" number="8">
            <note default-x="14">
                <pitch>
                    <step>B</step>
                    <alter>-1</alter>
                    <octave>3</octave>
                </pitch>
                <duration>6</duration>
                <tie type="stop"/>
                <voice>1</voice>
                <type>half</type>
                <dot/>
                <stem default-y="-19">up</stem>
                <notations>
                    <tied type="stop"/>
                </notations>
            </note>
            <note default-x="145">
                <rest/>
                <duration>2</duration>
                <voice>1</voice>
                <type>quarter</type>
            </note>
        </measure>
        <measure width="212" number="9">
            <print new-system="yes">
                <system-layout>
                    <system-distance>105</system-distance>
                </system-layout>
            </print>
            <harmony font-size="15.7" default-y="9">
                <root>
                    <root-step>E</root-step>
                    <root-alter>-1</root-alter>
                </root>
                <kind text="m7">minor-seventh</kind>
            </harmony>
            <note default-x="61">
                <pitch>
                    <step>B</step>
                    <alter>-1</alter>
                    <octave>3</octave>
                </pitch>
                <duration>8</duration>
                <tie type="start"/>
                <voice>1</voice>
                <type>whole</type>
                <accidental>flat</accidental>
                <notations>
                    <tied type="start"/>
                </notations>
                <lyric justify="left" default-y="-88" number="1">
                    <syllabic>single</syllabic>
                    <text font-size="14.7">All</text>
                    <extend/>
                </lyric>
            </note>
        </measure>
        <measure width="243" number="10">
            <harmony font-size="15.7" default-y="9">
                <root>
                    <root-step>A</root-step>
                    <root-alter>-1</root-alter>
                </root>
                <kind text="9">dominant-ninth</kind>
            </harmony>
            <note default-x="14">
                <pitch>
                    <step>B</step>
                    <alter>-1</alter>
                    <octave>3</octave>
                </pitch>
                <duration>4</duration>
                <tie type="stop"/>
                <voice>1</voice>
                <type>half</type>
                <stem default-y="-19">up</stem>
                <notations>
                    <tied type="stop"/>
                </notations>
            </note>
            <note default-x="115">
                <pitch>
                    <step>A</step>
                    <octave>3</octave>
                </pitch>
                <duration>2</duration>
                <voice>1</voice>
                <type>quarter</type>
                <stem default-y="-19">up</stem>
                <lyric default-y="-88" number="1">
                    <syllabic>single</syllabic>
                    <text font-size="14.7">thru</text>
                </lyric>
            </note>
            <note default-x="179">
                <pitch>
                    <step>A</step>
                    <alter>-1</alter>
                    <octave>3</octave>
                </pitch>
                <duration>2</duration>
                <voice>1</voice>
                <type>quarter</type>
                <accidental>flat</accidental>
                <stem default-y="-19">up</stem>
                <lyric default-y="-88" number="1">
                    <syllabic>single</syllabic>
                    <text font-size="14.7">the</text>
                </lyric>
            </note>
        </measure>
        <measure width="175" number="11">
            <harmony font-size="15.7" default-y="9">
                <root>
                    <root-step>D</root-step>
                    <root-alter>-1</root-alter>
                </root>
                <kind text="">major-seventh</kind>
            </harmony>
            <note default-x="23">
                <pitch>
                    <step>A</step>
                    <alter>-1</alter>
                    <octave>3</octave>
                </pitch>
                <duration>8</duration>
                <tie type="start"/>
                <voice>1</voice>
                <type>whole</type>
                <accidental>flat</accidental>
                <notations>
                    <tied type="start"/>
                </notations>
                <lyric justify="left" default-y="-88" number="1">
                    <syllabic>single</syllabic>
                    <text font-size="14.7">night</text>
                    <extend/>
                </lyric>
            </note>
        </measure>
        <measure width="260" number="12">
            <harmony font-size="15.7" default-y="9">
                <root>
                    <root-step>G</root-step>
                </root>
                <kind text="7" parentheses-degrees="yes">dominant</kind>
                <degree>
                    <degree-value>9</degree-value>
                    <degree-alter>-1</degree-alter>
                    <degree-type>add</degree-type>
                </degree>
            </harmony>
            <note default-x="14">
                <pitch>
                    <step>A</step>
                    <alter>-1</alter>
                    <octave>3</octave>
                </pitch>
                <duration>4</duration>
                <tie type="stop"/>
                <voice>1</voice>
                <type>half</type>
                <stem default-y="-19">up</stem>
                <notations>
                    <tied type="stop"/>
                </notations>
            </note>
            <note default-x="123">
                <pitch>
                    <step>G</step>
                    <octave>3</octave>
                </pitch>
                <duration>2</duration>
                <voice>1</voice>
                <type>quarter</type>
                <stem default-y="-19">up</stem>
                <lyric default-y="-88" number="1">
                    <syllabic>single</syllabic>
                    <text font-size="14.7">you're</text>
                </lyric>
            </note>
            <note default-x="191">
                <pitch>
                    <step>A</step>
                    <alter>-1</alter>
                    <octave>3</octave>
                </pitch>
                <duration>2</duration>
                <voice>1</voice>
                <type>quarter</type>
                <accidental>flat</accidental>
                <stem default-y="-19">up</stem>
                <lyric default-y="-88" number="1">
                    <syllabic>single</syllabic>
                    <text font-size="14.7">so</text>
                </lyric>
            </note>
        </measure>
        <measure width="314" number="13">
            <print new-system="yes">
                <system-layout>
                    <system-distance>99</system-distance>
                </system-layout>
            </print>
            <harmony font-size="15.7" default-y="9">
                <root>
                    <root-step>C</root-step>
                </root>
                <kind text="6">major-sixth</kind>
            </harmony>
            <note default-x="70">
                <pitch>
                    <step>A</step>
                    <octave>3</octave>
                </pitch>
                <duration>3</duration>
                <voice>1</voice>
                <type>quarter</type>
                <dot/>
                <stem default-y="-19">up</stem>
                <lyric default-y="-88" number="1">
                    <syllabic>single</syllabic>
                    <text font-size="14.7">close</text>
                </lyric>
            </note>
            <note default-x="160">
                <pitch>
                    <step>E</step>
                    <octave>4</octave>
                </pitch>
                <duration>1</duration>
                <voice>1</voice>
                <type>eighth</type>
                <stem default-y="-4">up</stem>
                <lyric default-y="-88" number="1">
                    <syllabic>single</syllabic>
                    <text font-size="14.7">to</text>
                </lyric>
            </note>
            <note default-x="202">
                <pitch>
                    <step>E</step>
                    <octave>4</octave>
                </pitch>
                <duration>4</duration>
                <tie type="start"/>
                <voice>1</voice>
                <type>half</type>
                <stem default-y="-4">up</stem>
                <notations>
                    <tied type="start"/>
                </notations>
                <lyric justify="left" default-y="-88" number="1">
                    <syllabic>single</syllabic>
                    <text font-size="14.7">me</text>
                    <extend/>
                </lyric>
            </note>
        </measure>
        <measure width="161" number="14">
            <harmony font-size="15.7" default-y="9">
                <root>
                    <root-step>A</root-step>
                </root>
                <kind text="7">dominant</kind>
            </harmony>
            <note default-x="10">
                <pitch>
                    <step>E</step>
                    <octave>4</octave>
                </pitch>
                <duration>8</duration>
                <tie type="stop"/>
                <tie type="start"/>
                <voice>1</voice>
                <type>whole</type>
                <notations>
                    <tied type="stop"/>
                    <tied type="start"/>
                </notations>
            </note>
        </measure>
        <measure width="216" number="15">
            <harmony font-size="15.7" default-y="9">
                <root>
                    <root-step>D</root-step>
                </root>
                <kind text="m7">minor-seventh</kind>
            </harmony>
            <note default-x="10">
                <pitch>
                    <step>E</step>
                    <octave>4</octave>
                </pitch>
                <duration>2</duration>
                <tie type="stop"/>
                <voice>1</voice>
                <type>quarter</type>
                <stem default-y="-4">up</stem>
                <notations>
                    <tied type="stop"/>
                </notations>
            </note>
            <note default-x="67">
                <rest/>
                <duration>2</duration>
                <voice>1</voice>
                <type>quarter</type>
            </note>
            <note default-x="121">
                <rest/>
                <duration>4</duration>
                <voice>1</voice>
                <type>half</type>
            </note>
        </measure>
        <measure width="199" number="16">
            <harmony font-size="15.7" default-y="9">
                <root>
                    <root-step>G</root-step>
                </root>
                <kind text="7">dominant</kind>
            </harmony>
            <note default-x="10">
                <rest/>
                <duration>4</duration>
                <voice>1</voice>
                <type>half</type>
            </note>
            <note default-x="103">
                <rest/>
                <duration>4</duration>
                <voice>1</voice>
                <type>half</type>
            </note>
        </measure>
        <measure width="206" number="17">
            <print new-system="yes">
                <system-layout>
                    <system-distance>99</system-distance>
                </system-layout>
            </print>
            <harmony font-size="15.7" default-y="9">
                <root>
                    <root-step>C</root-step>
                </root>
                <kind text="">major-seventh</kind>
            </harmony>
            <note default-x="48">
                <pitch>
                    <step>E</step>
                    <octave>4</octave>
                </pitch>
                <duration>8</duration>
                <tie type="start"/>
                <voice>1</voice>
                <type>whole</type>
                <notations>
                    <tied type="start"/>
                </notations>
                <lyric justify="left" default-y="-88" number="1">
                    <syllabic>single</syllabic>
                    <text font-size="14.7">All</text>
                    <extend/>
                </lyric>
            </note>
        </measure>
        <measure width="255" number="18">
            <harmony font-size="15.7" default-y="9">
                <root>
                    <root-step>F</root-step>
                    <root-alter>1</root-alter>
                </root>
                <kind text="m7">minor-seventh</kind>
            </harmony>
            <note default-x="10">
                <pitch>
                    <step>E</step>
                    <octave>4</octave>
                </pitch>
                <duration>4</duration>
                <tie type="stop"/>
                <voice>1</voice>
                <type>half</type>
                <stem default-y="-4">up</stem>
                <notations>
                    <tied type="stop"/>
                </notations>
            </note>
            <harmony font-size="15.7" default-y="9">
                <root>
                    <root-step>F</root-step>
                </root>
                <kind text="m7">minor-seventh</kind>
            </harmony>
            <note default-x="119">
                <pitch>
                    <step>E</step>
                    <alter>-1</alter>
                    <octave>4</octave>
                </pitch>
                <duration>2</duration>
                <voice>1</voice>
                <type>quarter</type>
                <accidental>flat</accidental>
                <stem default-y="-4">up</stem>
                <lyric default-y="-88" number="1">
                    <syllabic>single</syllabic>
                    <text font-size="14.7">thru</text>
                </lyric>
            </note>
            <note default-x="187">
                <pitch>
                    <step>D</step>
                    <octave>4</octave>
                </pitch>
                <duration>2</duration>
                <voice>1</voice>
                <type>quarter</type>
                <stem default-y="-9">up</stem>
                <lyric default-y="-88" number="1">
                    <syllabic>single</syllabic>
                    <text font-size="14.7">the</text>
                </lyric>
            </note>
        </measure>
        <measure width="168" number="19">
            <harmony font-size="15.7" default-y="9">
                <root>
                    <root-step>E</root-step>
                </root>
                <kind text="m7">minor-seventh</kind>
            </harmony>
            <note default-x="10">
                <pitch>
                    <step>D</step>
                    <octave>4</octave>
                </pitch>
                <duration>8</duration>
                <tie type="start"/>
                <voice>1</voice>
                <type>whole</type>
                <notations>
                    <tied type="start"/>
                </notations>
                <lyric justify="left" default-y="-88" number="1">
                    <syllabic>single</syllabic>
                    <text font-size="14.7">night</text>
                    <extend/>
                </lyric>
            </note>
        </measure>
        <measure width="262" number="20">
            <harmony font-size="15.7" default-y="9">
                <root>
                    <root-step>G</root-step>
                </root>
                <kind text="m7">minor-seventh</kind>
            </harmony>
            <note default-x="10">
                <pitch>
                    <step>D</step>
                    <octave>4</octave>
                </pitch>
                <duration>4</duration>
                <tie type="stop"/>
                <voice>1</voice>
                <type>half</type>
                <stem default-y="-9">up</stem>
                <notations>
                    <tied type="stop"/>
                </notations>
            </note>
            <harmony font-size="15.7" default-y="9">
                <root>
                    <root-step>C</root-step>
                </root>
                <kind text="7" parentheses-degrees="yes">dominant</kind>
                <degree>
                    <degree-value>9</degree-value>
                    <degree-alter>-1</degree-alter>
                    <degree-type>add</degree-type>
                </degree>
            </harmony>
            <note default-x="122">
                <pitch>
                    <step>D</step>
                    <alter>-1</alter>
                    <octave>4</octave>
                </pitch>
                <duration>2</duration>
                <voice>1</voice>
                <type>quarter</type>
                <accidental>flat</accidental>
                <stem default-y="-9">up</stem>
                <lyric default-y="-88" number="1">
                    <syllabic>single</syllabic>
                    <text font-size="14.7">from</text>
                </lyric>
            </note>
            <note default-x="191">
                <pitch>
                    <step>C</step>
                    <octave>4</octave>
                </pitch>
                <duration>2</duration>
                <voice>1</voice>
                <type>quarter</type>
                <stem default-y="-14">up</stem>
                <lyric default-y="-88" number="1">
                    <syllabic>single</syllabic>
                    <text font-size="14.7">a</text>
                </lyric>
            </note>
        </measure>
        <measure width="238" number="21">
            <print new-system="yes">
                <system-layout>
                    <system-distance>90</system-distance>
                </system-layout>
            </print>
            <harmony font-size="15.7" default-y="9">
                <root>
                    <root-step>F</root-step>
                </root>
                <kind text="">major-seventh</kind>
            </harmony>
            <note default-x="51">
                <pitch>
                    <step>C</step>
                    <octave>4</octave>
                </pitch>
                <duration>8</duration>
                <tie type="start"/>
                <voice>1</voice>
                <type>whole</type>
                <notations>
                    <tied type="start"/>
                </notations>
                <lyric justify="left" default-y="-88" number="1">
                    <syllabic>single</syllabic>
                    <text font-size="14.7">height</text>
                    <extend/>
                </lyric>
            </note>
        </measure>
        <measure width="258" number="22">
            <harmony font-size="15.7" default-y="9">
                <root>
                    <root-step>F</root-step>
                </root>
                <kind text="m7">minor-seventh</kind>
            </harmony>
            <note default-x="14">
                <pitch>
                    <step>C</step>
                    <octave>4</octave>
                </pitch>
                <duration>4</duration>
                <tie type="stop"/>
                <voice>1</voice>
                <type>half</type>
                <stem default-y="-14">up</stem>
                <notations>
                    <tied type="stop"/>
                </notations>
            </note>
            <harmony font-size="15.7" default-y="9">
                <root>
                    <root-step>B</root-step>
                    <root-alter>-1</root-alter>
                </root>
                <kind text="7" parentheses-degrees="yes">dominant</kind>
                <degree>
                    <degree-value>9</degree-value>
                    <degree-alter>-1</degree-alter>
                    <degree-type>add</degree-type>
                </degree>
            </harmony>
            <note default-x="124">
                <pitch>
                    <step>B</step>
                    <octave>3</octave>
                </pitch>
                <duration>3</duration>
                <voice>1</voice>
                <type>quarter</type>
                <dot/>
                <stem default-y="-19">up</stem>
                <lyric default-y="-88" number="1">
                    <syllabic>single</syllabic>
                    <text font-size="14.7">far</text>
                </lyric>
            </note>
            <note default-x="214">
                <pitch>
                    <step>B</step>
                    <alter>-1</alter>
                    <octave>3</octave>
                </pitch>
                <duration>1</duration>
                <voice>1</voice>
                <type>eighth</type>
                <accidental>flat</accidental>
                <stem default-y="-19">up</stem>
                <lyric default-y="-88" number="1">
                    <syllabic>begin</syllabic>
                    <text font-size="14.7">a</text>
                </lyric>
            </note>
        </measure>
        <measure width="206" number="23">
            <harmony font-size="15.7" default-y="9">
                <root>
                    <root-step>E</root-step>
                    <root-alter>-1</root-alter>
                </root>
                <kind text="">major-seventh</kind>
            </harmony>
            <note default-x="23">
                <pitch>
                    <step>B</step>
                    <alter>-1</alter>
                    <octave>3</octave>
                </pitch>
                <duration>8</duration>
                <tie type="start"/>
                <voice>1</voice>
                <type>whole</type>
                <accidental>flat</accidental>
                <notations>
                    <tied type="start"/>
                </notations>
                <lyric justify="left" default-y="-88" number="1">
                    <syllabic>end</syllabic>
                    <text font-size="14.7">bove</text>
                    <extend/>
                </lyric>
            </note>
        </measure>
        <measure width="189" number="24">
            <note default-x="14">
                <pitch>
                    <step>B</step>
                    <alter>-1</alter>
                    <octave>3</octave>
                </pitch>
                <duration>8</duration>
                <tie type="stop"/>
                <voice>1</voice>
                <type>whole</type>
                <notations>
                    <tied type="stop"/>
                </notations>
            </note>
        </measure>
        <measure width="205" number="25">
            <print new-system="yes">
                <system-layout>
                    <system-distance>105</system-distance>
                </system-layout>
            </print>
            <harmony font-size="15.7" default-y="9">
                <root>
                    <root-step>B</root-step>
                </root>
                <kind text="">major-seventh</kind>
            </harmony>
            <note default-x="61">
                <pitch>
                    <step>B</step>
                    <alter>-1</alter>
                    <octave>3</octave>
                </pitch>
                <duration>8</duration>
                <tie type="start"/>
                <voice>1</voice>
                <type>whole</type>
                <accidental>flat</accidental>
                <notations>
                    <tied type="start"/>
                </notations>
                <lyric justify="left" default-y="-88" number="1">
                    <syllabic>single</syllabic>
                    <text font-size="14.7">You</text>
                    <extend/>
                </lyric>
            </note>
        </measure>
        <measure width="251" number="26">
            <note default-x="14">
                <pitch>
                    <step>B</step>
                    <alter>-1</alter>
                    <octave>3</octave>
                </pitch>
                <duration>4</duration>
                <tie type="stop"/>
                <voice>1</voice>
                <type>half</type>
                <stem default-y="-19">up</stem>
                <notations>
                    <tied type="stop"/>
                </notations>
            </note>
            <note default-x="119">
                <pitch>
                    <step>A</step>
                    <octave>3</octave>
                </pitch>
                <duration>2</duration>
                <voice>1</voice>
                <type>quarter</type>
                <stem default-y="-19">up</stem>
                <lyric default-y="-88" number="1">
                    <syllabic>single</syllabic>
                    <text font-size="14.7">and</text>
                </lyric>
            </note>
            <note default-x="184">
                <pitch>
                    <step>A</step>
                    <alter>-1</alter>
                    <octave>3</octave>
                </pitch>
                <duration>2</duration>
                <voice>1</voice>
                <type>quarter</type>
                <accidental>flat</accidental>
                <stem default-y="-19">up</stem>
                <lyric default-y="-88" number="1">
                    <syllabic>single</syllabic>
                    <text font-size="14.7">your</text>
                </lyric>
            </note>
        </measure>
        <measure width="167" number="27">
            <harmony font-size="15.7" default-y="9">
                <root>
                    <root-step>B</root-step>
                    <root-alter>-1</root-alter>
                </root>
                <kind text="7">dominant</kind>
            </harmony>
            <note default-x="23">
                <pitch>
                    <step>A</step>
                    <alter>-1</alter>
                    <octave>3</octave>
                </pitch>
                <duration>8</duration>
                <tie type="start"/>
                <voice>1</voice>
                <type>whole</type>
                <accidental>flat</accidental>
                <notations>
                    <tied type="start"/>
                </notations>
                <lyric justify="left" default-y="-88" number="1">
                    <syllabic>single</syllabic>
                    <text font-size="14.7">love</text>
                    <extend/>
                </lyric>
            </note>
        </measure>
        <measure width="268" number="28">
            <note default-x="13">
                <pitch>
                    <step>A</step>
                    <alter>-1</alter>
                    <octave>3</octave>
                </pitch>
                <duration>4</duration>
                <tie type="stop"/>
                <voice>1</voice>
                <type>half</type>
                <stem default-y="-19">up</stem>
                <notations>
                    <tied type="stop"/>
                </notations>
            </note>
            <note default-x="127">
                <pitch>
                    <step>G</step>
                    <octave>3</octave>
                </pitch>
                <duration>2</duration>
                <voice>1</voice>
                <type>quarter</type>
                <stem default-y="-19">up</stem>
                <lyric default-y="-88" number="1">
                    <syllabic>single</syllabic>
                    <text font-size="14.7">bring</text>
                </lyric>
            </note>
            <note default-x="197">
                <pitch>
                    <step>G</step>
                    <alter>-1</alter>
                    <octave>3</octave>
                </pitch>
                <duration>2</duration>
                <voice>1</voice>
                <type>quarter</type>
                <accidental>flat</accidental>
                <stem default-y="-19">up</stem>
                <lyric default-y="-88" number="1">
                    <syllabic>single</syllabic>
                    <text font-size="14.7">me</text>
                </lyric>
            </note>
        </measure>
        <measure width="330" number="29">
            <print new-system="yes">
                <system-layout>
                    <system-distance>112</system-distance>
                </system-layout>
            </print>
            <harmony font-size="15.7" default-y="9">
                <root>
                    <root-step>E</root-step>
                    <root-alter>-1</root-alter>
                </root>
                <kind text="">major-seventh</kind>
            </harmony>
            <note default-x="59">
                <pitch>
                    <step>G</step>
                    <octave>3</octave>
                </pitch>
                <duration>3</duration>
                <voice>1</voice>
                <type>quarter</type>
                <dot/>
                <stem default-y="-19">up</stem>
                <lyric default-y="-88" number="1">
                    <syllabic>begin</syllabic>
                    <text font-size="14.7">ec</text>
                </lyric>
            </note>
            <note default-x="159">
                <pitch>
                    <step>G</step>
                    <octave>3</octave>
                </pitch>
                <duration>1</duration>
                <voice>1</voice>
                <type>eighth</type>
                <stem default-y="-19">up</stem>
                <lyric default-y="-88" number="1">
                    <syllabic>middle</syllabic>
                    <text font-size="14.7">sta</text>
                </lyric>
            </note>
            <note default-x="206">
                <pitch>
                    <step>G</step>
                    <octave>3</octave>
                </pitch>
                <duration>4</duration>
                <tie type="start"/>
                <voice>1</voice>
                <type>half</type>
                <stem default-y="-19">up</stem>
                <notations>
                    <tied type="start"/>
                </notations>
                <lyric justify="left" default-y="-88" number="1">
                    <syllabic>end</syllabic>
                    <text font-size="14.7">sy.</text>
                    <extend/>
                </lyric>
            </note>
        </measure>
        <measure width="165" number="30">
            <note default-x="14">
                <pitch>
                    <step>G</step>
                    <octave>3</octave>
                </pitch>
                <duration>8</duration>
                <tie type="stop"/>
                <voice>1</voice>
                <type>whole</type>
                <notations>
                    <tied type="stop"/>
                </notations>
            </note>
        </measure>
        <measure width="198" number="31">
            <harmony font-size="15.7" default-y="9">
                <root>
                    <root-step>F</root-step>
                </root>
                <kind text="m6">minor-sixth</kind>
            </harmony>
            <note default-x="10">
                <rest/>
                <duration>4</duration>
                <voice>1</voice>
                <type>half</type>
            </note>
            <note default-x="102">
                <rest/>
                <duration>4</duration>
                <voice>1</voice>
                <type>half</type>
            </note>
        </measure>
        <measure width="198" number="32">
            <harmony font-size="15.7" default-y="9">
                <root>
                    <root-step>G</root-step>
                </root>
                <kind>dominant</kind>
                <degree>
                    <degree-value>5</degree-value>
                    <degree-alter>1</degree-alter>
                    <degree-type>alter</degree-type>
                </degree>
            </harmony>
            <note default-x="10">
                <rest/>
                <duration>4</duration>
                <voice>1</voice>
                <type>half</type>
            </note>
            <note default-x="102">
                <rest/>
                <duration>4</duration>
                <voice>1</voice>
                <type>half</type>
            </note>
        </measure>
        <measure width="232" number="33">
            <print page-number="2" new-page="yes">
                <system-layout>
                    <top-system-distance>54</top-system-distance>
                </system-layout>
            </print>
            <harmony font-size="15.7" default-y="9">
                <root>
                    <root-step>C</root-step>
                </root>
                <kind text="m">minor</kind>
            </harmony>
            <note default-x="48">
                <rest/>
                <duration>4</duration>
                <voice>1</voice>
                <type>half</type>
            </note>
            <note default-x="141">
                <pitch>
                    <step>G</step>
                    <octave>4</octave>
                </pitch>
                <duration>4</duration>
                <voice>1</voice>
                <type>half</type>
                <stem default-y="6">up</stem>
                <lyric default-y="-88" number="1">
                    <syllabic>single</syllabic>
                    <text font-size="14.7">When</text>
                </lyric>
            </note>
        </measure>
        <measure width="314" number="34">
            <note default-x="34">
                <pitch>
                    <step>B</step>
                    <alter>-1</alter>
                    <octave>4</octave>
                </pitch>
                <duration>4</duration>
                <voice>1</voice>
                <type>half</type>
                <accidental>flat</accidental>
                <stem default-y="-56">down</stem>
                <lyric default-y="-88" number="1">
                    <syllabic>single</syllabic>
                    <text font-size="14.7">dawn</text>
                </lyric>
            </note>
            <note default-x="159">
                <pitch>
                    <step>A</step>
                    <octave>4</octave>
                </pitch>
                <duration>2</duration>
                <voice>1</voice>
                <type>quarter</type>
                <stem default-y="11">up</stem>
                <lyric default-y="-88" number="1">
                    <syllabic>single</syllabic>
                    <text font-size="14.7">come</text>
                </lyric>
            </note>
            <note default-x="236">
                <pitch>
                    <step>A</step>
                    <alter>-1</alter>
                    <octave>4</octave>
                </pitch>
                <duration>2</duration>
                <voice>1</voice>
                <type>quarter</type>
                <accidental>flat</accidental>
                <stem default-y="11">up</stem>
                <lyric default-y="-88" number="1">
                    <syllabic>single</syllabic>
                    <text font-size="14.7">to</text>
                </lyric>
            </note>
        </measure>
        <measure width="212" number="35">
            <harmony font-size="15.7" default-y="9">
                <root>
                    <root-step>D</root-step>
                </root>
                <kind text="">half-diminished</kind>
            </harmony>
            <note default-x="27">
                <pitch>
                    <step>A</step>
                    <alter>-1</alter>
                    <octave>4</octave>
                </pitch>
                <duration>6</duration>
                <voice>1</voice>
                <type>half</type>
                <dot/>
                <accidental>flat</accidental>
                <stem default-y="11">up</stem>
                <lyric default-y="-88" number="1">
                    <syllabic>begin</syllabic>
                    <text font-size="14.7">wak</text>
                </lyric>
            </note>
            <note default-x="152">
                <pitch>
                    <step>G</step>
                    <octave>4</octave>
                </pitch>
                <duration>2</duration>
                <voice>1</voice>
                <type>quarter</type>
                <stem default-y="6">up</stem>
                <lyric default-y="-88" number="1">
                    <syllabic>end</syllabic>
                    <text font-size="14.7">en</text>
                </lyric>
            </note>
        </measure>
        <measure width="158" number="36">
            <harmony font-size="15.7" default-y="9">
                <root>
                    <root-step>G</root-step>
                </root>
                <kind text="7">dominant</kind>
            </harmony>
            <note default-x="10">
                <pitch>
                    <step>G</step>
                    <octave>4</octave>
                </pitch>
                <duration>8</duration>
                <tie type="start"/>
                <voice>1</voice>
                <type>whole</type>
                <notations>
                    <tied type="start"/>
                </notations>
                <lyric justify="left" default-y="-88" number="1">
                    <syllabic>single</syllabic>
                    <text font-size="14.7">me,</text>
                    <extend/>
                </lyric>
            </note>
        </measure>
        <measure width="343" number="37">
            <print new-system="yes">
                <system-layout>
                    <system-distance>109</system-distance>
                </system-layout>
            </print>
            <harmony font-size="15.7" default-y="9">
                <root>
                    <root-step>B</root-step>
                    <root-alter>-1</root-alter>
                </root>
                <kind text="m7">minor-seventh</kind>
            </harmony>
            <note default-x="48">
                <pitch>
                    <step>G</step>
                    <octave>4</octave>
                </pitch>
                <duration>2</duration>
                <tie type="stop"/>
                <voice>1</voice>
                <type>quarter</type>
                <stem default-y="6">up</stem>
                <notations>
                    <tied type="stop"/>
                </notations>
            </note>
            <note default-x="121">
                <pitch>
                    <step>G</step>
                    <octave>4</octave>
                </pitch>
                <duration>2</duration>
                <voice>1</voice>
                <type>quarter</type>
                <stem default-y="6">up</stem>
                <lyric default-y="-88" number="1">
                    <syllabic>single</syllabic>
                    <text font-size="14.7">You're</text>
                </lyric>
            </note>
            <note default-x="195">
                <pitch>
                    <step>B</step>
                    <alter>-1</alter>
                    <octave>4</octave>
                </pitch>
                <duration>2</duration>
                <voice>1</voice>
                <type>quarter</type>
                <accidental>flat</accidental>
                <stem default-y="-55.5">down</stem>
                <lyric default-y="-88" number="1">
                    <syllabic>begin</syllabic>
                    <text font-size="14.7">ne</text>
                </lyric>
            </note>
            <note default-x="269">
                <pitch>
                    <step>A</step>
                    <octave>4</octave>
                </pitch>
                <duration>2</duration>
                <voice>1</voice>
                <type>quarter</type>
                <stem default-y="11">up</stem>
                <lyric default-y="-88" number="1">
                    <syllabic>end</syllabic>
                    <text font-size="14.7">ver</text>
                </lyric>
            </note>
        </measure>
        <measure width="225" number="38">
            <harmony font-size="15.7" default-y="9">
                <root>
                    <root-step>E</root-step>
                    <root-alter>-1</root-alter>
                </root>
                <kind text="7">dominant</kind>
            </harmony>
            <note default-x="32">
                <pitch>
                    <step>A</step>
                    <alter>-1</alter>
                    <octave>4</octave>
                </pitch>
                <duration>4</duration>
                <voice>1</voice>
                <type>half</type>
                <accidental>flat</accidental>
                <stem default-y="11">up</stem>
                <lyric default-y="-88" number="1">
                    <syllabic>single</syllabic>
                    <text font-size="14.7">there</text>
                </lyric>
            </note>
            <note default-x="128">
                <pitch>
                    <step>G</step>
                    <octave>4</octave>
                </pitch>
                <duration>4</duration>
                <voice>1</voice>
                <type>half</type>
                <stem default-y="6">up</stem>
                <lyric default-y="-88" number="1">
                    <syllabic>single</syllabic>
                    <text font-size="14.7">at</text>
                </lyric>
            </note>
        </measure>
        <measure width="157" number="39">
            <harmony font-size="15.7" default-y="9">
                <root>
                    <root-step>A</root-step>
                    <root-alter>-1</root-alter>
                </root>
                <kind text="">major</kind>
            </harmony>
            <note default-x="10">
                <pitch>
                    <step>F</step>
                    <octave>4</octave>
                </pitch>
                <duration>8</duration>
                <tie type="start"/>
                <voice>1</voice>
                <type>whole</type>
                <notations>
                    <tied type="start"/>
                </notations>
                <lyric justify="left" default-y="-88" number="1">
                    <syllabic>single</syllabic>
                    <text font-size="14.7">all</text>
                    <extend/>
                </lyric>
            </note>
        </measure>
        <measure width="190" number="40">
            <note default-x="10">
                <pitch>
                    <step>F</step>
                    <octave>4</octave>
                </pitch>
                <duration>4</duration>
                <tie type="stop"/>
                <voice>1</voice>
                <type>half</type>
                <stem default-y="1">up</stem>
                <notations>
                    <tied type="stop"/>
                </notations>
            </note>
            <note default-x="98">
                <rest/>
                <duration>4</duration>
                <voice>1</voice>
                <type>half</type>
            </note>
        </measure>
        <measure width="203" number="41">
            <print new-system="yes">
                <system-layout>
                    <system-distance>104</system-distance>
                </system-layout>
            </print>
            <harmony font-size="15.7" default-y="9">
                <root>
                    <root-step>F</root-step>
                </root>
                <kind text="m7">minor-seventh</kind>
            </harmony>
            <note default-x="48">
                <rest/>
                <duration>4</duration>
                <voice>1</voice>
                <type>half</type>
            </note>
            <note default-x="126">
                <pitch>
                    <step>F</step>
                    <octave>4</octave>
                </pitch>
                <duration>4</duration>
                <voice>1</voice>
                <type>half</type>
                <stem default-y="1">up</stem>
                <lyric default-y="-88" number="1">
                    <syllabic>single</syllabic>
                    <text font-size="14.7">I</text>
                </lyric>
            </note>
        </measure>
        <measure width="284" number="42">
            <harmony font-size="15.7" default-y="9">
                <root>
                    <root-step>B</root-step>
                    <root-alter>-1</root-alter>
                </root>
                <kind text="7">dominant</kind>
            </harmony>
            <note default-x="35">
                <pitch>
                    <step>A</step>
                    <alter>-1</alter>
                    <octave>4</octave>
                </pitch>
                <duration>4</duration>
                <voice>1</voice>
                <type>half</type>
                <accidental>flat</accidental>
                <stem default-y="11">up</stem>
                <lyric default-y="-88" number="1">
                    <syllabic>single</syllabic>
                    <text font-size="14.7">know</text>
                </lyric>
            </note>
            <note default-x="146">
                <pitch>
                    <step>G</step>
                    <octave>4</octave>
                </pitch>
                <duration>2</duration>
                <voice>1</voice>
                <type>quarter</type>
                <stem default-y="6">up</stem>
                <lyric default-y="-88" number="1">
                    <syllabic>single</syllabic>
                    <text font-size="14.7">you've</text>
                </lyric>
            </note>
            <note default-x="215">
                <pitch>
                    <step>F</step>
                    <octave>4</octave>
                </pitch>
                <duration>2</duration>
                <voice>1</voice>
                <type>quarter</type>
                <stem default-y="1">up</stem>
                <lyric default-y="-88" number="1">
                    <syllabic>begin</syllabic>
                    <text font-size="14.7">for</text>
                </lyric>
            </note>
        </measure>
        <measure width="233" number="43">
            <harmony font-size="15.7" default-y="9">
                <root>
                    <root-step>E</root-step>
                    <root-alter>-1</root-alter>
                </root>
                <kind text="">major</kind>
            </harmony>
            <note default-x="23">
                <pitch>
                    <step>F</step>
                    <octave>4</octave>
                </pitch>
                <duration>4</duration>
                <tie type="start"/>
                <voice>1</voice>
                <type>half</type>
                <stem default-y="1">up</stem>
                <notations>
                    <tied type="start"/>
                </notations>
                <lyric default-y="-88" number="1">
                    <syllabic>middle</syllabic>
                    <text font-size="14.7">sak</text>
                </lyric>
            </note>
            <harmony font-size="15.7" default-y="9">
                <root>
                    <root-step>E</root-step>
                    <root-alter>-1</root-alter>
                </root>
                <kind text="">major-seventh</kind>
                <bass>
                    <bass-step>D</bass-step>
                </bass>
            </harmony>
            <note default-x="110">
                <pitch>
                    <step>F</step>
                    <octave>4</octave>
                </pitch>
                <duration>2</duration>
                <tie type="stop"/>
                <tie type="start"/>
                <voice>1</voice>
                <type>quarter</type>
                <stem default-y="1">up</stem>
                <notations>
                    <tied type="stop"/>
                    <tied type="start"/>
                </notations>
            </note>
            <note default-x="164">
                <pitch>
                    <step>F</step>
                    <octave>4</octave>
                </pitch>
                <duration>1</duration>
                <tie type="stop"/>
                <voice>1</voice>
                <type>eighth</type>
                <stem default-y="-5">up</stem>
                <beam number="1">begin</beam>
                <notations>
                    <tied type="stop"/>
                </notations>
            </note>
            <note default-x="198">
                <pitch>
                    <step>E</step>
                    <alter>-1</alter>
                    <octave>4</octave>
                </pitch>
                <duration>1</duration>
                <voice>1</voice>
                <type>eighth</type>
                <accidental>flat</accidental>
                <stem default-y="-7.5">up</stem>
                <beam number="1">end</beam>
                <lyric default-y="-88" number="1">
                    <syllabic>end</syllabic>
                    <text font-size="14.7">en</text>
                </lyric>
            </note>
        </measure>
        <measure width="196" number="44">
            <harmony font-size="15.7" default-y="9">
                <root>
                    <root-step>C</root-step>
                </root>
                <kind text="m">minor</kind>
            </harmony>
            <note default-x="23">
                <pitch>
                    <step>E</step>
                    <alter>-1</alter>
                    <octave>4</octave>
                </pitch>
                <duration>8</duration>
                <tie type="start"/>
                <voice>1</voice>
                <type>whole</type>
                <accidental>flat</accidental>
                <notations>
                    <tied type="start"/>
                </notations>
                <lyric justify="left" default-y="-88" number="1">
                    <syllabic>single</syllabic>
                    <text font-size="14.7">me,</text>
                    <extend/>
                </lyric>
            </note>
            <backup>
                <duration>8</duration>
            </backup>
            <forward>
                <duration>4</duration>
                <voice>2</voice>
            </forward>
            <harmony font-size="15.7" default-y="9">
                <root>
                    <root-step>C</root-step>
                </root>
                <kind text="m7">minor-seventh</kind>
                <bass>
                    <bass-step>B</bass-step>
                    <bass-alter>-1</bass-alter>
                </bass>
            </harmony>
            <forward>
                <duration>4</duration>
                <voice>2</voice>
            </forward>
        </measure>
        <measure width="285" number="45">
            <print new-system="yes">
                <system-layout>
                    <system-distance>104</system-distance>
                </system-layout>
            </print>
            <harmony font-size="15.7" default-y="9">
                <root>
                    <root-step>A</root-step>
                    <root-alter>-1</root-alter>
                </root>
                <kind text="">major-seventh</kind>
            </harmony>
            <note default-x="48">
                <pitch>
                    <step>E</step>
                    <alter>-1</alter>
                    <octave>4</octave>
                </pitch>
                <duration>4</duration>
                <tie type="stop"/>
                <voice>1</voice>
                <type>half</type>
                <stem default-y="-4">up</stem>
                <notations>
                    <tied type="stop"/>
                </notations>
            </note>
            <harmony font-size="15.7" default-y="9">
                <root>
                    <root-step>A</root-step>
                    <root-alter>-1</root-alter>
                </root>
                <kind text="">major-seventh</kind>
                <bass>
                    <bass-step>G</bass-step>
                </bass>
            </harmony>
            <note default-x="154">
                <pitch>
                    <step>E</step>
                    <alter>-1</alter>
                    <octave>4</octave>
                </pitch>
                <duration>2</duration>
                <voice>1</voice>
                <type>quarter</type>
                <accidental>flat</accidental>
                <stem default-y="-4">up</stem>
                <lyric default-y="-88" number="1">
                    <syllabic>single</syllabic>
                    <text font-size="14.7">'til</text>
                </lyric>
            </note>
            <note default-x="219">
                <pitch>
                    <step>E</step>
                    <alter>-1</alter>
                    <octave>4</octave>
                </pitch>
                <duration>2</duration>
                <voice>1</voice>
                <type>quarter</type>
                <stem default-y="-4">up</stem>
                <lyric default-y="-88" number="1">
                    <syllabic>single</syllabic>
                    <text font-size="14.7">the</text>
                </lyric>
            </note>
        </measure>
        <measure width="248" number="46">
            <harmony font-size="15.7" default-y="9">
                <root>
                    <root-step>D</root-step>
                </root>
                <kind text="7" parentheses-degrees="yes">dominant</kind>
                <bass>
                    <bass-step>F</bass-step>
                    <bass-alter>1</bass-alter>
                </bass>
                <degree>
                    <degree-value>9</degree-value>
                    <degree-alter>-1</degree-alter>
                    <degree-type>add</degree-type>
                </degree>
            </harmony>
            <note default-x="23">
                <pitch>
                    <step>E</step>
                    <alter>-1</alter>
                    <octave>4</octave>
                </pitch>
                <duration>6</duration>
                <voice>1</voice>
                <type>half</type>
                <dot/>
                <accidental>flat</accidental>
                <stem default-y="-4">up</stem>
                <lyric default-y="-88" number="1">
                    <syllabic>begin</syllabic>
                    <text font-size="14.7">sha</text>
                </lyric>
            </note>
            <note default-x="175">
                <pitch>
                    <step>D</step>
                    <octave>4</octave>
                </pitch>
                <duration>2</duration>
                <voice>1</voice>
                <type>quarter</type>
                <stem default-y="-9">up</stem>
                <lyric default-y="-88" number="1">
                    <syllabic>end</syllabic>
                    <text font-size="14.7">dows</text>
                </lyric>
            </note>
        </measure>
        <measure width="173" number="47">
            <harmony font-size="15.7" default-y="9">
                <root>
                    <root-step>G</root-step>
                </root>
                <kind text="">major-seventh</kind>
            </harmony>
            <note default-x="10">
                <pitch>
                    <step>D</step>
                    <octave>4</octave>
                </pitch>
                <duration>8</duration>
                <tie type="start"/>
                <voice>1</voice>
                <type>whole</type>
                <notations>
                    <tied type="start"/>
                </notations>
                <lyric justify="left" default-y="-88" number="1">
                    <syllabic>single</syllabic>
                    <text font-size="14.7">fall</text>
                    <extend/>
                </lyric>
            </note>
        </measure>
        <measure width="211" number="48">
            <harmony font-size="15.7" default-y="9">
                <root>
                    <root-step>G</root-step>
                </root>
                <kind text="7">dominant</kind>
            </harmony>
            <note default-x="10">
                <pitch>
                    <step>D</step>
                    <octave>4</octave>
                </pitch>
                <duration>6</duration>
                <tie type="stop"/>
                <voice>1</voice>
                <type>half</type>
                <dot/>
                <stem default-y="-9">up</stem>
                <notations>
                    <tied type="stop"/>
                </notations>
            </note>
            <note default-x="146">
                <pitch>
                    <step>G</step>
                    <octave>3</octave>
                </pitch>
                <duration>2</duration>
                <voice>1</voice>
                <type>quarter</type>
                <stem default-y="-19">up</stem>
                <lyric default-y="-88" number="1">
                    <syllabic>single</syllabic>
                    <text font-size="14.7">But</text>
                </lyric>
            </note>
        </measure>
        <measure width="216" number="49">
            <print new-system="yes">
                <system-layout>
                    <system-distance>104</system-distance>
                </system-layout>
            </print>
            <harmony font-size="15.7" default-y="9">
                <root>
                    <root-step>C</root-step>
                </root>
                <kind text="">major-seventh</kind>
            </harmony>
            <note default-x="48">
                <pitch>
                    <step>E</step>
                    <octave>4</octave>
                </pitch>
                <duration>8</duration>
                <tie type="start"/>
                <voice>1</voice>
                <type>whole</type>
                <notations>
                    <tied type="start"/>
                </notations>
                <lyric justify="left" default-y="-88" number="1">
                    <syllabic>single</syllabic>
                    <text font-size="14.7">then</text>
                    <extend/>
                </lyric>
            </note>
        </measure>
        <measure width="276" number="50">
            <harmony font-size="15.7" default-y="9">
                <root>
                    <root-step>F</root-step>
                    <root-alter>1</root-alter>
                </root>
                <kind text="m7">minor-seventh</kind>
            </harmony>
            <note default-x="10">
                <pitch>
                    <step>E</step>
                    <octave>4</octave>
                </pitch>
                <duration>4</duration>
                <tie type="stop"/>
                <voice>1</voice>
                <type>half</type>
                <stem default-y="-4">up</stem>
                <notations>
                    <tied type="stop"/>
                </notations>
            </note>
            <harmony font-size="15.7" default-y="9">
                <root>
                    <root-step>F</root-step>
                </root>
                <kind text="m7">minor-seventh</kind>
            </harmony>
            <note default-x="129">
                <pitch>
                    <step>E</step>
                    <alter>-1</alter>
                    <octave>4</octave>
                </pitch>
                <duration>2</duration>
                <voice>1</voice>
                <type>quarter</type>
                <accidental>flat</accidental>
                <stem default-y="-4">up</stem>
                <lyric default-y="-88" number="1">
                    <syllabic>single</syllabic>
                    <text font-size="14.7">once</text>
                </lyric>
            </note>
            <note default-x="202">
                <pitch>
                    <step>D</step>
                    <octave>4</octave>
                </pitch>
                <duration>2</duration>
                <voice>1</voice>
                <type>quarter</type>
                <stem default-y="-9">up</stem>
                <lyric default-y="-88" number="1">
                    <syllabic>begin</syllabic>
                    <text font-size="14.7">a</text>
                </lyric>
            </note>
        </measure>
        <measure width="178" number="51">
            <harmony font-size="15.7" default-y="9">
                <root>
                    <root-step>E</root-step>
                </root>
                <kind text="m7">minor-seventh</kind>
            </harmony>
            <note default-x="10">
                <pitch>
                    <step>D</step>
                    <octave>4</octave>
                </pitch>
                <duration>8</duration>
                <tie type="start"/>
                <voice>1</voice>
                <type>whole</type>
                <notations>
                    <tied type="start"/>
                </notations>
                <lyric justify="left" default-y="-88" number="1">
                    <syllabic>end</syllabic>
                    <text font-size="14.7">gain</text>
                    <extend/>
                </lyric>
            </note>
        </measure>
        <measure width="247" number="52">
            <harmony font-size="15.7" default-y="9">
                <root>
                    <root-step>G</root-step>
                </root>
                <kind text="m7">minor-seventh</kind>
            </harmony>
            <note default-x="10">
                <pitch>
                    <step>D</step>
                    <octave>4</octave>
                </pitch>
                <duration>4</duration>
                <tie type="stop"/>
                <voice>1</voice>
                <type>half</type>
                <stem default-y="-9">up</stem>
                <notations>
                    <tied type="stop"/>
                </notations>
            </note>
            <harmony font-size="15.7" default-y="9">
                <root>
                    <root-step>C</root-step>
                </root>
                <kind text="7" parentheses-degrees="yes">dominant</kind>
                <degree>
                    <degree-value>9</degree-value>
                    <degree-alter>-1</degree-alter>
                    <degree-type>add</degree-type>
                </degree>
            </harmony>
            <note default-x="115">
                <pitch>
                    <step>D</step>
                    <alter>-1</alter>
                    <octave>4</octave>
                </pitch>
                <duration>2</duration>
                <voice>1</voice>
                <type>quarter</type>
                <accidental>flat</accidental>
                <stem default-y="-9">up</stem>
                <lyric default-y="-88" number="1">
                    <syllabic>single</syllabic>
                    <text font-size="14.7">I</text>
                </lyric>
            </note>
            <note default-x="180">
                <pitch>
                    <step>C</step>
                    <octave>4</octave>
                </pitch>
                <duration>2</duration>
                <voice>1</voice>
                <type>quarter</type>
                <stem default-y="-14">up</stem>
                <lyric default-y="-88" number="1">
                    <syllabic>single</syllabic>
                    <text font-size="14.7">can</text>
                </lyric>
            </note>
        </measure>
        <measure width="222" number="53">
            <print new-system="yes">
                <system-layout>
                    <system-distance>104</system-distance>
                </system-layout>
            </print>
            <harmony font-size="15.7" default-y="9">
                <root>
                    <root-step>F</root-step>
                </root>
                <kind text="">major-seventh</kind>
            </harmony>
            <note default-x="51">
                <pitch>
                    <step>C</step>
                    <octave>4</octave>
                </pitch>
                <duration>8</duration>
                <tie type="start"/>
                <voice>1</voice>
                <type>whole</type>
                <notations>
                    <tied type="start"/>
                </notations>
                <lyric justify="left" default-y="-88" number="1">
                    <syllabic>single</syllabic>
                    <text font-size="14.7">dream</text>
                    <extend/>
                </lyric>
            </note>
        </measure>
        <measure width="258" number="54">
            <note default-x="13">
                <pitch>
                    <step>C</step>
                    <octave>4</octave>
                </pitch>
                <duration>4</duration>
                <tie type="stop"/>
                <voice>1</voice>
                <type>half</type>
                <stem default-y="-14">up</stem>
                <notations>
                    <tied type="stop"/>
                </notations>
            </note>
            <note default-x="122">
                <pitch>
                    <step>B</step>
                    <octave>3</octave>
                </pitch>
                <duration>2</duration>
                <voice>1</voice>
                <type>quarter</type>
                <stem default-y="-19">up</stem>
                <lyric default-y="-88" number="1">
                    <syllabic>single</syllabic>
                    <text font-size="14.7">I've</text>
                </lyric>
            </note>
            <note default-x="189">
                <pitch>
                    <step>C</step>
                    <octave>4</octave>
                </pitch>
                <duration>2</duration>
                <voice>1</voice>
                <type>quarter</type>
                <stem default-y="-14">up</stem>
                <lyric default-y="-88" number="1">
                    <syllabic>single</syllabic>
                    <text font-size="14.7">the</text>
                </lyric>
            </note>
        </measure>
        <measure width="190" number="55">
            <harmony font-size="15.7" default-y="9">
                <root>
                    <root-step>F</root-step>
                </root>
                <kind text="m7">minor-seventh</kind>
            </harmony>
            <note default-x="23">
                <pitch>
                    <step>A</step>
                    <alter>-1</alter>
                    <octave>4</octave>
                </pitch>
                <duration>8</duration>
                <tie type="start"/>
                <voice>1</voice>
                <type>whole</type>
                <accidental>flat</accidental>
                <notations>
                    <tied type="start"/>
                </notations>
                <lyric justify="left" default-y="-88" number="1">
                    <syllabic>single</syllabic>
                    <text font-size="14.7">right.</text>
                    <extend/>
                </lyric>
            </note>
        </measure>
        <measure width="246" number="56">
            <note default-x="10">
                <pitch>
                    <step>A</step>
                    <alter>-1</alter>
                    <octave>4</octave>
                </pitch>
                <duration>4</duration>
                <tie type="stop"/>
                <voice>1</voice>
                <type>half</type>
                <stem default-y="11">up</stem>
                <notations>
                    <tied type="stop"/>
                </notations>
            </note>
            <note default-x="115">
                <pitch>
                    <step>G</step>
                    <octave>4</octave>
                </pitch>
                <duration>2</duration>
                <voice>1</voice>
                <type>quarter</type>
                <stem default-y="6">up</stem>
                <lyric default-y="-88" number="1">
                    <syllabic>single</syllabic>
                    <text font-size="14.7">To</text>
                </lyric>
            </note>
            <note default-x="179">
                <pitch>
                    <step>A</step>
                    <alter>-1</alter>
                    <octave>4</octave>
                </pitch>
                <duration>2</duration>
                <voice>1</voice>
                <type>quarter</type>
                <accidental>flat</accidental>
                <stem default-y="11">up</stem>
                <lyric default-y="-88" number="1">
                    <syllabic>single</syllabic>
                    <text font-size="14.7">be</text>
                </lyric>
            </note>
        </measure>
        <measure width="253" number="57">
            <print new-system="yes">
                <system-layout>
                    <system-distance>104</system-distance>
                </system-layout>
            </print>
            <harmony font-size="15.7" default-y="9">
                <root>
                    <root-step>C</root-step>
                </root>
                <kind text="6">major-sixth</kind>
            </harmony>
            <note default-x="70">
                <pitch>
                    <step>A</step>
                    <octave>4</octave>
                </pitch>
                <duration>8</duration>
                <voice>1</voice>
                <type>whole</type>
                <lyric default-y="-88" number="1">
                    <syllabic>single</syllabic>
                    <text font-size="14.7">close</text>
                </lyric>
            </note>
        </measure>
        <measure width="236" number="58">
            <harmony font-size="15.7" default-y="9">
                <root>
                    <root-step>B</root-step>
                </root>
                <kind text="7">dominant</kind>
            </harmony>
            <note default-x="23">
                <pitch>
                    <step>D</step>
                    <alter>1</alter>
                    <octave>4</octave>
                </pitch>
                <duration>4</duration>
                <voice>1</voice>
                <type>half</type>
                <accidental>sharp</accidental>
                <stem default-y="-9">up</stem>
                <lyric default-y="-88" number="1">
                    <syllabic>single</syllabic>
                    <text font-size="14.7">to</text>
                </lyric>
            </note>
            <harmony font-size="15.7" default-y="9">
                <root>
                    <root-step>E</root-step>
                </root>
                <kind text="7">dominant</kind>
            </harmony>
            <note default-x="129">
                <pitch>
                    <step>E</step>
                    <octave>4</octave>
                </pitch>
                <duration>4</duration>
                <voice>1</voice>
                <type>half</type>
                <stem default-y="-4">up</stem>
                <lyric default-y="-88" number="1">
                    <syllabic>single</syllabic>
                    <text font-size="14.7">you</text>
                </lyric>
            </note>
        </measure>
        <measure width="189" number="59">
            <harmony font-size="15.7" default-y="9">
                <root>
                    <root-step>D</root-step>
                </root>
                <kind text="m7">minor-seventh</kind>
            </harmony>
            <note default-x="17">
                <pitch>
                    <step>A</step>
                    <octave>4</octave>
                </pitch>
                <duration>8</duration>
                <voice>1</voice>
                <type>whole</type>
                <lyric default-y="-88" number="1">
                    <syllabic>single</syllabic>
                    <text font-size="14.7">all</text>
                </lyric>
            </note>
        </measure>
        <measure width="238" number="60">
            <harmony font-size="15.7" default-y="9">
                <root>
                    <root-step>G</root-step>
                </root>
                <kind text="7" parentheses-degrees="yes">dominant</kind>
                <degree>
                    <degree-value>9</degree-value>
                    <degree-alter>-1</degree-alter>
                    <degree-type>add</degree-type>
                </degree>
            </harmony>
            <note default-x="27">
                <pitch>
                    <step>A</step>
                    <alter>-1</alter>
                    <octave>4</octave>
                </pitch>
                <duration>6</duration>
                <voice>1</voice>
                <type>half</type>
                <dot/>
                <accidental>flat</accidental>
                <stem default-y="11">up</stem>
                <lyric default-y="-88" number="1">
                    <syllabic>single</syllabic>
                    <text font-size="14.7">thru</text>
                </lyric>
            </note>
            <note default-x="169">
                <pitch>
                    <step>G</step>
                    <octave>4</octave>
                </pitch>
                <duration>2</duration>
                <voice>1</voice>
                <type>quarter</type>
                <stem default-y="6">up</stem>
                <lyric default-y="-88" number="1">
                    <syllabic>single</syllabic>
                    <text font-size="14.7">the</text>
                </lyric>
            </note>
        </measure>
        <measure width="284" number="61">
            <print new-system="yes">
                <system-layout>
                    <system-distance>99</system-distance>
                </system-layout>
            </print>
            <harmony font-size="15.7" default-y="9">
                <root>
                    <root-step>C</root-step>
                </root>
                <kind text="">major-seventh</kind>
            </harmony>
            <note default-x="48">
                <pitch>
                    <step>G</step>
                    <octave>4</octave>
                </pitch>
                <duration>4</duration>
                <tie type="start"/>
                <voice>1</voice>
                <type>half</type>
                <stem default-y="6">up</stem>
                <notations>
                    <tied type="start"/>
                </notations>
                <lyric justify="left" default-y="-88" number="1">
                    <syllabic>single</syllabic>
                    <text font-size="14.7">night</text>
                    <extend/>
                </lyric>
            </note>
            <note default-x="165">
                <pitch>
                    <step>G</step>
                    <octave>4</octave>
                </pitch>
                <duration>4</duration>
                <tie type="stop"/>
                <voice>1</voice>
                <type>half</type>
                <stem default-y="6">up</stem>
                <notations>
                    <tied type="stop"/>
                </notations>
            </note>
        </measure>
        <measure width="211" number="62">
            <harmony font-size="15.7" default-y="9">
                <root>
                    <root-step>C</root-step>
                </root>
                <kind text="m7">minor-seventh</kind>
            </harmony>
            <forward>
                <duration>4</duration>
                <voice>1</voice>
            </forward>
            <forward>
                <duration>4</duration>
                <voice>1</voice>
            </forward>
            <backup>
                <duration>8</duration>
            </backup>
            <forward>
                <duration>4</duration>
                <voice>2</voice>
            </forward>
            <forward>
                <duration>4</duration>
                <voice>2</voice>
            </forward>
        </measure>
        <measure width="211" number="63">
            <harmony font-size="15.7" default-y="9">
                <root>
                    <root-step>C</root-step>
                </root>
                <kind text="">major-seventh</kind>
            </harmony>
            <forward>
                <duration>4</duration>
                <voice>1</voice>
            </forward>
            <forward>
                <duration>4</duration>
                <voice>1</voice>
            </forward>
            <backup>
                <duration>8</duration>
            </backup>
            <forward>
                <duration>4</duration>
                <voice>2</voice>
            </forward>
            <forward>
                <duration>4</duration>
                <voice>2</voice>
            </forward>
        </measure>
        <measure width="211" number="64">
            <harmony font-size="15.7" default-y="9">
                <root>
                    <root-step>C</root-step>
                </root>
                <kind text="m7">minor-seventh</kind>
            </harmony>
            <forward>
                <duration>4</duration>
                <voice>1</voice>
            </forward>
            <forward>
                <duration>4</duration>
                <voice>1</voice>
            </forward>
            <backup>
                <duration>8</duration>
            </backup>
            <forward>
                <duration>4</duration>
                <voice>2</voice>
            </forward>
            <forward>
                <duration>4</duration>
                <voice>2</voice>
            </forward>
            <barline location="right">
                <bar-style>light-heavy</bar-style>
            </barline>
        </measure>
    </part>
</score-partwise>
