<?xml version="1.0" encoding="UTF-8"?>
<!DOCTYPE score-partwise PUBLIC "-//Recordare//DTD MusicXML 2.0 Partwise//EN" "http://www.musicxml.org/dtds/partwise.dtd">
<score-partwise version="2.0">
    <work>
        <work-number></work-number>
        <work-title></work-title>
    </work>
    <movement-number></movement-number>
    <movement-title>How About You</movement-title>
    <identification>
        <creator type="composer">Burton Lane</creator>
        <creator type="poet">Ralph Freed</creator>
        <rights>All Rights Reserved</rights>
        <encoding>
            <software>PrintMusic 2010 for Windows</software>
            <software>Dolet Light for PrintMusic 2010</software>
            <encoding-date>2012-09-26</encoding-date>
            <supports value="yes" type="yes" element="print" attribute="new-system"/>
            <supports value="yes" type="yes" element="print" attribute="new-page"/>
            <software>ProxyMusic 2.0 c</software>
        </encoding>
        <source>http://wikifonia.org/node/18022/revisions/23861/view</source>
    </identification>
    <defaults>
        <scaling>
            <millimeters>7.2319</millimeters>
            <tenths>40</tenths>
        </scaling>
        <page-layout>
            <page-height>1642</page-height>
            <page-width>1161</page-width>
            <page-margins type="both">
                <left-margin>70</left-margin>
                <right-margin>70</right-margin>
                <top-margin>88</top-margin>
                <bottom-margin>88</bottom-margin>
            </page-margins>
        </page-layout>
        <system-layout>
            <system-margins>
                <left-margin>0</left-margin>
                <right-margin>0</right-margin>
            </system-margins>
            <system-distance>121</system-distance>
            <top-system-distance>70</top-system-distance>
        </system-layout>
        <appearance>
            <line-width type="stem">0.7487</line-width>
            <line-width type="beam">5</line-width>
            <line-width type="staff">0.7487</line-width>
            <line-width type="light barline">0.7487</line-width>
            <line-width type="heavy barline">5</line-width>
            <line-width type="leger">0.7487</line-width>
            <line-width type="ending">1.4583</line-width>
            <line-width type="wedge">1.4583</line-width>
            <line-width type="enclosure">0.7487</line-width>
            <line-width type="tuplet bracket">0.7487</line-width>
            <note-size type="grace">60</note-size>
            <note-size type="cue">60</note-size>
        </appearance>
        <music-font font-size="20.5" font-family="Maestro"/>
        <word-font font-size="10.25" font-family="Times New Roman"/>
    </defaults>
    <credit page="1">
        <credit-words font-weight="bold" font-size="24" default-y="1537" default-x="580" justify="center" valign="top">How About You</credit-words>
    </credit>
    <credit page="1">
        <credit-words font-weight="bold" font-size="12" default-y="1472" default-x="1091" justify="right" valign="top">Ralph Freed</credit-words>
    </credit>
    <credit page="1">
        <credit-words font-size="12" default-y="1449" default-x="920" valign="top">Arr: Wim Alderding</credit-words>
    </credit>
    <part-list>
        <score-part id="P1">
            <part-name print-object="no">MusicXML Part</part-name>
            <score-instrument id="P1-I1">
                <instrument-name>Grand Piano</instrument-name>
            </score-instrument>
            <midi-instrument id="P1-I1">
                <midi-channel>1</midi-channel>
                <midi-program>5</midi-program>
                <volume>80</volume>
                <pan>0</pan>
            </midi-instrument>
        </score-part>
    </part-list>
    <part id="P1">
        <measure width="213" number="1">
            <print>
                <system-layout>
                    <top-system-distance>211</top-system-distance>
                </system-layout>
            </print>
            <attributes>
                <divisions>8</divisions>
                <key>
                    <fifths>1</fifths>
                    <mode>major</mode>
                </key>
                <time symbol="cut">
                    <beats>2</beats>
                    <beat-type>2</beat-type>
                </time>
                <clef>
                    <sign>G</sign>
                    <line>2</line>
                </clef>
            </attributes>
            <sound tempo="120"/>
            <harmony default-y="34">
                <root>
                    <root-step>G</root-step>
                </root>
                <kind halign="center" text="maj7">major-seventh</kind>
            </harmony>
            <harmony default-y="34">
                <root>
                    <root-step>D</root-step>
                </root>
                <kind halign="center" text="">major</kind>
                <offset>16</offset>
            </harmony>
            <note>
                <rest/>
                <duration>32</duration>
                <voice>1</voice>
            </note>
        </measure>
        <measure width="121" number="2">
            <harmony default-y="34">
                <root>
                    <root-step>G</root-step>
                </root>
                <kind halign="center" text="">major</kind>
                <bass>
                    <bass-step>D</bass-step>
                </bass>
            </harmony>
            <harmony default-y="34">
                <root>
                    <root-step>D</root-step>
                </root>
                <kind halign="center" text="7">dominant</kind>
                <offset>16</offset>
            </harmony>
            <note>
                <rest/>
                <duration>32</duration>
                <voice>1</voice>
            </note>
            <barline location="right">
                <bar-style>light-light</bar-style>
            </barline>
        </measure>
        <measure width="139" number="3">
            <harmony default-y="34">
                <root>
                    <root-step>G</root-step>
                </root>
                <kind halign="center" text="">major</kind>
            </harmony>
            <note default-x="13">
                <pitch>
                    <step>D</step>
                    <octave>5</octave>
                </pitch>
                <duration>16</duration>
                <voice>1</voice>
                <type>half</type>
                <stem default-y="-45">down</stem>
            </note>
            <harmony default-y="34">
                <root>
                    <root-step>G</root-step>
                </root>
                <kind halign="center" text="6">major-sixth</kind>
            </harmony>
            <note default-x="76">
                <pitch>
                    <step>B</step>
                    <octave>4</octave>
                </pitch>
                <duration>16</duration>
                <voice>1</voice>
                <type>half</type>
                <stem default-y="-55.5">down</stem>
            </note>
        </measure>
        <measure width="139" number="4">
            <harmony default-y="34">
                <root>
                    <root-step>C</root-step>
                </root>
                <kind halign="center" text="">major</kind>
                <bass>
                    <bass-step>G</bass-step>
                </bass>
            </harmony>
            <note default-x="13">
                <pitch>
                    <step>G</step>
                    <octave>4</octave>
                </pitch>
                <duration>16</duration>
                <voice>1</voice>
                <type>half</type>
                <stem default-y="5.5">up</stem>
            </note>
            <harmony default-y="34">
                <root>
                    <root-step>C</root-step>
                </root>
                <kind halign="center" text="6">major-sixth</kind>
                <bass>
                    <bass-step>G</bass-step>
                </bass>
            </harmony>
            <note default-x="76">
                <pitch>
                    <step>E</step>
                    <octave>4</octave>
                </pitch>
                <duration>16</duration>
                <voice>1</voice>
                <type>half</type>
                <stem default-y="-5">up</stem>
            </note>
        </measure>
        <measure width="115" number="5">
            <harmony default-y="34">
                <root>
                    <root-step>G</root-step>
                </root>
                <kind halign="center" text="">major</kind>
            </harmony>
            <harmony default-y="34">
                <root>
                    <root-step>G</root-step>
                </root>
                <kind halign="center" text="">major</kind>
                <bass>
                    <bass-step>B</bass-step>
                </bass>
                <offset>16</offset>
            </harmony>
            <note default-x="13">
                <pitch>
                    <step>D</step>
                    <octave>4</octave>
                </pitch>
                <duration>32</duration>
                <voice>1</voice>
                <type>whole</type>
            </note>
        </measure>
        <measure width="154" number="6">
            <harmony default-y="34">
                <root>
                    <root-step>A</root-step>
                </root>
                <kind halign="center" text="m7">minor-seventh</kind>
            </harmony>
            <note default-x="13">
                <pitch>
                    <step>D</step>
                    <octave>4</octave>
                </pitch>
                <duration>16</duration>
                <voice>1</voice>
                <type>half</type>
                <stem default-y="-9.5">up</stem>
            </note>
            <harmony default-y="34">
                <root>
                    <root-step>D</root-step>
                </root>
                <kind halign="center" text="7">dominant</kind>
            </harmony>
            <note default-x="76">
                <pitch>
                    <step>D</step>
                    <octave>4</octave>
                </pitch>
                <duration>8</duration>
                <voice>1</voice>
                <type>quarter</type>
                <stem default-y="-9.5">up</stem>
            </note>
            <note default-x="114">
                <rest/>
                <duration>8</duration>
                <voice>1</voice>
                <type>quarter</type>
            </note>
        </measure>
        <measure width="139" number="7">
            <harmony default-y="34">
                <root>
                    <root-step>G</root-step>
                </root>
                <kind halign="center" text="">major</kind>
            </harmony>
            <note default-x="14">
                <pitch>
                    <step>D</step>
                    <octave>5</octave>
                </pitch>
                <duration>16</duration>
                <voice>1</voice>
                <type>half</type>
                <stem default-y="-45">down</stem>
            </note>
            <harmony default-y="34">
                <root>
                    <root-step>G</root-step>
                </root>
                <kind halign="center" text="6">major-sixth</kind>
            </harmony>
            <note default-x="76">
                <pitch>
                    <step>B</step>
                    <octave>4</octave>
                </pitch>
                <duration>16</duration>
                <voice>1</voice>
                <type>half</type>
                <stem default-y="-55.5">down</stem>
            </note>
        </measure>
        <measure width="168" number="8">
            <print new-system="yes">
                <system-layout>
                    <system-distance>114</system-distance>
                </system-layout>
            </print>
            <harmony default-y="34">
                <root>
                    <root-step>C</root-step>
                </root>
                <kind halign="center" text="maj7">major-seventh</kind>
            </harmony>
            <note default-x="41">
                <pitch>
                    <step>G</step>
                    <octave>4</octave>
                </pitch>
                <duration>16</duration>
                <voice>1</voice>
                <type>half</type>
                <stem default-y="5.5">up</stem>
            </note>
            <harmony default-y="34">
                <root>
                    <root-step>C</root-step>
                </root>
                <kind halign="center" text="6">major-sixth</kind>
            </harmony>
            <note default-x="104">
                <pitch>
                    <step>E</step>
                    <octave>4</octave>
                </pitch>
                <duration>16</duration>
                <voice>1</voice>
                <type>half</type>
                <stem default-y="-5">up</stem>
            </note>
        </measure>
        <measure width="116" number="9">
            <harmony default-y="34">
                <root>
                    <root-step>B</root-step>
                </root>
                <kind halign="center" text="m7">minor-seventh</kind>
            </harmony>
            <harmony default-y="34">
                <root>
                    <root-step>E</root-step>
                </root>
                <kind halign="center" text="7">dominant</kind>
                <bass>
                    <bass-step>D</bass-step>
                </bass>
                <offset>16</offset>
            </harmony>
            <note default-x="13">
                <pitch>
                    <step>D</step>
                    <octave>4</octave>
                </pitch>
                <duration>32</duration>
                <voice>1</voice>
                <type>whole</type>
                <notations>
                    <slur placement="below" type="start" number="1"/>
                </notations>
            </note>
        </measure>
        <measure width="155" number="10">
            <harmony default-y="34">
                <root>
                    <root-step>B</root-step>
                </root>
                <kind halign="center" text="m7">minor-seventh</kind>
            </harmony>
            <note default-x="13">
                <pitch>
                    <step>D</step>
                    <octave>4</octave>
                </pitch>
                <duration>16</duration>
                <voice>1</voice>
                <type>half</type>
                <stem default-y="-9.5">up</stem>
                <notations>
                    <slur type="stop" number="1"/>
                    <slur placement="below" type="start" number="1"/>
                </notations>
            </note>
            <harmony default-y="34">
                <root>
                    <root-step>E</root-step>
                </root>
                <kind halign="center" text="7">dominant</kind>
            </harmony>
            <note default-x="76">
                <pitch>
                    <step>D</step>
                    <octave>4</octave>
                </pitch>
                <duration>8</duration>
                <voice>1</voice>
                <type>quarter</type>
                <stem default-y="-9.5">up</stem>
                <notations>
                    <slur type="stop" number="1"/>
                </notations>
            </note>
            <note default-x="115">
                <rest/>
                <duration>8</duration>
                <voice>1</voice>
                <type>quarter</type>
            </note>
        </measure>
        <measure width="195" number="11">
            <harmony default-y="34">
                <root>
                    <root-step>A</root-step>
                </root>
                <kind halign="center" text="7">dominant</kind>
            </harmony>
            <note default-x="13">
                <pitch>
                    <step>E</step>
                    <octave>4</octave>
                </pitch>
                <duration>6</duration>
                <voice>1</voice>
                <type>eighth</type>
                <dot/>
                <stem default-y="5">up</stem>
                <beam number="1">begin</beam>
            </note>
            <note default-x="46">
                <pitch>
                    <step>F</step>
                    <alter>1</alter>
                    <octave>4</octave>
                </pitch>
                <duration>2</duration>
                <voice>1</voice>
                <type>16th</type>
                <stem default-y="7">up</stem>
                <beam number="1">continue</beam>
                <beam number="2">backward hook</beam>
            </note>
            <note default-x="64">
                <pitch>
                    <step>G</step>
                    <octave>4</octave>
                </pitch>
                <duration>6</duration>
                <voice>1</voice>
                <type>eighth</type>
                <dot/>
                <stem default-y="8">up</stem>
                <beam number="1">continue</beam>
            </note>
            <note default-x="97">
                <pitch>
                    <step>A</step>
                    <octave>4</octave>
                </pitch>
                <duration>2</duration>
                <voice>1</voice>
                <type>16th</type>
                <stem default-y="10">up</stem>
                <beam number="1">end</beam>
                <beam number="2">backward hook</beam>
            </note>
            <note default-x="115">
                <pitch>
                    <step>B</step>
                    <octave>4</octave>
                </pitch>
                <duration>8</duration>
                <voice>1</voice>
                <type>quarter</type>
                <stem default-y="-55">down</stem>
            </note>
            <note default-x="155">
                <pitch>
                    <step>G</step>
                    <octave>4</octave>
                </pitch>
                <duration>8</duration>
                <voice>1</voice>
                <type>quarter</type>
                <stem default-y="5.5">up</stem>
            </note>
        </measure>
        <measure width="170" number="12">
            <harmony default-y="34">
                <root>
                    <root-step>A</root-step>
                </root>
                <kind halign="center" text="7">dominant</kind>
            </harmony>
            <note default-x="14">
                <pitch>
                    <step>B</step>
                    <octave>4</octave>
                </pitch>
                <duration>8</duration>
                <voice>1</voice>
                <type>quarter</type>
                <stem default-y="-55">down</stem>
            </note>
            <note default-x="52">
                <pitch>
                    <step>G</step>
                    <octave>4</octave>
                </pitch>
                <duration>8</duration>
                <voice>1</voice>
                <type>quarter</type>
                <stem default-y="5.5">up</stem>
            </note>
            <note default-x="91">
                <pitch>
                    <step>B</step>
                    <octave>4</octave>
                </pitch>
                <duration>8</duration>
                <voice>1</voice>
                <type>quarter</type>
                <stem default-y="-55">down</stem>
            </note>
            <note default-x="130">
                <pitch>
                    <step>G</step>
                    <octave>4</octave>
                </pitch>
                <duration>8</duration>
                <voice>1</voice>
                <type>quarter</type>
                <stem default-y="5.5">up</stem>
            </note>
        </measure>
        <measure width="217" number="13">
            <harmony default-y="34">
                <root>
                    <root-step>A</root-step>
                </root>
                <kind halign="center" text="m9">minor-ninth</kind>
            </harmony>
            <note default-x="25">
                <pitch>
                    <step>E</step>
                    <alter>-1</alter>
                    <octave>4</octave>
                </pitch>
                <duration>6</duration>
                <voice>1</voice>
                <type>eighth</type>
                <dot/>
                <accidental>flat</accidental>
                <stem default-y="5">up</stem>
                <beam number="1">begin</beam>
            </note>
            <note default-x="63">
                <pitch>
                    <step>F</step>
                    <octave>4</octave>
                </pitch>
                <duration>2</duration>
                <voice>1</voice>
                <type>16th</type>
                <accidental>natural</accidental>
                <stem default-y="7">up</stem>
                <beam number="1">continue</beam>
                <beam number="2">backward hook</beam>
            </note>
            <note default-x="80">
                <pitch>
                    <step>G</step>
                    <octave>4</octave>
                </pitch>
                <duration>6</duration>
                <voice>1</voice>
                <type>eighth</type>
                <dot/>
                <stem default-y="8">up</stem>
                <beam number="1">continue</beam>
            </note>
            <note default-x="115">
                <pitch>
                    <step>A</step>
                    <octave>4</octave>
                </pitch>
                <duration>2</duration>
                <voice>1</voice>
                <type>16th</type>
                <stem default-y="10">up</stem>
                <beam number="1">end</beam>
                <beam number="2">backward hook</beam>
            </note>
            <note default-x="133">
                <pitch>
                    <step>B</step>
                    <octave>4</octave>
                </pitch>
                <duration>8</duration>
                <voice>1</voice>
                <type>quarter</type>
                <stem default-y="-55">down</stem>
            </note>
            <note default-x="175">
                <pitch>
                    <step>G</step>
                    <octave>4</octave>
                </pitch>
                <duration>8</duration>
                <voice>1</voice>
                <type>quarter</type>
                <stem default-y="5.5">up</stem>
            </note>
        </measure>
        <measure width="148" number="14">
            <print new-system="yes">
                <system-layout>
                    <system-distance>114</system-distance>
                </system-layout>
            </print>
            <harmony default-y="34">
                <root>
                    <root-step>A</root-step>
                </root>
                <kind halign="center" text="m9">minor-ninth</kind>
            </harmony>
            <note default-x="41">
                <pitch>
                    <step>B</step>
                    <octave>4</octave>
                </pitch>
                <duration>32</duration>
                <voice>1</voice>
                <type>whole</type>
            </note>
        </measure>
        <measure width="145" number="15">
            <harmony default-y="34">
                <root>
                    <root-step>G</root-step>
                </root>
                <kind halign="center" text="">major</kind>
            </harmony>
            <note default-x="14">
                <pitch>
                    <step>D</step>
                    <octave>5</octave>
                </pitch>
                <duration>16</duration>
                <voice>1</voice>
                <type>half</type>
                <stem default-y="-45.5">down</stem>
            </note>
            <harmony default-y="34">
                <root>
                    <root-step>G</root-step>
                </root>
                <kind halign="center" text="6">major-sixth</kind>
                <bass>
                    <bass-step>D</bass-step>
                </bass>
            </harmony>
            <note default-x="79">
                <pitch>
                    <step>B</step>
                    <octave>4</octave>
                </pitch>
                <duration>16</duration>
                <voice>1</voice>
                <type>half</type>
                <stem default-y="-55">down</stem>
            </note>
        </measure>
        <measure width="145" number="16">
            <harmony default-y="34">
                <root>
                    <root-step>G</root-step>
                </root>
                <kind halign="center" text="dim7">diminished-seventh</kind>
                <bass>
                    <bass-step>D</bass-step>
                </bass>
            </harmony>
            <note default-x="13">
                <pitch>
                    <step>G</step>
                    <octave>4</octave>
                </pitch>
                <duration>16</duration>
                <voice>1</voice>
                <type>half</type>
                <stem default-y="5">up</stem>
            </note>
            <note default-x="79">
                <pitch>
                    <step>E</step>
                    <octave>4</octave>
                </pitch>
                <duration>16</duration>
                <voice>1</voice>
                <type>half</type>
                <stem default-y="-4.5">up</stem>
            </note>
        </measure>
        <measure width="120" number="17">
            <harmony default-y="34">
                <root>
                    <root-step>D</root-step>
                </root>
                <kind halign="center" text="7sus4">suspended-fourth</kind>
                <degree print-object="no">
                    <degree-value>7</degree-value>
                    <degree-alter>0</degree-alter>
                    <degree-type>add</degree-type>
                </degree>
            </harmony>
            <harmony default-y="34">
                <root>
                    <root-step>D</root-step>
                </root>
                <kind halign="center" text="7">dominant</kind>
                <offset>16</offset>
            </harmony>
            <note default-x="14">
                <pitch>
                    <step>D</step>
                    <octave>4</octave>
                </pitch>
                <duration>32</duration>
                <voice>1</voice>
                <type>whole</type>
                <notations>
                    <slur placement="below" type="start" number="1"/>
                </notations>
            </note>
        </measure>
        <measure width="126" number="18">
            <harmony default-y="34">
                <root>
                    <root-step>D</root-step>
                </root>
                <kind halign="center" text="13sus4">suspended-fourth</kind>
                <degree print-object="no">
                    <degree-value>7</degree-value>
                    <degree-alter>0</degree-alter>
                    <degree-type>add</degree-type>
                </degree>
                <degree print-object="no">
                    <degree-value>9</degree-value>
                    <degree-alter>0</degree-alter>
                    <degree-type>add</degree-type>
                </degree>
                <degree print-object="no">
                    <degree-value>11</degree-value>
                    <degree-alter>0</degree-alter>
                    <degree-type>add</degree-type>
                </degree>
                <degree print-object="no">
                    <degree-value>13</degree-value>
                    <degree-alter>0</degree-alter>
                    <degree-type>add</degree-type>
                </degree>
            </harmony>
            <harmony default-y="34">
                <root>
                    <root-step>D</root-step>
                </root>
                <kind halign="center" text="9">dominant-ninth</kind>
                <offset>16</offset>
            </harmony>
            <note default-x="14">
                <pitch>
                    <step>D</step>
                    <octave>4</octave>
                </pitch>
                <duration>32</duration>
                <voice>1</voice>
                <type>whole</type>
                <notations>
                    <slur type="stop" number="1"/>
                </notations>
            </note>
            <barline location="right">
                <bar-style>light-light</bar-style>
            </barline>
        </measure>
        <measure width="172" number="19">
            <barline location="left">
                <bar-style>heavy-light</bar-style>
                <repeat direction="forward"/>
            </barline>
            <harmony default-y="34">
                <root>
                    <root-step>G</root-step>
                </root>
                <kind halign="center" text="6">major-sixth</kind>
            </harmony>
            <note default-x="26">
                <pitch>
                    <step>G</step>
                    <octave>4</octave>
                </pitch>
                <duration>16</duration>
                <voice>1</voice>
                <type>half</type>
                <stem default-y="5">up</stem>
            </note>
            <harmony default-y="34">
                <root>
                    <root-step>G</root-step>
                </root>
                <kind halign="center" text="maj7">major-seventh</kind>
            </harmony>
            <note default-x="91">
                <pitch>
                    <step>A</step>
                    <octave>4</octave>
                </pitch>
                <duration>8</duration>
                <voice>1</voice>
                <type>quarter</type>
                <stem default-y="11">up</stem>
            </note>
            <note default-x="131">
                <pitch>
                    <step>F</step>
                    <alter>1</alter>
                    <octave>4</octave>
                </pitch>
                <duration>8</duration>
                <voice>1</voice>
                <type>quarter</type>
                <stem default-y="0.5">up</stem>
            </note>
        </measure>
        <measure width="165" number="20">
            <harmony default-y="34">
                <root>
                    <root-step>G</root-step>
                </root>
                <kind halign="center" text="">major</kind>
                <bass>
                    <bass-step>B</bass-step>
                </bass>
            </harmony>
            <note default-x="13">
                <pitch>
                    <step>G</step>
                    <octave>4</octave>
                </pitch>
                <duration>8</duration>
                <voice>1</voice>
                <type>quarter</type>
                <stem default-y="5">up</stem>
            </note>
            <note default-x="55">
                <pitch>
                    <step>A</step>
                    <octave>4</octave>
                </pitch>
                <duration>8</duration>
                <voice>1</voice>
                <type>quarter</type>
                <stem default-y="11">up</stem>
            </note>
            <harmony default-y="34">
                <root>
                    <root-step>B</root-step>
                    <root-alter>-1</root-alter>
                </root>
                <kind halign="center" text="dim7">diminished-seventh</kind>
            </harmony>
            <note default-x="97">
                <pitch>
                    <step>F</step>
                    <alter>1</alter>
                    <octave>4</octave>
                </pitch>
                <duration>16</duration>
                <voice>1</voice>
                <type>half</type>
                <stem default-y="0.5">up</stem>
            </note>
        </measure>
        <measure width="198" number="21">
            <print new-system="yes">
                <system-layout>
                    <system-distance>114</system-distance>
                </system-layout>
            </print>
            <harmony default-y="34">
                <root>
                    <root-step>A</root-step>
                </root>
                <kind halign="center" text="m7">minor-seventh</kind>
            </harmony>
            <note default-x="41">
                <pitch>
                    <step>E</step>
                    <octave>4</octave>
                </pitch>
                <duration>8</duration>
                <voice>1</voice>
                <type>quarter</type>
                <stem default-y="-4">up</stem>
            </note>
            <note default-x="77">
                <rest/>
                <duration>4</duration>
                <voice>1</voice>
                <type>eighth</type>
            </note>
            <note default-x="99">
                <pitch>
                    <step>E</step>
                    <octave>4</octave>
                </pitch>
                <duration>4</duration>
                <voice>1</voice>
                <type>eighth</type>
                <stem default-y="-4">up</stem>
            </note>
            <note default-x="126">
                <pitch>
                    <step>E</step>
                    <octave>4</octave>
                </pitch>
                <duration>8</duration>
                <voice>1</voice>
                <type>quarter</type>
                <stem default-y="-4">up</stem>
            </note>
            <harmony default-y="34">
                <root>
                    <root-step>D</root-step>
                </root>
                <kind halign="center" text="7">dominant</kind>
            </harmony>
            <note default-x="161">
                <pitch>
                    <step>B</step>
                    <octave>4</octave>
                </pitch>
                <duration>8</duration>
                <voice>1</voice>
                <type>quarter</type>
                <stem default-y="-55">down</stem>
                <notations>
                    <slur placement="above" type="start" number="1"/>
                </notations>
            </note>
        </measure>
        <measure width="107" number="22">
            <harmony default-y="34">
                <root>
                    <root-step>D</root-step>
                </root>
                <kind halign="center" text="7">dominant</kind>
            </harmony>
            <note default-x="14">
                <pitch>
                    <step>B</step>
                    <octave>4</octave>
                </pitch>
                <duration>32</duration>
                <voice>1</voice>
                <type>whole</type>
                <notations>
                    <slur type="stop" number="1"/>
                </notations>
            </note>
        </measure>
        <measure width="143" number="23">
            <harmony default-y="34">
                <root>
                    <root-step>G</root-step>
                </root>
                <kind halign="center" text="6">major-sixth</kind>
            </harmony>
            <note default-x="13">
                <pitch>
                    <step>G</step>
                    <octave>4</octave>
                </pitch>
                <duration>16</duration>
                <voice>1</voice>
                <type>half</type>
                <stem default-y="5.5">up</stem>
            </note>
            <harmony default-y="34">
                <root>
                    <root-step>G</root-step>
                </root>
                <kind halign="center" text="maj7">major-seventh</kind>
            </harmony>
            <note default-x="71">
                <pitch>
                    <step>A</step>
                    <octave>4</octave>
                </pitch>
                <duration>8</duration>
                <voice>1</voice>
                <type>quarter</type>
                <stem default-y="10">up</stem>
            </note>
            <note default-x="107">
                <pitch>
                    <step>F</step>
                    <alter>1</alter>
                    <octave>4</octave>
                </pitch>
                <duration>8</duration>
                <voice>1</voice>
                <type>quarter</type>
                <stem default-y="0.5">up</stem>
            </note>
        </measure>
        <measure width="142" number="24">
            <harmony default-y="34">
                <root>
                    <root-step>G</root-step>
                </root>
                <kind halign="center" text="">major</kind>
                <bass>
                    <bass-step>B</bass-step>
                </bass>
            </harmony>
            <note default-x="13">
                <pitch>
                    <step>G</step>
                    <octave>4</octave>
                </pitch>
                <duration>8</duration>
                <voice>1</voice>
                <type>quarter</type>
                <stem default-y="5.5">up</stem>
            </note>
            <note default-x="49">
                <pitch>
                    <step>A</step>
                    <octave>4</octave>
                </pitch>
                <duration>8</duration>
                <voice>1</voice>
                <type>quarter</type>
                <stem default-y="10">up</stem>
            </note>
            <harmony default-y="34">
                <root>
                    <root-step>F</root-step>
                    <root-alter>1</root-alter>
                </root>
                <kind halign="center" text="">major</kind>
                <bass>
                    <bass-step>A</bass-step>
                    <bass-alter>1</bass-alter>
                </bass>
            </harmony>
            <note default-x="85">
                <pitch>
                    <step>F</step>
                    <alter>1</alter>
                    <octave>4</octave>
                </pitch>
                <duration>16</duration>
                <voice>1</voice>
                <type>half</type>
                <stem default-y="0.5">up</stem>
            </note>
        </measure>
        <measure width="182" number="25">
            <harmony default-y="34">
                <root>
                    <root-step>B</root-step>
                </root>
                <kind halign="center" text="m7">minor-seventh</kind>
            </harmony>
            <note default-x="24">
                <pitch>
                    <step>F</step>
                    <octave>4</octave>
                </pitch>
                <duration>8</duration>
                <voice>1</voice>
                <type>quarter</type>
                <accidental>natural</accidental>
                <stem default-y="0.5">up</stem>
            </note>
            <note default-x="60">
                <rest/>
                <duration>4</duration>
                <voice>1</voice>
                <type>eighth</type>
            </note>
            <note default-x="82">
                <pitch>
                    <step>F</step>
                    <octave>4</octave>
                </pitch>
                <duration>4</duration>
                <voice>1</voice>
                <type>eighth</type>
                <stem default-y="0.5">up</stem>
            </note>
            <note default-x="110">
                <pitch>
                    <step>F</step>
                    <octave>4</octave>
                </pitch>
                <duration>8</duration>
                <voice>1</voice>
                <type>quarter</type>
                <stem default-y="0.5">up</stem>
            </note>
            <harmony default-y="34">
                <root>
                    <root-step>E</root-step>
                </root>
                <kind halign="center" text="7">dominant</kind>
            </harmony>
            <note default-x="145">
                <pitch>
                    <step>C</step>
                    <octave>5</octave>
                </pitch>
                <duration>8</duration>
                <voice>1</voice>
                <type>quarter</type>
                <stem default-y="-50">down</stem>
                <notations>
                    <slur placement="above" type="start" number="1"/>
                </notations>
            </note>
        </measure>
        <measure width="107" number="26">
            <harmony default-y="34">
                <root>
                    <root-step>E</root-step>
                </root>
                <kind halign="center" text="7">dominant</kind>
            </harmony>
            <note default-x="14">
                <pitch>
                    <step>C</step>
                    <octave>5</octave>
                </pitch>
                <duration>32</duration>
                <voice>1</voice>
                <type>whole</type>
                <notations>
                    <slur type="stop" number="1"/>
                </notations>
            </note>
        </measure>
        <measure width="142" number="27">
            <harmony default-y="34">
                <root>
                    <root-step>A</root-step>
                </root>
                <kind halign="center" text="7">dominant</kind>
            </harmony>
            <note default-x="14">
                <pitch>
                    <step>B</step>
                    <octave>4</octave>
                </pitch>
                <duration>16</duration>
                <voice>1</voice>
                <type>half</type>
                <stem default-y="-55">down</stem>
            </note>
            <note default-x="71">
                <pitch>
                    <step>A</step>
                    <octave>4</octave>
                </pitch>
                <duration>8</duration>
                <voice>1</voice>
                <type>quarter</type>
                <stem default-y="10">up</stem>
            </note>
            <note default-x="106">
                <pitch>
                    <step>G</step>
                    <octave>4</octave>
                </pitch>
                <duration>8</duration>
                <voice>1</voice>
                <type>quarter</type>
                <stem default-y="5.5">up</stem>
            </note>
        </measure>
        <measure width="176" number="28">
            <print new-system="yes">
                <system-layout>
                    <system-distance>114</system-distance>
                </system-layout>
            </print>
            <harmony default-y="34">
                <root>
                    <root-step>C</root-step>
                </root>
                <kind halign="center" text="m6">minor-sixth</kind>
            </harmony>
            <note default-x="41">
                <pitch>
                    <step>A</step>
                    <octave>4</octave>
                </pitch>
                <duration>8</duration>
                <voice>1</voice>
                <type>quarter</type>
                <stem default-y="10">up</stem>
            </note>
            <note default-x="78">
                <pitch>
                    <step>B</step>
                    <octave>4</octave>
                </pitch>
                <duration>8</duration>
                <voice>1</voice>
                <type>quarter</type>
                <stem default-y="-55.5">down</stem>
            </note>
            <note default-x="116">
                <pitch>
                    <step>G</step>
                    <octave>4</octave>
                </pitch>
                <duration>16</duration>
                <voice>1</voice>
                <type>half</type>
                <stem default-y="5.5">up</stem>
            </note>
        </measure>
        <measure width="172" number="29">
            <harmony default-y="34">
                <root>
                    <root-step>G</root-step>
                </root>
                <kind halign="center" text="maj7">major-seventh</kind>
            </harmony>
            <note default-x="13">
                <pitch>
                    <step>A</step>
                    <octave>4</octave>
                </pitch>
                <duration>4</duration>
                <voice>1</voice>
                <type>eighth</type>
                <stem default-y="10">up</stem>
                <beam number="1">begin</beam>
            </note>
            <note default-x="36">
                <pitch>
                    <step>B</step>
                    <octave>4</octave>
                </pitch>
                <duration>4</duration>
                <voice>1</voice>
                <type>eighth</type>
                <stem default-y="15">up</stem>
                <beam number="1">end</beam>
            </note>
            <harmony default-y="34">
                <root>
                    <root-step>G</root-step>
                </root>
                <kind halign="center" text="6">major-sixth</kind>
            </harmony>
            <note default-x="59">
                <pitch>
                    <step>G</step>
                    <octave>4</octave>
                </pitch>
                <duration>8</duration>
                <voice>1</voice>
                <type>quarter</type>
                <stem default-y="5.5">up</stem>
            </note>
            <harmony default-y="34">
                <root>
                    <root-step>G</root-step>
                </root>
                <kind halign="center" text="dim">diminished</kind>
            </harmony>
            <note default-x="97">
                <pitch>
                    <step>G</step>
                    <octave>4</octave>
                </pitch>
                <duration>8</duration>
                <voice>1</voice>
                <type>quarter</type>
                <stem default-y="5.5">up</stem>
            </note>
            <harmony default-y="34">
                <root>
                    <root-step>G</root-step>
                </root>
                <kind halign="center" text="">major</kind>
            </harmony>
            <note default-x="134">
                <pitch>
                    <step>G</step>
                    <octave>4</octave>
                </pitch>
                <duration>8</duration>
                <voice>1</voice>
                <type>quarter</type>
                <stem default-y="5.5">up</stem>
                <notations>
                    <slur placement="below" type="start" number="1"/>
                </notations>
            </note>
        </measure>
        <measure width="112" number="30">
            <harmony default-y="34">
                <root>
                    <root-step>G</root-step>
                </root>
                <kind halign="center" text="">major</kind>
            </harmony>
            <note default-x="13">
                <pitch>
                    <step>G</step>
                    <octave>4</octave>
                </pitch>
                <duration>32</duration>
                <voice>1</voice>
                <type>whole</type>
                <notations>
                    <slur type="stop" number="1"/>
                </notations>
            </note>
        </measure>
        <measure width="187" number="31">
            <harmony default-y="34">
                <root>
                    <root-step>B</root-step>
                </root>
                <kind halign="center" text="">major</kind>
                <bass>
                    <bass-step>F</bass-step>
                    <bass-alter>1</bass-alter>
                </bass>
            </harmony>
            <note default-x="13">
                <pitch>
                    <step>F</step>
                    <alter>1</alter>
                    <octave>4</octave>
                </pitch>
                <duration>8</duration>
                <voice>1</voice>
                <type>quarter</type>
                <stem default-y="0.5">up</stem>
            </note>
            <note default-x="52">
                <pitch>
                    <step>F</step>
                    <alter>1</alter>
                    <octave>4</octave>
                </pitch>
                <duration>6</duration>
                <voice>1</voice>
                <type>eighth</type>
                <dot/>
                <stem default-y="0">up</stem>
                <beam number="1">begin</beam>
            </note>
            <note default-x="82">
                <pitch>
                    <step>F</step>
                    <alter>1</alter>
                    <octave>4</octave>
                </pitch>
                <duration>2</duration>
                <voice>1</voice>
                <type>16th</type>
                <stem default-y="0">up</stem>
                <beam number="1">end</beam>
                <beam number="2">backward hook</beam>
            </note>
            <harmony default-y="34">
                <root>
                    <root-step>B</root-step>
                </root>
                <kind halign="center" text="6">major-sixth</kind>
                <bass>
                    <bass-step>F</bass-step>
                    <bass-alter>1</bass-alter>
                </bass>
            </harmony>
            <note default-x="100">
                <pitch>
                    <step>F</step>
                    <alter>1</alter>
                    <octave>4</octave>
                </pitch>
                <duration>6</duration>
                <voice>1</voice>
                <type>eighth</type>
                <dot/>
                <stem default-y="0">up</stem>
                <beam number="1">begin</beam>
            </note>
            <note default-x="131">
                <pitch>
                    <step>F</step>
                    <alter>1</alter>
                    <octave>4</octave>
                </pitch>
                <duration>2</duration>
                <voice>1</voice>
                <type>16th</type>
                <stem default-y="0">up</stem>
                <beam number="1">end</beam>
                <beam number="2">backward hook</beam>
            </note>
            <note default-x="149">
                <pitch>
                    <step>F</step>
                    <alter>1</alter>
                    <octave>4</octave>
                </pitch>
                <duration>8</duration>
                <voice>1</voice>
                <type>quarter</type>
                <stem default-y="0.5">up</stem>
            </note>
        </measure>
        <measure width="188" number="32">
            <harmony default-y="34">
                <root>
                    <root-step>C</root-step>
                    <root-alter>1</root-alter>
                </root>
                <kind halign="center" text="m">minor</kind>
            </harmony>
            <note default-x="13">
                <pitch>
                    <step>F</step>
                    <alter>1</alter>
                    <octave>4</octave>
                </pitch>
                <duration>8</duration>
                <voice>1</voice>
                <type>quarter</type>
                <stem default-y="0.5">up</stem>
            </note>
            <note default-x="51">
                <pitch>
                    <step>F</step>
                    <alter>1</alter>
                    <octave>4</octave>
                </pitch>
                <duration>6</duration>
                <voice>1</voice>
                <type>eighth</type>
                <dot/>
                <stem default-y="0">up</stem>
                <beam number="1">begin</beam>
            </note>
            <note default-x="82">
                <pitch>
                    <step>F</step>
                    <alter>1</alter>
                    <octave>4</octave>
                </pitch>
                <duration>2</duration>
                <voice>1</voice>
                <type>16th</type>
                <stem default-y="0">up</stem>
                <beam number="1">end</beam>
                <beam number="2">backward hook</beam>
            </note>
            <harmony default-y="34">
                <root>
                    <root-step>F</root-step>
                    <root-alter>1</root-alter>
                </root>
                <kind halign="center" text="7">dominant</kind>
            </harmony>
            <note default-x="100">
                <pitch>
                    <step>F</step>
                    <alter>1</alter>
                    <octave>4</octave>
                </pitch>
                <duration>6</duration>
                <voice>1</voice>
                <type>eighth</type>
                <dot/>
                <stem default-y="0">up</stem>
                <beam number="1">begin</beam>
            </note>
            <note default-x="131">
                <pitch>
                    <step>F</step>
                    <alter>1</alter>
                    <octave>4</octave>
                </pitch>
                <duration>2</duration>
                <voice>1</voice>
                <type>16th</type>
                <stem default-y="0">up</stem>
                <beam number="1">end</beam>
                <beam number="2">backward hook</beam>
            </note>
            <note default-x="149">
                <pitch>
                    <step>F</step>
                    <alter>1</alter>
                    <octave>4</octave>
                </pitch>
                <duration>8</duration>
                <voice>1</voice>
                <type>quarter</type>
                <stem default-y="0.5">up</stem>
            </note>
        </measure>
        <measure width="186" number="33">
            <harmony default-y="34">
                <root>
                    <root-step>B</root-step>
                </root>
                <kind halign="center" text="6">major-sixth</kind>
            </harmony>
            <note default-x="26">
                <pitch>
                    <step>D</step>
                    <alter>1</alter>
                    <octave>5</octave>
                </pitch>
                <duration>8</duration>
                <voice>1</voice>
                <type>quarter</type>
                <accidental>sharp</accidental>
                <stem default-y="-45">down</stem>
            </note>
            <note default-x="64">
                <rest/>
                <duration>4</duration>
                <voice>1</voice>
                <type>eighth</type>
            </note>
            <note default-x="87">
                <pitch>
                    <step>B</step>
                    <octave>4</octave>
                </pitch>
                <duration>4</duration>
                <voice>1</voice>
                <type>eighth</type>
                <stem default-y="-55.5">down</stem>
            </note>
            <note default-x="110">
                <pitch>
                    <step>B</step>
                    <octave>4</octave>
                </pitch>
                <duration>8</duration>
                <voice>1</voice>
                <type>quarter</type>
                <stem default-y="-55.5">down</stem>
            </note>
            <harmony default-y="34">
                <root>
                    <root-step>A</root-step>
                </root>
                <kind halign="center" text="m7">minor-seventh</kind>
            </harmony>
            <note default-x="148">
                <pitch>
                    <step>B</step>
                    <octave>4</octave>
                </pitch>
                <duration>8</duration>
                <voice>1</voice>
                <type>quarter</type>
                <stem default-y="-55.5">down</stem>
                <notations>
                    <slur placement="above" type="start" number="1"/>
                </notations>
            </note>
        </measure>
        <measure width="139" number="34">
            <print new-system="yes">
                <system-layout>
                    <system-distance>114</system-distance>
                </system-layout>
            </print>
            <harmony default-y="34">
                <root>
                    <root-step>A</root-step>
                </root>
                <kind halign="center" text="m7">minor-seventh</kind>
            </harmony>
            <harmony default-y="34">
                <root>
                    <root-step>D</root-step>
                </root>
                <kind halign="center" text="7">dominant</kind>
                <offset>16</offset>
            </harmony>
            <note default-x="41">
                <pitch>
                    <step>B</step>
                    <octave>4</octave>
                </pitch>
                <duration>32</duration>
                <voice>1</voice>
                <type>whole</type>
                <notations>
                    <slur type="stop" number="1"/>
                </notations>
            </note>
        </measure>
        <measure width="148" number="35">
            <harmony default-y="34">
                <root>
                    <root-step>G</root-step>
                </root>
                <kind halign="center" text="6">major-sixth</kind>
            </harmony>
            <note default-x="13">
                <pitch>
                    <step>G</step>
                    <octave>4</octave>
                </pitch>
                <duration>16</duration>
                <voice>1</voice>
                <type>half</type>
                <stem default-y="5.5">up</stem>
            </note>
            <harmony default-y="34">
                <root>
                    <root-step>G</root-step>
                </root>
                <kind halign="center" text="maj7">major-seventh</kind>
            </harmony>
            <note default-x="73">
                <pitch>
                    <step>A</step>
                    <octave>4</octave>
                </pitch>
                <duration>8</duration>
                <voice>1</voice>
                <type>quarter</type>
                <stem default-y="10.5">up</stem>
            </note>
            <note default-x="110">
                <pitch>
                    <step>F</step>
                    <alter>1</alter>
                    <octave>4</octave>
                </pitch>
                <duration>8</duration>
                <voice>1</voice>
                <type>quarter</type>
                <stem default-y="1">up</stem>
            </note>
        </measure>
        <measure width="148" number="36">
            <harmony default-y="34">
                <root>
                    <root-step>G</root-step>
                </root>
                <kind halign="center" text="">major</kind>
                <bass>
                    <bass-step>B</bass-step>
                </bass>
            </harmony>
            <note default-x="13">
                <pitch>
                    <step>G</step>
                    <octave>4</octave>
                </pitch>
                <duration>8</duration>
                <voice>1</voice>
                <type>quarter</type>
                <stem default-y="5.5">up</stem>
            </note>
            <harmony default-y="34">
                <root>
                    <root-step>G</root-step>
                </root>
                <kind halign="center" text="dim">diminished</kind>
            </harmony>
            <note default-x="50">
                <pitch>
                    <step>A</step>
                    <octave>4</octave>
                </pitch>
                <duration>8</duration>
                <voice>1</voice>
                <type>quarter</type>
                <stem default-y="10.5">up</stem>
            </note>
            <note default-x="87">
                <pitch>
                    <step>F</step>
                    <alter>1</alter>
                    <octave>4</octave>
                </pitch>
                <duration>16</duration>
                <voice>1</voice>
                <type>half</type>
                <stem default-y="1">up</stem>
            </note>
        </measure>
        <measure width="177" number="37">
            <harmony default-y="34">
                <root>
                    <root-step>A</root-step>
                </root>
                <kind halign="center" text="m7">minor-seventh</kind>
            </harmony>
            <note default-x="13">
                <pitch>
                    <step>E</step>
                    <octave>4</octave>
                </pitch>
                <duration>8</duration>
                <voice>1</voice>
                <type>quarter</type>
                <stem default-y="-5">up</stem>
            </note>
            <note default-x="51">
                <rest/>
                <duration>4</duration>
                <voice>1</voice>
                <type>eighth</type>
            </note>
            <note default-x="74">
                <pitch>
                    <step>E</step>
                    <octave>4</octave>
                </pitch>
                <duration>4</duration>
                <voice>1</voice>
                <type>eighth</type>
                <stem default-y="-5">up</stem>
            </note>
            <note default-x="102">
                <pitch>
                    <step>E</step>
                    <octave>4</octave>
                </pitch>
                <duration>8</duration>
                <voice>1</voice>
                <type>quarter</type>
                <stem default-y="-5">up</stem>
            </note>
            <harmony default-y="34">
                <root>
                    <root-step>D</root-step>
                </root>
                <kind halign="center" text="7">dominant</kind>
            </harmony>
            <note default-x="139">
                <pitch>
                    <step>B</step>
                    <octave>4</octave>
                </pitch>
                <duration>8</duration>
                <voice>1</voice>
                <type>quarter</type>
                <stem default-y="-55.5">down</stem>
                <notations>
                    <slur placement="above" type="start" number="1"/>
                </notations>
            </note>
        </measure>
        <measure width="111" number="38">
            <harmony default-y="34">
                <root>
                    <root-step>D</root-step>
                </root>
                <kind halign="center" text="7">dominant</kind>
            </harmony>
            <note default-x="13">
                <pitch>
                    <step>B</step>
                    <octave>4</octave>
                </pitch>
                <duration>32</duration>
                <voice>1</voice>
                <type>whole</type>
                <notations>
                    <slur type="stop" number="1"/>
                </notations>
            </note>
        </measure>
        <measure width="149" number="39">
            <harmony default-y="34">
                <root>
                    <root-step>G</root-step>
                </root>
                <kind halign="center" text="">major</kind>
            </harmony>
            <note default-x="14">
                <pitch>
                    <step>D</step>
                    <octave>5</octave>
                </pitch>
                <duration>16</duration>
                <voice>1</voice>
                <type>half</type>
                <stem default-y="-45">down</stem>
            </note>
            <note default-x="74">
                <pitch>
                    <step>E</step>
                    <octave>5</octave>
                </pitch>
                <duration>8</duration>
                <voice>1</voice>
                <type>quarter</type>
                <stem default-y="-40">down</stem>
            </note>
            <note default-x="111">
                <pitch>
                    <step>C</step>
                    <octave>5</octave>
                </pitch>
                <duration>8</duration>
                <voice>1</voice>
                <type>quarter</type>
                <stem default-y="-50.5">down</stem>
            </note>
        </measure>
        <measure width="148" number="40">
            <harmony default-y="34">
                <root>
                    <root-step>G</root-step>
                </root>
                <kind halign="center" text="">major</kind>
            </harmony>
            <note default-x="14">
                <pitch>
                    <step>D</step>
                    <octave>5</octave>
                </pitch>
                <duration>8</duration>
                <voice>1</voice>
                <type>quarter</type>
                <stem default-y="-45">down</stem>
            </note>
            <note default-x="50">
                <pitch>
                    <step>E</step>
                    <octave>5</octave>
                </pitch>
                <duration>8</duration>
                <voice>1</voice>
                <type>quarter</type>
                <stem default-y="-40">down</stem>
            </note>
            <note default-x="87">
                <pitch>
                    <step>C</step>
                    <octave>5</octave>
                </pitch>
                <duration>16</duration>
                <voice>1</voice>
                <type>half</type>
                <stem default-y="-50.5">down</stem>
            </note>
        </measure>
        <measure width="198" number="41">
            <print new-system="yes">
                <system-layout>
                    <system-distance>114</system-distance>
                </system-layout>
            </print>
            <harmony default-y="34">
                <root>
                    <root-step>C</root-step>
                </root>
                <kind halign="center" text="">major</kind>
            </harmony>
            <note default-x="41">
                <pitch>
                    <step>B</step>
                    <octave>4</octave>
                </pitch>
                <duration>8</duration>
                <voice>1</voice>
                <type>quarter</type>
                <stem default-y="-55">down</stem>
            </note>
            <note default-x="78">
                <rest/>
                <duration>4</duration>
                <voice>1</voice>
                <type>eighth</type>
            </note>
            <note default-x="101">
                <pitch>
                    <step>B</step>
                    <octave>4</octave>
                </pitch>
                <duration>4</duration>
                <voice>1</voice>
                <type>eighth</type>
                <stem default-y="-55">down</stem>
            </note>
            <note default-x="124">
                <pitch>
                    <step>B</step>
                    <octave>4</octave>
                </pitch>
                <duration>8</duration>
                <voice>1</voice>
                <type>quarter</type>
                <stem default-y="-55">down</stem>
            </note>
            <harmony default-y="34">
                <root>
                    <root-step>C</root-step>
                </root>
                <kind halign="center" text="6">major-sixth</kind>
            </harmony>
            <note default-x="160">
                <pitch>
                    <step>A</step>
                    <octave>4</octave>
                </pitch>
                <duration>8</duration>
                <voice>1</voice>
                <type>quarter</type>
                <stem default-y="11">up</stem>
                <notations>
                    <slur placement="below" type="start" number="1"/>
                </notations>
            </note>
        </measure>
        <measure width="148" number="42">
            <harmony default-y="34">
                <root>
                    <root-step>C</root-step>
                </root>
                <kind halign="center" text="6">major-sixth</kind>
            </harmony>
            <note default-x="14">
                <pitch>
                    <step>A</step>
                    <octave>4</octave>
                </pitch>
                <duration>16</duration>
                <voice>1</voice>
                <type>half</type>
                <stem default-y="11">up</stem>
                <notations>
                    <slur type="stop" number="1"/>
                </notations>
            </note>
            <harmony default-y="34">
                <root>
                    <root-step>C</root-step>
                </root>
                <kind halign="center" text="m6">minor-sixth</kind>
                <bass>
                    <bass-step>A</bass-step>
                </bass>
            </harmony>
            <note default-x="73">
                <pitch>
                    <step>B</step>
                    <octave>4</octave>
                </pitch>
                <duration>8</duration>
                <voice>1</voice>
                <type>quarter</type>
                <stem default-y="-55">down</stem>
            </note>
            <note default-x="110">
                <pitch>
                    <step>C</step>
                    <octave>5</octave>
                </pitch>
                <duration>8</duration>
                <voice>1</voice>
                <type>quarter</type>
                <stem default-y="-50">down</stem>
            </note>
        </measure>
        <measure width="186" number="43">
            <harmony default-y="34">
                <root>
                    <root-step>G</root-step>
                </root>
                <kind halign="center" text="">major</kind>
                <bass>
                    <bass-step>D</bass-step>
                </bass>
            </harmony>
            <note default-x="14">
                <pitch>
                    <step>D</step>
                    <octave>5</octave>
                </pitch>
                <duration>8</duration>
                <voice>1</voice>
                <type>quarter</type>
                <stem default-y="-45.5">down</stem>
            </note>
            <note default-x="52">
                <pitch>
                    <step>G</step>
                    <octave>4</octave>
                </pitch>
                <duration>6</duration>
                <voice>1</voice>
                <type>eighth</type>
                <dot/>
                <stem default-y="5">up</stem>
                <beam number="1">begin</beam>
            </note>
            <note default-x="82">
                <pitch>
                    <step>G</step>
                    <octave>4</octave>
                </pitch>
                <duration>2</duration>
                <voice>1</voice>
                <type>16th</type>
                <stem default-y="5">up</stem>
                <beam number="1">end</beam>
                <beam number="2">backward hook</beam>
            </note>
            <note default-x="100">
                <pitch>
                    <step>G</step>
                    <octave>4</octave>
                </pitch>
                <duration>6</duration>
                <voice>1</voice>
                <type>eighth</type>
                <dot/>
                <stem default-y="5">up</stem>
                <beam number="1">begin</beam>
            </note>
            <note default-x="130">
                <pitch>
                    <step>G</step>
                    <octave>4</octave>
                </pitch>
                <duration>2</duration>
                <voice>1</voice>
                <type>16th</type>
                <stem default-y="5">up</stem>
                <beam number="1">end</beam>
                <beam number="2">backward hook</beam>
            </note>
            <note default-x="148">
                <pitch>
                    <step>G</step>
                    <octave>4</octave>
                </pitch>
                <duration>8</duration>
                <voice>1</voice>
                <type>quarter</type>
                <stem default-y="5">up</stem>
            </note>
        </measure>
        <measure width="198" number="44">
            <harmony default-y="34">
                <root>
                    <root-step>E</root-step>
                    <root-alter>-1</root-alter>
                </root>
                <kind halign="center" text="7">dominant</kind>
                <bass>
                    <bass-step>D</bass-step>
                    <bass-alter>-1</bass-alter>
                </bass>
            </harmony>
            <note default-x="25">
                <pitch>
                    <step>E</step>
                    <alter>-1</alter>
                    <octave>5</octave>
                </pitch>
                <duration>8</duration>
                <voice>1</voice>
                <type>quarter</type>
                <accidental>flat</accidental>
                <stem default-y="-40">down</stem>
            </note>
            <note default-x="62">
                <pitch>
                    <step>G</step>
                    <octave>4</octave>
                </pitch>
                <duration>6</duration>
                <voice>1</voice>
                <type>eighth</type>
                <dot/>
                <stem default-y="5">up</stem>
                <beam number="1">begin</beam>
            </note>
            <note default-x="94">
                <pitch>
                    <step>G</step>
                    <octave>4</octave>
                </pitch>
                <duration>2</duration>
                <voice>1</voice>
                <type>16th</type>
                <stem default-y="5">up</stem>
                <beam number="1">end</beam>
                <beam number="2">backward hook</beam>
            </note>
            <note default-x="111">
                <pitch>
                    <step>G</step>
                    <octave>4</octave>
                </pitch>
                <duration>6</duration>
                <voice>1</voice>
                <type>eighth</type>
                <dot/>
                <stem default-y="5">up</stem>
                <beam number="1">begin</beam>
            </note>
            <note default-x="142">
                <pitch>
                    <step>G</step>
                    <octave>4</octave>
                </pitch>
                <duration>2</duration>
                <voice>1</voice>
                <type>16th</type>
                <stem default-y="5">up</stem>
                <beam number="1">end</beam>
                <beam number="2">backward hook</beam>
            </note>
            <note default-x="159">
                <pitch>
                    <step>G</step>
                    <octave>4</octave>
                </pitch>
                <duration>8</duration>
                <voice>1</voice>
                <type>quarter</type>
                <stem default-y="5">up</stem>
            </note>
        </measure>
        <measure width="161" number="45">
            <harmony default-y="34">
                <root>
                    <root-step>A</root-step>
                </root>
                <kind halign="center" text="m7">minor-seventh</kind>
                <bass>
                    <bass-step>C</bass-step>
                </bass>
            </harmony>
            <note default-x="14">
                <rest/>
                <duration>8</duration>
                <voice>1</voice>
                <type>quarter</type>
            </note>
            <note default-x="50">
                <pitch>
                    <step>E</step>
                    <octave>5</octave>
                </pitch>
                <duration>8</duration>
                <voice>1</voice>
                <type>quarter</type>
                <stem default-y="-40">down</stem>
            </note>
            <harmony default-y="34">
                <root>
                    <root-step>A</root-step>
                </root>
                <kind halign="center" text="m7">minor-seventh</kind>
            </harmony>
            <note default-x="87">
                <pitch>
                    <step>D</step>
                    <octave>5</octave>
                </pitch>
                <duration>8</duration>
                <voice>1</voice>
                <type>quarter</type>
                <stem default-y="-45.5">down</stem>
            </note>
            <note default-x="124">
                <pitch>
                    <step>C</step>
                    <octave>5</octave>
                </pitch>
                <duration>8</duration>
                <voice>1</voice>
                <type>quarter</type>
                <stem default-y="-50">down</stem>
            </note>
        </measure>
        <measure width="130" number="46">
            <harmony default-y="34">
                <root>
                    <root-step>B</root-step>
                </root>
                <kind halign="center" text="7">dominant</kind>
            </harmony>
            <note default-x="14">
                <pitch>
                    <step>D</step>
                    <octave>5</octave>
                </pitch>
                <duration>24</duration>
                <voice>1</voice>
                <type>half</type>
                <dot/>
                <stem default-y="-45.5">down</stem>
            </note>
            <note default-x="92">
                <pitch>
                    <step>A</step>
                    <octave>4</octave>
                </pitch>
                <duration>8</duration>
                <voice>1</voice>
                <type>quarter</type>
                <stem default-y="11">up</stem>
                <notations>
                    <slur placement="below" type="start" number="1"/>
                </notations>
            </note>
        </measure>
        <measure width="211" number="47">
            <print new-system="yes">
                <system-layout>
                    <system-distance>114</system-distance>
                </system-layout>
            </print>
            <harmony default-y="34">
                <root>
                    <root-step>E</root-step>
                </root>
                <kind halign="center" text="m">minor</kind>
            </harmony>
            <note default-x="41">
                <pitch>
                    <step>G</step>
                    <octave>4</octave>
                </pitch>
                <duration>16</duration>
                <voice>1</voice>
                <type>half</type>
                <stem default-y="5">up</stem>
                <notations>
                    <slur type="stop" number="1"/>
                </notations>
            </note>
            <harmony default-y="34">
                <root>
                    <root-step>G</root-step>
                </root>
                <kind halign="center" text="6">major-sixth</kind>
            </harmony>
            <note default-x="117">
                <pitch>
                    <step>A</step>
                    <octave>4</octave>
                </pitch>
                <duration>8</duration>
                <voice>1</voice>
                <type>quarter</type>
                <stem default-y="11">up</stem>
            </note>
            <note default-x="164">
                <pitch>
                    <step>F</step>
                    <alter>1</alter>
                    <octave>4</octave>
                </pitch>
                <duration>8</duration>
                <voice>1</voice>
                <type>quarter</type>
                <stem default-y="0.5">up</stem>
            </note>
        </measure>
        <measure width="184" number="48">
            <harmony default-y="34">
                <root>
                    <root-step>C</root-step>
                </root>
                <kind halign="center" text="">major</kind>
            </harmony>
            <note default-x="14">
                <pitch>
                    <step>G</step>
                    <octave>4</octave>
                </pitch>
                <duration>8</duration>
                <voice>1</voice>
                <type>quarter</type>
                <stem default-y="5">up</stem>
            </note>
            <note default-x="60">
                <pitch>
                    <step>E</step>
                    <octave>5</octave>
                </pitch>
                <duration>8</duration>
                <voice>1</voice>
                <type>quarter</type>
                <stem default-y="-40.5">down</stem>
            </note>
            <harmony default-y="34">
                <root>
                    <root-step>D</root-step>
                </root>
                <kind halign="center" text="7">dominant</kind>
            </harmony>
            <note default-x="107">
                <pitch>
                    <step>F</step>
                    <alter>1</alter>
                    <octave>4</octave>
                </pitch>
                <duration>16</duration>
                <voice>1</voice>
                <type>half</type>
                <stem default-y="0.5">up</stem>
            </note>
        </measure>
        <measure width="138" number="49">
            <harmony default-y="34">
                <root>
                    <root-step>G</root-step>
                </root>
                <kind halign="center" text="">major</kind>
            </harmony>
            <note default-x="13">
                <pitch>
                    <step>G</step>
                    <octave>4</octave>
                </pitch>
                <duration>32</duration>
                <voice>1</voice>
                <type>whole</type>
            </note>
        </measure>
        <measure width="157" number="50">
            <harmony default-y="34">
                <root>
                    <root-step>A</root-step>
                </root>
                <kind halign="center" text="m7">minor-seventh</kind>
            </harmony>
            <harmony default-y="34">
                <root>
                    <root-step>D</root-step>
                </root>
                <kind halign="center" text="9">dominant-ninth</kind>
                <offset>16</offset>
            </harmony>
            <note default-x="61">
                <rest/>
                <duration>32</duration>
                <voice>1</voice>
                <type>whole</type>
            </note>
            <barline location="right">
                <bar-style>light-heavy</bar-style>
                <ending type="stop" number=""></ending>
                <repeat direction="backward"/>
            </barline>
        </measure>
        <measure width="138" number="51">
            <harmony default-y="34">
                <root>
                    <root-step>G</root-step>
                </root>
                <kind halign="center" text="">major</kind>
            </harmony>
            <harmony default-y="34">
                <root>
                    <root-step>D</root-step>
                </root>
                <kind halign="center" text="aug">augmented</kind>
                <offset>16</offset>
            </harmony>
            <note default-x="12">
                <pitch>
                    <step>G</step>
                    <octave>4</octave>
                </pitch>
                <duration>32</duration>
                <voice>1</voice>
                <type>whole</type>
                <notations>
                    <slur placement="below" type="start" number="1"/>
                </notations>
            </note>
        </measure>
        <measure width="192" number="52">
            <harmony default-y="34">
                <root>
                    <root-step>G</root-step>
                </root>
                <kind halign="center" text="6">major-sixth</kind>
            </harmony>
            <note default-x="13">
                <pitch>
                    <step>G</step>
                    <octave>4</octave>
                </pitch>
                <duration>8</duration>
                <voice>1</voice>
                <type>quarter</type>
                <stem default-y="5">up</stem>
                <notations>
                    <slur type="stop" number="1"/>
                </notations>
            </note>
            <note default-x="60">
                <rest/>
                <duration>8</duration>
                <voice>1</voice>
                <type>quarter</type>
            </note>
            <note default-x="105">
                <rest/>
                <duration>16</duration>
                <voice>1</voice>
                <type>half</type>
            </note>
            <barline location="right">
                <bar-style>light-heavy</bar-style>
            </barline>
        </measure>
    </part>
</score-partwise>
