<?xml version="1.0" encoding="UTF-8"?>
<!DOCTYPE score-partwise PUBLIC "-//Recordare//DTD MusicXML 2.0 Partwise//EN" "http://www.musicxml.org/dtds/partwise.dtd">
<score-partwise version="2.0">
    <work>
        <work-number></work-number>
        <work-title></work-title>
    </work>
    <movement-number></movement-number>
    <movement-title>Lollipops And Roses</movement-title>
    <identification>
        <creator type="composer">Tony Velona</creator>
        <creator type="poet">Tony Velona</creator>
        <rights>All Rights Reserved</rights>
        <encoding>
            <software>MuseScore 1.2</software>
            <encoding-date>2012-09-17</encoding-date>
            <software>ProxyMusic 2.0 c</software>
        </encoding>
        <source>http://wikifonia.org/node/17831/revisions/23644/view</source>
    </identification>
    <defaults>
        <scaling>
            <millimeters>5.7</millimeters>
            <tenths>40</tenths>
        </scaling>
        <page-layout>
            <page-height>2084.21</page-height>
            <page-width>1473.68</page-width>
            <page-margins type="both">
                <left-margin>70.1754</left-margin>
                <right-margin>70.1754</right-margin>
                <top-margin>70.1754</top-margin>
                <bottom-margin>140.351</bottom-margin>
            </page-margins>
        </page-layout>
    </defaults>
    <credit page="1">
        <credit-words font-size="24" default-y="2014.04" default-x="736.842" justify="center" valign="top">Lollipops And Roses</credit-words>
    </credit>
    <credit page="1">
        <credit-words font-size="12" default-y="1951.17" default-x="1403.51" justify="right" valign="top">Tony Velona</credit-words>
    </credit>
    <part-list>
        <score-part id="P1">
            <part-name></part-name>
            <score-instrument id="P1-I3">
                <instrument-name></instrument-name>
            </score-instrument>
            <midi-instrument id="P1-I3">
                <midi-channel>1</midi-channel>
                <midi-program>41</midi-program>
                <volume>78.7402</volume>
                <pan>0</pan>
            </midi-instrument>
        </score-part>
    </part-list>
    <part id="P1">
        <measure width="414.62" number="1">
            <print>
                <system-layout>
                    <system-margins>
                        <left-margin>3.00</left-margin>
                        <right-margin>0.00</right-margin>
                    </system-margins>
                    <top-system-distance>316.92</top-system-distance>
                </system-layout>
            </print>
            <attributes>
                <divisions>2</divisions>
                <key>
                    <fifths>-1</fifths>
                    <mode>major</mode>
                </key>
                <time>
                    <beats>3</beats>
                    <beat-type>4</beat-type>
                </time>
                <clef>
                    <sign>G</sign>
                    <line>2</line>
                </clef>
            </attributes>
            <harmony print-frame="no">
                <root>
                    <root-step>G</root-step>
                </root>
                <kind text="m7">minor-seventh</kind>
            </harmony>
            <note default-y="-45.00" default-x="105.66">
                <pitch>
                    <step>D</step>
                    <octave>4</octave>
                </pitch>
                <duration>2</duration>
                <voice>1</voice>
                <type>quarter</type>
                <stem>up</stem>
                <lyric number="1">
                    <syllabic>single</syllabic>
                    <text>Tell</text>
                </lyric>
                <lyric number="2">
                    <syllabic>begin</syllabic>
                    <text>Car</text>
                </lyric>
            </note>
            <note default-y="-35.00" default-x="213.72">
                <pitch>
                    <step>F</step>
                    <octave>4</octave>
                </pitch>
                <duration>3</duration>
                <voice>1</voice>
                <type>quarter</type>
                <dot/>
                <stem>up</stem>
                <lyric number="1">
                    <syllabic>single</syllabic>
                    <text>her</text>
                </lyric>
                <lyric number="2">
                    <syllabic>end</syllabic>
                    <text>ry</text>
                </lyric>
            </note>
            <note default-y="-45.00" default-x="345.48">
                <pitch>
                    <step>D</step>
                    <octave>4</octave>
                </pitch>
                <duration>1</duration>
                <voice>1</voice>
                <type>eighth</type>
                <stem>up</stem>
                <lyric number="1">
                    <syllabic>single</syllabic>
                    <text>you</text>
                </lyric>
                <lyric number="2">
                    <syllabic>single</syllabic>
                    <text>her</text>
                </lyric>
            </note>
        </measure>
        <measure width="284.94" number="2">
            <harmony print-frame="no">
                <root>
                    <root-step>C</root-step>
                </root>
                <kind text="7">dominant</kind>
            </harmony>
            <note default-y="-40.00" default-x="34.34">
                <pitch>
                    <step>E</step>
                    <octave>4</octave>
                </pitch>
                <duration>4</duration>
                <voice>1</voice>
                <type>half</type>
                <stem>up</stem>
                <lyric number="1">
                    <syllabic>single</syllabic>
                    <text>care,</text>
                </lyric>
                <lyric number="2">
                    <syllabic>single</syllabic>
                    <text>books,</text>
                </lyric>
            </note>
            <note>
                <rest/>
                <duration>2</duration>
                <voice>1</voice>
                <type>quarter</type>
            </note>
        </measure>
        <measure width="348.35" number="3">
            <harmony print-frame="no">
                <root>
                    <root-step>A</root-step>
                </root>
                <kind text="m7">minor-seventh</kind>
            </harmony>
            <note default-y="-40.00" default-x="27.96">
                <pitch>
                    <step>E</step>
                    <octave>4</octave>
                </pitch>
                <duration>2</duration>
                <voice>1</voice>
                <type>quarter</type>
                <stem>up</stem>
                <lyric number="1">
                    <syllabic>single</syllabic>
                    <text>each</text>
                </lyric>
                <lyric number="2">
                    <syllabic>single</syllabic>
                    <text>that's</text>
                </lyric>
            </note>
            <note default-y="-30.00" default-x="140.04">
                <pitch>
                    <step>G</step>
                    <octave>4</octave>
                </pitch>
                <duration>3</duration>
                <voice>1</voice>
                <type>quarter</type>
                <dot/>
                <stem>up</stem>
                <lyric number="1">
                    <syllabic>single</syllabic>
                    <text>time</text>
                </lyric>
                <lyric number="2">
                    <syllabic>single</syllabic>
                    <text>how</text>
                </lyric>
            </note>
            <note default-y="-40.00" default-x="276.70">
                <pitch>
                    <step>E</step>
                    <octave>4</octave>
                </pitch>
                <duration>1</duration>
                <voice>1</voice>
                <type>eighth</type>
                <stem>up</stem>
                <lyric number="1">
                    <syllabic>single</syllabic>
                    <text>you</text>
                </lyric>
                <lyric number="2">
                    <syllabic>single</syllabic>
                    <text>it</text>
                </lyric>
            </note>
        </measure>
        <measure width="282.42" number="4">
            <harmony print-frame="no">
                <root>
                    <root-step>D</root-step>
                </root>
                <kind text="m7">minor-seventh</kind>
            </harmony>
            <note default-y="-35.00" default-x="33.09">
                <pitch>
                    <step>F</step>
                    <octave>4</octave>
                </pitch>
                <duration>4</duration>
                <voice>1</voice>
                <type>half</type>
                <stem>up</stem>
                <lyric number="1">
                    <syllabic>single</syllabic>
                    <text>speak.</text>
                </lyric>
                <lyric number="2">
                    <syllabic>single</syllabic>
                    <text>starts.</text>
                </lyric>
            </note>
            <note>
                <rest/>
                <duration>2</duration>
                <voice>1</voice>
                <type>quarter</type>
            </note>
        </measure>
        <measure width="350.05" number="5">
            <print new-system="yes">
                <system-layout>
                    <system-margins>
                        <left-margin>3.00</left-margin>
                        <right-margin>0.00</right-margin>
                    </system-margins>
                    <system-distance>207.67</system-distance>
                </system-layout>
            </print>
            <harmony print-frame="no">
                <root>
                    <root-step>F</root-step>
                    <root-alter>1</root-alter>
                </root>
                <kind text="dim">diminished</kind>
            </harmony>
            <note default-y="-35.00" default-x="30.29">
                <pitch>
                    <step>F</step>
                    <alter>1</alter>
                    <octave>4</octave>
                </pitch>
                <duration>2</duration>
                <voice>1</voice>
                <type>quarter</type>
                <accidental>sharp</accidental>
                <stem>up</stem>
                <lyric number="1">
                    <syllabic>single</syllabic>
                    <text>Make</text>
                </lyric>
                <lyric number="2">
                    <syllabic>begin</syllabic>
                    <text>Four</text>
                </lyric>
            </note>
            <note default-y="-25.00" default-x="142.15">
                <pitch>
                    <step>A</step>
                    <octave>4</octave>
                </pitch>
                <duration>3</duration>
                <voice>1</voice>
                <type>quarter</type>
                <dot/>
                <stem>up</stem>
                <lyric number="1">
                    <syllabic>single</syllabic>
                    <text>it</text>
                </lyric>
                <lyric number="2">
                    <syllabic>end</syllabic>
                    <text>teen</text>
                </lyric>
            </note>
            <note default-y="-35.00" default-x="278.54">
                <pitch>
                    <step>F</step>
                    <alter>1</alter>
                    <octave>4</octave>
                </pitch>
                <duration>1</duration>
                <voice>1</voice>
                <type>eighth</type>
                <stem>up</stem>
                <lyric number="1">
                    <syllabic>single</syllabic>
                    <text>her</text>
                </lyric>
                <lyric number="2">
                    <syllabic>single</syllabic>
                    <text>or</text>
                </lyric>
            </note>
        </measure>
        <measure width="359.28" number="6">
            <harmony print-frame="no">
                <root>
                    <root-step>G</root-step>
                </root>
                <kind text="m7">minor-seventh</kind>
            </harmony>
            <note default-y="-30.00" default-x="25.95">
                <pitch>
                    <step>G</step>
                    <octave>4</octave>
                </pitch>
                <duration>2</duration>
                <voice>1</voice>
                <type>quarter</type>
                <stem>up</stem>
                <lyric number="1">
                    <syllabic>begin</syllabic>
                    <text>birth</text>
                </lyric>
                <lyric number="2">
                    <syllabic>begin</syllabic>
                    <text>for</text>
                </lyric>
            </note>
            <note default-y="-25.00" default-x="136.53">
                <pitch>
                    <step>A</step>
                    <octave>4</octave>
                </pitch>
                <duration>2</duration>
                <voice>1</voice>
                <type>quarter</type>
                <stem>up</stem>
                <lyric number="1">
                    <syllabic>end</syllabic>
                    <text>day</text>
                </lyric>
                <lyric number="2">
                    <syllabic>end</syllabic>
                    <text>ty,</text>
                </lyric>
            </note>
            <note default-y="-20.00" default-x="247.10">
                <pitch>
                    <step>B</step>
                    <alter>-1</alter>
                    <octave>4</octave>
                </pitch>
                <duration>2</duration>
                <voice>1</voice>
                <type>quarter</type>
                <stem>down</stem>
                <lyric number="1">
                    <syllabic>single</syllabic>
                    <text>each</text>
                </lyric>
                <lyric number="2">
                    <syllabic>single</syllabic>
                    <text>they're</text>
                </lyric>
            </note>
        </measure>
        <measure width="335.33" number="7">
            <harmony print-frame="no">
                <root>
                    <root-step>A</root-step>
                </root>
                <kind text="m7">minor-seventh</kind>
            </harmony>
            <note default-y="-15.00" default-x="24.08">
                <pitch>
                    <step>C</step>
                    <octave>5</octave>
                </pitch>
                <duration>2</duration>
                <voice>1</voice>
                <type>quarter</type>
                <stem>down</stem>
                <lyric number="1">
                    <syllabic>single</syllabic>
                    <text>day</text>
                </lyric>
                <lyric number="2">
                    <syllabic>single</syllabic>
                    <text>kida</text>
                </lyric>
            </note>
            <note default-y="-5.00" default-x="132.94">
                <pitch>
                    <step>E</step>
                    <octave>5</octave>
                </pitch>
                <duration>3</duration>
                <voice>1</voice>
                <type>quarter</type>
                <dot/>
                <stem>down</stem>
                <lyric number="1">
                    <syllabic>single</syllabic>
                    <text>of</text>
                </lyric>
                <lyric number="2">
                    <syllabic>single</syllabic>
                    <text>in</text>
                </lyric>
            </note>
            <note default-y="-15.00" default-x="265.69">
                <pitch>
                    <step>C</step>
                    <octave>5</octave>
                </pitch>
                <duration>1</duration>
                <voice>1</voice>
                <type>eighth</type>
                <stem>down</stem>
                <lyric number="1">
                    <syllabic>single</syllabic>
                    <text>the</text>
                </lyric>
                <lyric number="2">
                    <syllabic>single</syllabic>
                    <text>their</text>
                </lyric>
            </note>
        </measure>
        <measure width="285.68" number="8">
            <harmony print-frame="no">
                <root>
                    <root-step>D</root-step>
                </root>
                <kind text="7">dominant</kind>
            </harmony>
            <note default-y="-10.00" default-x="34.32">
                <pitch>
                    <step>D</step>
                    <octave>5</octave>
                </pitch>
                <duration>4</duration>
                <voice>1</voice>
                <type>half</type>
                <stem>down</stem>
                <lyric number="1">
                    <syllabic>single</syllabic>
                    <text>week.</text>
                </lyric>
                <lyric number="2">
                    <syllabic>single</syllabic>
                    <text>hearts.</text>
                </lyric>
            </note>
            <note>
                <rest/>
                <duration>2</duration>
                <voice>1</voice>
                <type>quarter</type>
            </note>
        </measure>
        <measure width="322.50" number="9">
            <print new-system="yes">
                <system-layout>
                    <system-margins>
                        <left-margin>3.00</left-margin>
                        <right-margin>0.00</right-margin>
                    </system-margins>
                    <system-distance>207.67</system-distance>
                </system-layout>
            </print>
            <harmony print-frame="no">
                <root>
                    <root-step>G</root-step>
                </root>
                <kind text="m7">minor-seventh</kind>
            </harmony>
            <note default-y="-45.00" default-x="30.30">
                <pitch>
                    <step>D</step>
                    <octave>4</octave>
                </pitch>
                <duration>2</duration>
                <voice>1</voice>
                <type>quarter</type>
                <stem>up</stem>
                <lyric number="1">
                    <syllabic>single</syllabic>
                    <text>Bring</text>
                </lyric>
                <lyric number="2">
                    <syllabic>single</syllabic>
                    <text>Keep</text>
                </lyric>
            </note>
            <note default-y="-25.00" default-x="142.07">
                <pitch>
                    <step>A</step>
                    <octave>4</octave>
                </pitch>
                <duration>4</duration>
                <voice>1</voice>
                <type>half</type>
                <stem>up</stem>
                <lyric number="1">
                    <syllabic>single</syllabic>
                    <text>her</text>
                </lyric>
                <lyric number="2">
                    <syllabic>single</syllabic>
                    <text>them</text>
                </lyric>
            </note>
        </measure>
        <measure width="324.35" number="10">
            <harmony print-frame="no">
                <root>
                    <root-step>G</root-step>
                </root>
                <kind text="dim">diminished</kind>
            </harmony>
            <note default-y="-30.00" default-x="23.45">
                <pitch>
                    <step>G</step>
                    <octave>4</octave>
                </pitch>
                <duration>2</duration>
                <voice>1</voice>
                <type>quarter</type>
                <stem>up</stem>
                <lyric number="1">
                    <syllabic>single</syllabic>
                    <text>nice</text>
                </lyric>
                <lyric number="2">
                    <syllabic>begin</syllabic>
                    <text>han</text>
                </lyric>
            </note>
            <note default-y="-20.00" default-x="138.57">
                <pitch>
                    <step>B</step>
                    <alter>-1</alter>
                    <octave>4</octave>
                </pitch>
                <duration>4</duration>
                <voice>1</voice>
                <type>half</type>
                <stem>down</stem>
                <lyric number="1">
                    <syllabic>single</syllabic>
                    <text>things,</text>
                </lyric>
                <lyric number="2">
                    <syllabic>end</syllabic>
                    <text>dy,</text>
                </lyric>
            </note>
        </measure>
        <measure width="333.67" number="11">
            <harmony print-frame="no">
                <root>
                    <root-step>F</root-step>
                </root>
                <kind text="">major</kind>
            </harmony>
            <note default-y="-25.00" default-x="25.32">
                <pitch>
                    <step>A</step>
                    <octave>4</octave>
                </pitch>
                <duration>1</duration>
                <voice>1</voice>
                <type>eighth</type>
                <stem>up</stem>
                <beam number="1">begin</beam>
                <lyric number="1">
                    <syllabic>begin</syllabic>
                    <text>sug</text>
                </lyric>
                <lyric number="2">
                    <syllabic>begin</syllabic>
                    <text>flow</text>
                </lyric>
            </note>
            <note default-y="-25.00" default-x="98.35">
                <pitch>
                    <step>A</step>
                    <octave>4</octave>
                </pitch>
                <duration>1</duration>
                <voice>1</voice>
                <type>eighth</type>
                <stem>up</stem>
                <beam number="1">end</beam>
                <lyric number="1">
                    <syllabic>end</syllabic>
                    <text>ar</text>
                </lyric>
                <lyric number="2">
                    <syllabic>end</syllabic>
                    <text>ers</text>
                </lyric>
            </note>
            <note default-y="-15.00" default-x="171.39">
                <pitch>
                    <step>C</step>
                    <octave>5</octave>
                </pitch>
                <duration>4</duration>
                <voice>1</voice>
                <type>half</type>
                <stem>down</stem>
                <lyric number="1">
                    <syllabic>single</syllabic>
                    <text>and</text>
                </lyric>
                <lyric number="2">
                    <syllabic>single</syllabic>
                    <text>and</text>
                </lyric>
            </note>
        </measure>
        <measure width="349.82" number="12">
            <harmony print-frame="no">
                <root>
                    <root-step>B</root-step>
                    <root-alter>-1</root-alter>
                </root>
                <kind text="m">minor</kind>
            </harmony>
            <note default-y="-20.00" default-x="27.81">
                <pitch>
                    <step>B</step>
                    <alter>-1</alter>
                    <octave>4</octave>
                </pitch>
                <duration>2</duration>
                <voice>1</voice>
                <type>quarter</type>
                <stem>down</stem>
                <lyric number="1">
                    <syllabic>single</syllabic>
                    <text>spice</text>
                </lyric>
                <lyric number="2">
                    <syllabic>begin</syllabic>
                    <text>can</text>
                </lyric>
            </note>
            <note default-y="-10.00" default-x="134.61">
                <pitch>
                    <step>D</step>
                    <alter>-1</alter>
                    <octave>5</octave>
                </pitch>
                <duration>2</duration>
                <voice>1</voice>
                <type>quarter</type>
                <accidental>flat</accidental>
                <stem>down</stem>
                <lyric number="1">
                    <syllabic>single</syllabic>
                    <text>things,</text>
                </lyric>
                <lyric number="2">
                    <syllabic>end</syllabic>
                    <text>dy.</text>
                </lyric>
            </note>
            <note>
                <rest/>
                <duration>2</duration>
                <voice>1</voice>
                <type>quarter</type>
            </note>
        </measure>
        <measure width="315.79" number="13">
            <print new-system="yes">
                <system-layout>
                    <system-margins>
                        <left-margin>3.00</left-margin>
                        <right-margin>0.00</right-margin>
                    </system-margins>
                    <system-distance>207.67</system-distance>
                </system-layout>
            </print>
            <harmony print-frame="no">
                <root>
                    <root-step>F</root-step>
                </root>
                <kind text="">major</kind>
            </harmony>
            <note default-y="-15.00" default-x="22.23">
                <pitch>
                    <step>C</step>
                    <octave>5</octave>
                </pitch>
                <duration>2</duration>
                <voice>1</voice>
                <type>quarter</type>
                <stem>down</stem>
                <lyric number="1">
                    <syllabic>begin</syllabic>
                    <text>Ros</text>
                </lyric>
                <lyric number="2">
                    <syllabic>begin</syllabic>
                    <text>Ros</text>
                </lyric>
            </note>
            <note default-y="-35.00" default-x="124.88">
                <pitch>
                    <step>F</step>
                    <octave>4</octave>
                </pitch>
                <duration>3</duration>
                <voice>1</voice>
                <type>quarter</type>
                <dot/>
                <stem>up</stem>
                <lyric number="1">
                    <syllabic>end</syllabic>
                    <text>es</text>
                </lyric>
                <lyric number="2">
                    <syllabic>end</syllabic>
                    <text>es</text>
                </lyric>
            </note>
            <note default-y="-35.00" default-x="250.03">
                <pitch>
                    <step>F</step>
                    <octave>4</octave>
                </pitch>
                <duration>1</duration>
                <voice>1</voice>
                <type>eighth</type>
                <stem>up</stem>
                <lyric number="1">
                    <syllabic>single</syllabic>
                    <text>and</text>
                </lyric>
                <lyric number="2">
                    <syllabic>single</syllabic>
                    <text>and</text>
                </lyric>
            </note>
        </measure>
        <measure width="348.42" number="14">
            <harmony print-frame="no">
                <root>
                    <root-step>G</root-step>
                </root>
                <kind text="m7">minor-seventh</kind>
            </harmony>
            <note default-y="-35.00" default-x="16.64">
                <pitch>
                    <step>F</step>
                    <octave>4</octave>
                </pitch>
                <duration>1</duration>
                <voice>1</voice>
                <type>eighth</type>
                <stem>up</stem>
                <beam number="1">begin</beam>
                <lyric number="1">
                    <syllabic>begin</syllabic>
                    <text>lol</text>
                </lyric>
                <lyric number="2">
                    <syllabic>begin</syllabic>
                    <text>lol</text>
                </lyric>
            </note>
            <note default-y="-50.00" default-x="83.33">
                <pitch>
                    <step>C</step>
                    <octave>4</octave>
                </pitch>
                <duration>1</duration>
                <voice>1</voice>
                <type>eighth</type>
                <stem>up</stem>
                <beam number="1">end</beam>
                <lyric number="1">
                    <syllabic>middle</syllabic>
                    <text>li</text>
                </lyric>
                <lyric number="2">
                    <syllabic>middle</syllabic>
                    <text>li</text>
                </lyric>
            </note>
            <note default-y="-50.00" default-x="150.02">
                <pitch>
                    <step>C</step>
                    <octave>4</octave>
                </pitch>
                <duration>3</duration>
                <voice>1</voice>
                <type>quarter</type>
                <dot/>
                <stem>up</stem>
                <lyric number="1">
                    <syllabic>end</syllabic>
                    <text>pops,</text>
                </lyric>
                <lyric number="2">
                    <syllabic>end</syllabic>
                    <text>pops,</text>
                </lyric>
            </note>
            <note default-y="-50.00" default-x="280.13">
                <pitch>
                    <step>C</step>
                    <octave>4</octave>
                </pitch>
                <duration>1</duration>
                <voice>1</voice>
                <type>eighth</type>
                <stem>up</stem>
                <lyric number="1">
                    <syllabic>single</syllabic>
                    <text>and</text>
                </lyric>
                <lyric number="2">
                    <syllabic>single</syllabic>
                    <text>and</text>
                </lyric>
            </note>
        </measure>
        <measure width="342.83" number="15">
            <harmony print-frame="no">
                <root>
                    <root-step>F</root-step>
                </root>
                <kind text="">major</kind>
            </harmony>
            <note default-y="-50.00" default-x="16.64">
                <pitch>
                    <step>C</step>
                    <octave>4</octave>
                </pitch>
                <duration>1</duration>
                <voice>1</voice>
                <type>eighth</type>
                <stem>up</stem>
                <beam number="1">begin</beam>
                <lyric number="1">
                    <syllabic>begin</syllabic>
                    <text>lol</text>
                </lyric>
                <lyric number="2">
                    <syllabic>begin</syllabic>
                    <text>lol</text>
                </lyric>
            </note>
            <note default-y="-35.00" default-x="82.20">
                <pitch>
                    <step>F</step>
                    <octave>4</octave>
                </pitch>
                <duration>1</duration>
                <voice>1</voice>
                <type>eighth</type>
                <stem>up</stem>
                <beam number="1">end</beam>
                <lyric number="1">
                    <syllabic>middle</syllabic>
                    <text>li</text>
                </lyric>
                <lyric number="2">
                    <syllabic>middle</syllabic>
                    <text>li</text>
                </lyric>
            </note>
            <note default-y="-35.00" default-x="147.76">
                <pitch>
                    <step>F</step>
                    <octave>4</octave>
                </pitch>
                <duration>3</duration>
                <voice>1</voice>
                <type>quarter</type>
                <dot/>
                <stem>up</stem>
                <lyric number="1">
                    <syllabic>end</syllabic>
                    <text>pops</text>
                </lyric>
                <lyric number="2">
                    <syllabic>end</syllabic>
                    <text>pops</text>
                </lyric>
            </note>
            <note default-y="-35.00" default-x="275.66">
                <pitch>
                    <step>F</step>
                    <octave>4</octave>
                </pitch>
                <duration>1</duration>
                <voice>1</voice>
                <type>eighth</type>
                <stem>up</stem>
                <lyric number="1">
                    <syllabic>single</syllabic>
                    <text>and</text>
                </lyric>
                <lyric number="2">
                    <syllabic>single</syllabic>
                    <text>and</text>
                </lyric>
            </note>
            <direction placement="above">
                <direction-type>
                    <words>To Coda</words>
                </direction-type>
                <sound tocoda="coda"/>
            </direction>
        </measure>
        <measure width="323.31" number="16">
            <direction placement="above">
                <direction-type>
                    <coda/>
                </direction-type>
                <sound coda="coda"/>
            </direction>
            <harmony print-frame="no">
                <root>
                    <root-step>D</root-step>
                </root>
                <kind text="m7">minor-seventh</kind>
            </harmony>
            <note default-y="-50.00" default-x="18.50">
                <pitch>
                    <step>C</step>
                    <octave>4</octave>
                </pitch>
                <duration>2</duration>
                <voice>1</voice>
                <type>quarter</type>
                <stem>up</stem>
                <lyric number="1">
                    <syllabic>begin</syllabic>
                    <text>ros</text>
                </lyric>
            </note>
            <note default-y="-35.00" default-x="110.38">
                <pitch>
                    <step>F</step>
                    <octave>4</octave>
                </pitch>
                <duration>2</duration>
                <voice>1</voice>
                <type>quarter</type>
                <stem>up</stem>
                <lyric number="1">
                    <syllabic>end</syllabic>
                    <text>es.</text>
                </lyric>
            </note>
            <note>
                <rest/>
                <duration>1</duration>
                <voice>1</voice>
                <type>eighth</type>
            </note>
            <note default-y="-30.00" default-x="259.68">
                <pitch>
                    <step>G</step>
                    <octave>4</octave>
                </pitch>
                <duration>1</duration>
                <voice>1</voice>
                <type>eighth</type>
                <stem>up</stem>
                <lyric number="1">
                    <syllabic>single</syllabic>
                    <text>We</text>
                </lyric>
            </note>
            <barline location="right">
                <bar-style>light-light</bar-style>
            </barline>
        </measure>
        <measure width="145.27" number="17">
            <print new-system="yes">
                <system-layout>
                    <system-margins>
                        <left-margin>3.00</left-margin>
                        <right-margin>0.00</right-margin>
                    </system-margins>
                    <system-distance>207.67</system-distance>
                </system-layout>
            </print>
            <harmony print-frame="no">
                <root>
                    <root-step>E</root-step>
                </root>
                <kind text="m7">minor-seventh</kind>
            </harmony>
            <note default-y="-25.00" default-x="17.25">
                <pitch>
                    <step>A</step>
                    <octave>4</octave>
                </pitch>
                <duration>6</duration>
                <tie type="start"/>
                <voice>1</voice>
                <type>half</type>
                <dot/>
                <stem>up</stem>
                <notations>
                    <tied type="start"/>
                </notations>
                <lyric number="1">
                    <syllabic>single</syllabic>
                    <text>try</text>
                </lyric>
            </note>
        </measure>
        <measure width="214.40" number="18">
            <harmony print-frame="no">
                <root>
                    <root-step>A</root-step>
                </root>
                <kind text="7">dominant</kind>
            </harmony>
            <note default-y="-25.00" default-x="12.00">
                <pitch>
                    <step>A</step>
                    <octave>4</octave>
                </pitch>
                <duration>2</duration>
                <tie type="stop"/>
                <voice>1</voice>
                <type>quarter</type>
                <stem>up</stem>
                <notations>
                    <tied type="stop"/>
                </notations>
            </note>
            <note default-y="-40.00" default-x="82.59">
                <pitch>
                    <step>E</step>
                    <octave>4</octave>
                </pitch>
                <duration>3</duration>
                <voice>1</voice>
                <type>quarter</type>
                <dot/>
                <stem>up</stem>
                <lyric number="1">
                    <syllabic>begin</syllabic>
                    <text>act</text>
                </lyric>
            </note>
            <note default-y="-45.00" default-x="168.67">
                <pitch>
                    <step>D</step>
                    <octave>4</octave>
                </pitch>
                <duration>1</duration>
                <voice>1</voice>
                <type>eighth</type>
                <stem>up</stem>
                <lyric number="1">
                    <syllabic>end</syllabic>
                    <text>ing</text>
                </lyric>
            </note>
        </measure>
        <measure width="231.26" number="19">
            <harmony print-frame="no">
                <root>
                    <root-step>D</root-step>
                </root>
                <kind text="">major</kind>
            </harmony>
            <note default-y="-40.00" default-x="33.39">
                <pitch>
                    <step>E</step>
                    <octave>4</octave>
                </pitch>
                <duration>2</duration>
                <voice>1</voice>
                <type>quarter</type>
                <stem>up</stem>
                <lyric number="1">
                    <syllabic>single</syllabic>
                    <text>grown</text>
                </lyric>
            </note>
            <note default-y="-35.00" default-x="98.82">
                <pitch>
                    <step>F</step>
                    <alter>1</alter>
                    <octave>4</octave>
                </pitch>
                <duration>2</duration>
                <voice>1</voice>
                <type>quarter</type>
                <accidental>sharp</accidental>
                <stem>up</stem>
                <lyric number="1">
                    <syllabic>single</syllabic>
                    <text>up,</text>
                </lyric>
            </note>
            <note default-y="-55.00" default-x="164.24">
                <pitch>
                    <step>B</step>
                    <octave>3</octave>
                </pitch>
                <duration>2</duration>
                <voice>1</voice>
                <type>quarter</type>
                <accidental>natural</accidental>
                <stem>up</stem>
            </note>
        </measure>
        <measure width="185.10" number="20">
            <note default-y="-50.00" default-x="16.80">
                <pitch>
                    <step>C</step>
                    <alter>1</alter>
                    <octave>4</octave>
                </pitch>
                <duration>2</duration>
                <voice>1</voice>
                <type>quarter</type>
                <accidental>sharp</accidental>
                <stem>up</stem>
            </note>
            <note default-y="-45.00" default-x="72.37">
                <pitch>
                    <step>D</step>
                    <octave>4</octave>
                </pitch>
                <duration>2</duration>
                <voice>1</voice>
                <type>quarter</type>
                <stem>up</stem>
            </note>
            <note default-y="-35.00" default-x="127.93">
                <pitch>
                    <step>F</step>
                    <alter>1</alter>
                    <octave>4</octave>
                </pitch>
                <duration>2</duration>
                <voice>1</voice>
                <type>quarter</type>
                <accidental>sharp</accidental>
                <stem>up</stem>
            </note>
        </measure>
        <measure width="147.14" number="21">
            <harmony print-frame="no">
                <root>
                    <root-step>E</root-step>
                    <root-alter>-1</root-alter>
                </root>
                <kind text="m7">minor-seventh</kind>
            </harmony>
            <note default-y="-25.00" default-x="19.12">
                <pitch>
                    <step>A</step>
                    <alter>-1</alter>
                    <octave>4</octave>
                </pitch>
                <duration>6</duration>
                <tie type="start"/>
                <voice>1</voice>
                <type>half</type>
                <dot/>
                <accidental>flat</accidental>
                <stem>up</stem>
                <notations>
                    <tied type="start"/>
                </notations>
                <lyric number="1">
                    <syllabic>single</syllabic>
                    <text>but</text>
                </lyric>
            </note>
        </measure>
        <measure width="207.41" number="22">
            <harmony print-frame="no">
                <root>
                    <root-step>A</root-step>
                    <root-alter>-1</root-alter>
                </root>
                <kind text="7">dominant</kind>
            </harmony>
            <note default-y="-25.00" default-x="12.00">
                <pitch>
                    <step>A</step>
                    <alter>-1</alter>
                    <octave>4</octave>
                </pitch>
                <duration>2</duration>
                <tie type="stop"/>
                <voice>1</voice>
                <type>quarter</type>
                <stem>up</stem>
                <notations>
                    <tied type="stop"/>
                </notations>
            </note>
            <note default-y="-40.00" default-x="80.14">
                <pitch>
                    <step>E</step>
                    <alter>-1</alter>
                    <octave>4</octave>
                </pitch>
                <duration>3</duration>
                <voice>1</voice>
                <type>quarter</type>
                <dot/>
                <accidental>flat</accidental>
                <stem>up</stem>
                <lyric number="1">
                    <syllabic>single</syllabic>
                    <text>as</text>
                </lyric>
            </note>
            <note default-y="-45.00" default-x="163.22">
                <pitch>
                    <step>D</step>
                    <alter>-1</alter>
                    <octave>4</octave>
                </pitch>
                <duration>1</duration>
                <voice>1</voice>
                <type>eighth</type>
                <accidental>flat</accidental>
                <stem>up</stem>
                <lyric number="1">
                    <syllabic>single</syllabic>
                    <text>a</text>
                </lyric>
            </note>
        </measure>
        <measure width="199.76" number="23">
            <harmony print-frame="no">
                <root>
                    <root-step>D</root-step>
                    <root-alter>-1</root-alter>
                </root>
                <kind text="">major</kind>
            </harmony>
            <note default-y="-35.00" default-x="25.01">
                <pitch>
                    <step>F</step>
                    <octave>4</octave>
                </pitch>
                <duration>2</duration>
                <voice>1</voice>
                <type>quarter</type>
                <stem>up</stem>
                <lyric number="1">
                    <syllabic>single</syllabic>
                    <text>rule,</text>
                </lyric>
            </note>
            <note default-y="-60.00" default-x="82.73">
                <pitch>
                    <step>A</step>
                    <alter>-1</alter>
                    <octave>3</octave>
                </pitch>
                <duration>2</duration>
                <voice>1</voice>
                <type>quarter</type>
                <accidental>flat</accidental>
                <stem>up</stem>
            </note>
            <note default-y="-55.00" default-x="140.44">
                <pitch>
                    <step>B</step>
                    <alter>-1</alter>
                    <octave>3</octave>
                </pitch>
                <duration>2</duration>
                <voice>1</voice>
                <type>quarter</type>
                <stem>up</stem>
            </note>
        </measure>
        <measure width="184.81" number="24">
            <print new-system="yes">
                <system-layout>
                    <system-margins>
                        <left-margin>3.00</left-margin>
                        <right-margin>0.00</right-margin>
                    </system-margins>
                    <system-distance>181.67</system-distance>
                </system-layout>
            </print>
            <note default-y="-50.00" default-x="12.00">
                <pitch>
                    <step>C</step>
                    <octave>4</octave>
                </pitch>
                <duration>2</duration>
                <voice>1</voice>
                <type>quarter</type>
                <stem>up</stem>
            </note>
            <note default-y="-45.00" default-x="69.07">
                <pitch>
                    <step>D</step>
                    <alter>-1</alter>
                    <octave>4</octave>
                </pitch>
                <duration>2</duration>
                <voice>1</voice>
                <type>quarter</type>
                <accidental>flat</accidental>
                <stem>up</stem>
            </note>
            <note default-y="-35.00" default-x="126.14">
                <pitch>
                    <step>F</step>
                    <octave>4</octave>
                </pitch>
                <duration>2</duration>
                <voice>1</voice>
                <type>quarter</type>
                <stem>up</stem>
                <lyric number="1">
                    <syllabic>single</syllabic>
                    <text>we're</text>
                </lyric>
            </note>
        </measure>
        <measure width="113.58" number="25">
            <harmony print-frame="no">
                <root>
                    <root-step>F</root-step>
                </root>
                <kind text="m">minor</kind>
            </harmony>
            <note default-y="-20.00" default-x="16.01">
                <pitch>
                    <step>B</step>
                    <alter>-1</alter>
                    <octave>4</octave>
                </pitch>
                <duration>6</duration>
                <tie type="start"/>
                <voice>1</voice>
                <type>half</type>
                <dot/>
                <stem>down</stem>
                <notations>
                    <tied type="start"/>
                </notations>
                <lyric number="1">
                    <syllabic>single</syllabic>
                    <text>all</text>
                </lyric>
            </note>
        </measure>
        <measure width="177.12" number="26">
            <harmony print-frame="no">
                <root>
                    <root-step>B</root-step>
                    <root-alter>-1</root-alter>
                </root>
                <kind text="">major</kind>
            </harmony>
            <note default-y="-20.00" default-x="12.00">
                <pitch>
                    <step>B</step>
                    <alter>-1</alter>
                    <octave>4</octave>
                </pitch>
                <duration>2</duration>
                <tie type="stop"/>
                <voice>1</voice>
                <type>quarter</type>
                <stem>down</stem>
                <notations>
                    <tied type="stop"/>
                </notations>
            </note>
            <note default-y="-35.00" default-x="69.49">
                <pitch>
                    <step>F</step>
                    <octave>4</octave>
                </pitch>
                <duration>3</duration>
                <voice>1</voice>
                <type>quarter</type>
                <dot/>
                <stem>up</stem>
                <lyric number="1">
                    <syllabic>begin</syllabic>
                    <text>lit</text>
                </lyric>
            </note>
            <note default-y="-40.00" default-x="139.59">
                <pitch>
                    <step>E</step>
                    <alter>-1</alter>
                    <octave>4</octave>
                </pitch>
                <duration>1</duration>
                <voice>1</voice>
                <type>eighth</type>
                <accidental>flat</accidental>
                <stem>up</stem>
                <lyric number="1">
                    <syllabic>end</syllabic>
                    <text>tle</text>
                </lyric>
            </note>
        </measure>
        <measure width="185.72" number="27">
            <harmony print-frame="no">
                <root>
                    <root-step>E</root-step>
                    <root-alter>-1</root-alter>
                </root>
                <kind text="">major</kind>
            </harmony>
            <note default-y="-35.00" default-x="27.19">
                <pitch>
                    <step>F</step>
                    <octave>4</octave>
                </pitch>
                <duration>2</duration>
                <voice>1</voice>
                <type>quarter</type>
                <stem>up</stem>
                <lyric number="1">
                    <syllabic>begin</syllabic>
                    <text>child</text>
                </lyric>
            </note>
            <note default-y="-30.00" default-x="79.50">
                <pitch>
                    <step>G</step>
                    <octave>4</octave>
                </pitch>
                <duration>2</duration>
                <voice>1</voice>
                <type>quarter</type>
                <stem>up</stem>
                <lyric number="1">
                    <syllabic>end</syllabic>
                    <text>ren,</text>
                </lyric>
            </note>
            <note default-y="-50.00" default-x="131.81">
                <pitch>
                    <step>C</step>
                    <octave>4</octave>
                </pitch>
                <duration>2</duration>
                <voice>1</voice>
                <type>quarter</type>
                <stem>up</stem>
            </note>
        </measure>
        <measure width="148.05" number="28">
            <note default-y="-45.00" default-x="12.00">
                <pitch>
                    <step>D</step>
                    <octave>4</octave>
                </pitch>
                <duration>2</duration>
                <voice>1</voice>
                <type>quarter</type>
                <stem>up</stem>
            </note>
            <note default-y="-40.00" default-x="56.82">
                <pitch>
                    <step>E</step>
                    <alter>-1</alter>
                    <octave>4</octave>
                </pitch>
                <duration>2</duration>
                <voice>1</voice>
                <type>quarter</type>
                <accidental>flat</accidental>
                <stem>up</stem>
            </note>
            <note default-y="-35.00" default-x="101.64">
                <pitch>
                    <step>F</step>
                    <octave>4</octave>
                </pitch>
                <duration>2</duration>
                <voice>1</voice>
                <type>quarter</type>
                <stem>up</stem>
            </note>
        </measure>
        <measure width="125.94" number="29">
            <harmony print-frame="no">
                <root>
                    <root-step>D</root-step>
                </root>
                <kind text="m7">minor-seventh</kind>
            </harmony>
            <note default-y="-30.00" default-x="27.19">
                <pitch>
                    <step>G</step>
                    <octave>4</octave>
                </pitch>
                <duration>6</duration>
                <voice>1</voice>
                <type>half</type>
                <dot/>
                <stem>up</stem>
                <lyric number="1">
                    <syllabic>single</syllabic>
                    <text>fresh</text>
                </lyric>
            </note>
        </measure>
        <measure width="124.70" number="30">
            <harmony print-frame="no">
                <root>
                    <root-step>G</root-step>
                </root>
                <kind text="7">dominant</kind>
            </harmony>
            <note default-y="-45.00" default-x="26.57">
                <pitch>
                    <step>D</step>
                    <octave>4</octave>
                </pitch>
                <duration>6</duration>
                <voice>1</voice>
                <type>half</type>
                <dot/>
                <stem>up</stem>
                <lyric number="1">
                    <syllabic>single</syllabic>
                    <text>from</text>
                </lyric>
            </note>
        </measure>
        <measure width="145.20" number="31">
            <harmony print-frame="no">
                <root>
                    <root-step>G</root-step>
                </root>
                <kind text="m7">minor-seventh</kind>
            </harmony>
            <note default-y="-30.00" default-x="36.82">
                <pitch>
                    <step>G</step>
                    <octave>4</octave>
                </pitch>
                <duration>6</duration>
                <voice>1</voice>
                <type>half</type>
                <dot/>
                <stem>up</stem>
                <lyric number="1">
                    <syllabic>single</syllabic>
                    <text>school,</text>
                </lyric>
            </note>
        </measure>
        <measure width="125.21" number="32">
            <harmony print-frame="no">
                <root>
                    <root-step>C</root-step>
                </root>
                <kind text="7">dominant</kind>
            </harmony>
            <note default-y="-50.00" default-x="14.78">
                <pitch>
                    <step>C</step>
                    <octave>4</octave>
                </pitch>
                <duration>4</duration>
                <voice>1</voice>
                <type>half</type>
                <stem>up</stem>
                <lyric number="1">
                    <syllabic>single</syllabic>
                    <text>so</text>
                </lyric>
            </note>
            <note>
                <rest/>
                <duration>2</duration>
                <voice>1</voice>
                <type>quarter</type>
            </note>
            <direction placement="above">
                <direction-type>
                    <words>D.C. al Coda</words>
                </direction-type>
                <sound dacapo="yes"/>
            </direction>
            <barline location="right">
                <bar-style>light-light</bar-style>
            </barline>
        </measure>
        <measure width="268.37" number="33">
            <print new-system="yes">
                <system-layout>
                    <system-margins>
                        <left-margin>3.00</left-margin>
                        <right-margin>0.00</right-margin>
                    </system-margins>
                    <system-distance>181.67</system-distance>
                </system-layout>
            </print>
            <direction placement="above">
                <direction-type>
                    <coda/>
                </direction-type>
                <sound coda="coda"/>
            </direction>
            <harmony print-frame="no">
                <root>
                    <root-step>D</root-step>
                </root>
                <kind text="m7">minor-seventh</kind>
            </harmony>
            <note default-y="-50.00" default-x="18.50">
                <pitch>
                    <step>C</step>
                    <octave>4</octave>
                </pitch>
                <duration>2</duration>
                <voice>1</voice>
                <type>quarter</type>
                <stem>up</stem>
                <lyric number="1">
                    <syllabic>begin</syllabic>
                    <text>ros</text>
                </lyric>
            </note>
            <direction placement="above">
                <direction-type>
                    <words>Coda</words>
                </direction-type>
            </direction>
            <note default-y="-35.00" default-x="101.26">
                <pitch>
                    <step>F</step>
                    <octave>4</octave>
                </pitch>
                <duration>2</duration>
                <voice>1</voice>
                <type>quarter</type>
                <stem>up</stem>
                <lyric number="1">
                    <syllabic>end</syllabic>
                    <text>es</text>
                </lyric>
            </note>
            <note>
                <rest/>
                <duration>2</duration>
                <voice>1</voice>
                <type>quarter</type>
            </note>
        </measure>
        <measure width="341.69" number="34">
            <harmony print-frame="no">
                <root>
                    <root-step>G</root-step>
                </root>
                <kind text="m7">minor-seventh</kind>
            </harmony>
            <note default-y="-15.00" default-x="20.36">
                <pitch>
                    <step>C</step>
                    <octave>5</octave>
                </pitch>
                <duration>1</duration>
                <voice>1</voice>
                <type>eighth</type>
                <stem>down</stem>
                <beam number="1">begin</beam>
                <lyric number="1">
                    <syllabic>begin</syllabic>
                    <text>Lol</text>
                </lyric>
            </note>
            <note default-y="0.00" default-x="81.85">
                <pitch>
                    <step>F</step>
                    <octave>5</octave>
                </pitch>
                <duration>1</duration>
                <voice>1</voice>
                <type>eighth</type>
                <stem>down</stem>
                <beam number="1">end</beam>
                <lyric number="1">
                    <syllabic>middle</syllabic>
                    <text>li</text>
                </lyric>
            </note>
            <note default-y="0.00" default-x="143.33">
                <pitch>
                    <step>F</step>
                    <octave>5</octave>
                </pitch>
                <duration>2</duration>
                <voice>1</voice>
                <type>quarter</type>
                <stem>down</stem>
                <lyric number="1">
                    <syllabic>end</syllabic>
                    <text>pops</text>
                </lyric>
            </note>
            <note default-y="0.00" default-x="241.71">
                <pitch>
                    <step>F</step>
                    <octave>5</octave>
                </pitch>
                <duration>2</duration>
                <voice>1</voice>
                <type>quarter</type>
                <stem>down</stem>
                <lyric number="1">
                    <syllabic>single</syllabic>
                    <text>and</text>
                </lyric>
            </note>
        </measure>
        <measure width="251.73" number="35">
            <note default-y="-15.00" default-x="14.15">
                <pitch>
                    <step>C</step>
                    <octave>5</octave>
                </pitch>
                <duration>2</duration>
                <voice>1</voice>
                <type>quarter</type>
                <stem>down</stem>
                <lyric number="1">
                    <syllabic>begin</syllabic>
                    <text>ro</text>
                </lyric>
            </note>
            <note default-y="0.00" default-x="92.81">
                <pitch>
                    <step>F</step>
                    <octave>5</octave>
                </pitch>
                <duration>2</duration>
                <voice>1</voice>
                <type>quarter</type>
                <stem>down</stem>
            </note>
            <note>
                <rest/>
                <duration>2</duration>
                <voice>1</voice>
                <type>quarter</type>
            </note>
        </measure>
        <measure width="230.40" number="36">
            <harmony print-frame="no">
                <root>
                    <root-step>F</root-step>
                </root>
                <kind text="">major</kind>
            </harmony>
            <note default-y="10.00" default-x="18.50">
                <pitch>
                    <step>A</step>
                    <octave>5</octave>
                </pitch>
                <duration>6</duration>
                <tie type="start"/>
                <voice>1</voice>
                <type>half</type>
                <dot/>
                <stem>down</stem>
                <notations>
                    <tied type="start"/>
                </notations>
                <lyric number="1">
                    <syllabic>middle</syllabic>
                    <text>ses</text>
                </lyric>
            </note>
        </measure>
        <measure width="238.15" number="37">
            <note default-y="10.00" default-x="12.00">
                <pitch>
                    <step>A</step>
                    <octave>5</octave>
                </pitch>
                <duration>4</duration>
                <tie type="stop"/>
                <voice>1</voice>
                <type>half</type>
                <stem>down</stem>
                <notations>
                    <tied type="stop"/>
                </notations>
            </note>
            <note>
                <rest/>
                <duration>2</duration>
                <voice>1</voice>
                <type>quarter</type>
            </note>
            <barline location="right">
                <bar-style>light-heavy</bar-style>
            </barline>
        </measure>
    </part>
</score-partwise>
