<?xml version="1.0" encoding="UTF-8"?>
<!DOCTYPE score-partwise PUBLIC "-//Recordare//DTD MusicXML 2.0 Partwise//EN" "http://www.musicxml.org/dtds/partwise.dtd">
<score-partwise version="2.0">
    <work>
        <work-number></work-number>
        <work-title></work-title>
    </work>
    <movement-number></movement-number>
    <movement-title>When Day Is Done</movement-title>
    <identification>
        <creator type="composer">Robert Katscher</creator>
        <creator type="poet">Buddy De Sylva</creator>
        <rights>All Rights Reserved</rights>
        <encoding>
            <software>MuseScore 1.2</software>
            <encoding-date>2012-11-13</encoding-date>
            <software>ProxyMusic 2.0 c</software>
        </encoding>
        <source>http://wikifonia.org/node/18875/revisions/24989/view</source>
    </identification>
    <defaults>
        <scaling>
            <millimeters>5.7</millimeters>
            <tenths>40</tenths>
        </scaling>
        <page-layout>
            <page-height>2084.21</page-height>
            <page-width>1473.68</page-width>
            <page-margins type="both">
                <left-margin>70.1754</left-margin>
                <right-margin>70.1754</right-margin>
                <top-margin>70.1754</top-margin>
                <bottom-margin>140.351</bottom-margin>
            </page-margins>
        </page-layout>
    </defaults>
    <credit page="1">
        <credit-words font-size="24" default-y="2014.04" default-x="736.842" justify="center" valign="top">When Day Is Done</credit-words>
    </credit>
    <credit page="1">
        <credit-words font-size="12" default-y="1951.17" default-x="1403.51" justify="right" valign="top">Robert Katscher</credit-words>
    </credit>
    <credit page="1">
        <credit-words font-size="12" default-y="1951.17" default-x="70.1754" justify="left" valign="top">Buddy De Sylva</credit-words>
    </credit>
    <part-list>
        <score-part id="P1">
            <part-name></part-name>
            <score-instrument id="P1-I3">
                <instrument-name></instrument-name>
            </score-instrument>
            <midi-instrument id="P1-I3">
                <midi-channel>1</midi-channel>
                <midi-program>41</midi-program>
                <volume>78.7402</volume>
                <pan>0</pan>
            </midi-instrument>
        </score-part>
    </part-list>
    <part id="P1">
        <measure width="373.25" number="1">
            <print>
                <system-layout>
                    <system-margins>
                        <left-margin>3.00</left-margin>
                        <right-margin>0.00</right-margin>
                    </system-margins>
                    <top-system-distance>302.20</top-system-distance>
                </system-layout>
            </print>
            <attributes>
                <divisions>1</divisions>
                <key>
                    <fifths>-2</fifths>
                    <mode>major</mode>
                </key>
                <time symbol="cut">
                    <beats>2</beats>
                    <beat-type>2</beat-type>
                </time>
                <clef>
                    <sign>G</sign>
                    <line>2</line>
                </clef>
            </attributes>
            <note>
                <rest/>
                <duration>2</duration>
                <voice>1</voice>
                <type>half</type>
            </note>
            <note>
                <rest/>
                <duration>1</duration>
                <voice>1</voice>
                <type>quarter</type>
            </note>
            <note default-y="-35.00" default-x="294.62">
                <pitch>
                    <step>F</step>
                    <octave>4</octave>
                </pitch>
                <duration>1</duration>
                <voice>1</voice>
                <type>quarter</type>
                <stem>up</stem>
                <lyric number="1">
                    <syllabic>single</syllabic>
                    <text>When</text>
                </lyric>
            </note>
        </measure>
        <measure width="338.61" number="2">
            <harmony print-frame="no">
                <root>
                    <root-step>B</root-step>
                    <root-alter>-1</root-alter>
                </root>
                <kind text="">major</kind>
            </harmony>
            <note default-y="-20.00" default-x="20.98">
                <pitch>
                    <step>B</step>
                    <alter>-1</alter>
                    <octave>4</octave>
                </pitch>
                <duration>1</duration>
                <voice>1</voice>
                <type>quarter</type>
                <stem>down</stem>
                <lyric number="1">
                    <syllabic>single</syllabic>
                    <text>day</text>
                </lyric>
            </note>
            <note default-y="-20.00" default-x="99.99">
                <pitch>
                    <step>B</step>
                    <alter>-1</alter>
                    <octave>4</octave>
                </pitch>
                <duration>1</duration>
                <voice>1</voice>
                <type>quarter</type>
                <stem>down</stem>
                <lyric number="1">
                    <syllabic>single</syllabic>
                    <text>is</text>
                </lyric>
            </note>
            <note default-y="-20.00" default-x="179.00">
                <pitch>
                    <step>B</step>
                    <alter>-1</alter>
                    <octave>4</octave>
                </pitch>
                <duration>1</duration>
                <voice>1</voice>
                <type>quarter</type>
                <stem>down</stem>
                <lyric number="1">
                    <syllabic>single</syllabic>
                    <text>done</text>
                </lyric>
            </note>
            <note default-y="-35.00" default-x="258.01">
                <pitch>
                    <step>F</step>
                    <octave>4</octave>
                </pitch>
                <duration>1</duration>
                <voice>1</voice>
                <type>quarter</type>
                <stem>up</stem>
                <lyric number="1">
                    <syllabic>single</syllabic>
                    <text>and</text>
                </lyric>
            </note>
        </measure>
        <measure width="343.14" number="3">
            <harmony print-frame="no">
                <root>
                    <root-step>B</root-step>
                    <root-alter>-1</root-alter>
                </root>
                <kind text="dim">diminished</kind>
            </harmony>
            <note default-y="-25.00" default-x="25.33">
                <pitch>
                    <step>A</step>
                    <octave>4</octave>
                </pitch>
                <duration>1</duration>
                <voice>1</voice>
                <type>quarter</type>
                <stem>up</stem>
                <lyric number="1">
                    <syllabic>begin</syllabic>
                    <text>shad</text>
                </lyric>
            </note>
            <note default-y="-25.00" default-x="104.38">
                <pitch>
                    <step>A</step>
                    <octave>4</octave>
                </pitch>
                <duration>1</duration>
                <voice>1</voice>
                <type>quarter</type>
                <stem>up</stem>
                <lyric number="1">
                    <syllabic>end</syllabic>
                    <text>ows</text>
                </lyric>
            </note>
            <note default-y="-25.00" default-x="183.43">
                <pitch>
                    <step>A</step>
                    <octave>4</octave>
                </pitch>
                <duration>1</duration>
                <voice>1</voice>
                <type>quarter</type>
                <stem>up</stem>
                <lyric number="1">
                    <syllabic>single</syllabic>
                    <text>fall,</text>
                </lyric>
            </note>
            <note default-y="-40.00" default-x="262.49">
                <pitch>
                    <step>E</step>
                    <octave>4</octave>
                </pitch>
                <duration>1</duration>
                <voice>1</voice>
                <type>quarter</type>
                <accidental>natural</accidental>
                <stem>up</stem>
                <lyric number="1">
                    <syllabic>single</syllabic>
                    <text>I</text>
                </lyric>
            </note>
        </measure>
        <measure width="275.33" number="4">
            <harmony print-frame="no">
                <root>
                    <root-step>F</root-step>
                </root>
                <kind text="9">dominant-ninth</kind>
            </harmony>
            <note default-y="-30.00" default-x="32.77">
                <pitch>
                    <step>G</step>
                    <octave>4</octave>
                </pitch>
                <duration>2</duration>
                <voice>1</voice>
                <type>half</type>
                <stem>up</stem>
                <lyric number="1">
                    <syllabic>single</syllabic>
                    <text>dream</text>
                </lyric>
            </note>
            <note default-y="-30.00" default-x="153.25">
                <pitch>
                    <step>G</step>
                    <octave>4</octave>
                </pitch>
                <duration>2</duration>
                <voice>1</voice>
                <type>half</type>
                <stem>up</stem>
                <lyric number="1">
                    <syllabic>single</syllabic>
                    <text>of</text>
                </lyric>
            </note>
        </measure>
        <measure width="322.69" number="5">
            <print new-system="yes">
                <system-layout>
                    <system-margins>
                        <left-margin>3.00</left-margin>
                        <right-margin>0.00</right-margin>
                    </system-margins>
                    <system-distance>166.96</system-distance>
                </system-layout>
            </print>
            <note default-y="-30.00" default-x="24.71">
                <pitch>
                    <step>G</step>
                    <octave>4</octave>
                </pitch>
                <duration>3</duration>
                <voice>1</voice>
                <type>half</type>
                <dot/>
                <stem>up</stem>
                <lyric number="1">
                    <syllabic>single</syllabic>
                    <text>you;</text>
                </lyric>
            </note>
            <harmony print-frame="no">
                <root>
                    <root-step>F</root-step>
                </root>
                <kind text="7">dominant</kind>
            </harmony>
            <note default-y="-35.00" default-x="220.66">
                <pitch>
                    <step>F</step>
                    <octave>4</octave>
                </pitch>
                <duration>1</duration>
                <voice>1</voice>
                <type>quarter</type>
                <stem>up</stem>
                <lyric number="1">
                    <syllabic>single</syllabic>
                    <text>When</text>
                </lyric>
            </note>
        </measure>
        <measure width="353.99" number="6">
            <note default-y="-25.00" default-x="20.98">
                <pitch>
                    <step>A</step>
                    <octave>4</octave>
                </pitch>
                <duration>1</duration>
                <voice>1</voice>
                <type>quarter</type>
                <stem>up</stem>
                <lyric number="1">
                    <syllabic>single</syllabic>
                    <text>day</text>
                </lyric>
            </note>
            <note default-y="-25.00" default-x="103.83">
                <pitch>
                    <step>A</step>
                    <octave>4</octave>
                </pitch>
                <duration>1</duration>
                <voice>1</voice>
                <type>quarter</type>
                <stem>up</stem>
                <lyric number="1">
                    <syllabic>single</syllabic>
                    <text>is</text>
                </lyric>
            </note>
            <note default-y="-25.00" default-x="186.68">
                <pitch>
                    <step>A</step>
                    <octave>4</octave>
                </pitch>
                <duration>1</duration>
                <voice>1</voice>
                <type>quarter</type>
                <stem>up</stem>
                <lyric number="1">
                    <syllabic>single</syllabic>
                    <text>done</text>
                </lyric>
            </note>
            <note default-y="-35.00" default-x="269.54">
                <pitch>
                    <step>F</step>
                    <octave>4</octave>
                </pitch>
                <duration>1</duration>
                <voice>1</voice>
                <type>quarter</type>
                <stem>up</stem>
                <lyric number="1">
                    <syllabic>single</syllabic>
                    <text>I</text>
                </lyric>
            </note>
        </measure>
        <measure width="362.06" number="7">
            <harmony print-frame="no">
                <root>
                    <root-step>F</root-step>
                </root>
                <kind text="9">dominant-ninth</kind>
            </harmony>
            <note default-y="-30.00" default-x="27.81">
                <pitch>
                    <step>G</step>
                    <octave>4</octave>
                </pitch>
                <duration>1</duration>
                <voice>1</voice>
                <type>quarter</type>
                <stem>up</stem>
                <lyric number="1">
                    <syllabic>single</syllabic>
                    <text>think</text>
                </lyric>
            </note>
            <note default-y="-30.00" default-x="110.98">
                <pitch>
                    <step>G</step>
                    <octave>4</octave>
                </pitch>
                <duration>1</duration>
                <voice>1</voice>
                <type>quarter</type>
                <stem>up</stem>
                <lyric number="1">
                    <syllabic>single</syllabic>
                    <text>of</text>
                </lyric>
            </note>
            <note default-y="-30.00" default-x="194.14">
                <pitch>
                    <step>G</step>
                    <octave>4</octave>
                </pitch>
                <duration>1</duration>
                <voice>1</voice>
                <type>quarter</type>
                <stem>up</stem>
                <lyric number="1">
                    <syllabic>single</syllabic>
                    <text>all</text>
                </lyric>
            </note>
            <harmony print-frame="no">
                <root>
                    <root-step>F</root-step>
                </root>
                <kind text="7">dominant</kind>
            </harmony>
            <note default-y="-25.00" default-x="277.30">
                <pitch>
                    <step>A</step>
                    <octave>4</octave>
                </pitch>
                <duration>1</duration>
                <voice>1</voice>
                <type>quarter</type>
                <stem>up</stem>
                <lyric number="1">
                    <syllabic>single</syllabic>
                    <text>the</text>
                </lyric>
            </note>
        </measure>
        <measure width="291.60" number="8">
            <harmony print-frame="no">
                <root>
                    <root-step>B</root-step>
                    <root-alter>-1</root-alter>
                </root>
                <kind text="Maj7">major-seventh</kind>
            </harmony>
            <note default-y="-10.00" default-x="23.47">
                <pitch>
                    <step>D</step>
                    <octave>5</octave>
                </pitch>
                <duration>2</duration>
                <voice>1</voice>
                <type>half</type>
                <stem>down</stem>
                <lyric number="1">
                    <syllabic>single</syllabic>
                    <text>joys</text>
                </lyric>
            </note>
            <note default-y="-10.00" default-x="156.73">
                <pitch>
                    <step>D</step>
                    <octave>5</octave>
                </pitch>
                <duration>2</duration>
                <voice>1</voice>
                <type>half</type>
                <stem>down</stem>
                <lyric number="1">
                    <syllabic>single</syllabic>
                    <text>we</text>
                </lyric>
            </note>
        </measure>
        <measure width="318.69" number="9">
            <print new-system="yes">
                <system-layout>
                    <system-margins>
                        <left-margin>3.00</left-margin>
                        <right-margin>0.00</right-margin>
                    </system-margins>
                    <system-distance>166.96</system-distance>
                </system-layout>
            </print>
            <note default-y="-10.00" default-x="31.16">
                <pitch>
                    <step>D</step>
                    <octave>5</octave>
                </pitch>
                <duration>3</duration>
                <voice>1</voice>
                <type>half</type>
                <dot/>
                <stem>down</stem>
                <lyric number="1">
                    <syllabic>single</syllabic>
                    <text>knew.</text>
                </lyric>
            </note>
            <note default-y="-10.00" default-x="220.20">
                <pitch>
                    <step>D</step>
                    <octave>5</octave>
                </pitch>
                <duration>1</duration>
                <voice>1</voice>
                <type>quarter</type>
                <stem>down</stem>
                <lyric number="1">
                    <syllabic>single</syllabic>
                    <text>That</text>
                </lyric>
            </note>
        </measure>
        <measure width="331.38" number="10">
            <harmony print-frame="no">
                <root>
                    <root-step>B</root-step>
                    <root-alter>-1</root-alter>
                </root>
                <kind text="">major</kind>
            </harmony>
            <note default-y="-15.00" default-x="29.66">
                <pitch>
                    <step>C</step>
                    <octave>5</octave>
                </pitch>
                <duration>1</duration>
                <voice>1</voice>
                <type>quarter</type>
                <stem>down</stem>
                <lyric number="1">
                    <syllabic>begin</syllabic>
                    <text>yearn</text>
                </lyric>
            </note>
            <note default-y="-20.00" default-x="113.03">
                <pitch>
                    <step>B</step>
                    <alter>-1</alter>
                    <octave>4</octave>
                </pitch>
                <duration>2</duration>
                <voice>1</voice>
                <type>half</type>
                <stem>down</stem>
                <lyric number="1">
                    <syllabic>end</syllabic>
                    <text>ing</text>
                </lyric>
            </note>
            <note default-y="-10.00" default-x="246.42">
                <pitch>
                    <step>D</step>
                    <octave>5</octave>
                </pitch>
                <duration>1</duration>
                <voice>1</voice>
                <type>quarter</type>
                <stem>down</stem>
                <lyric number="1">
                    <syllabic>single</syllabic>
                    <text>re</text>
                </lyric>
            </note>
        </measure>
        <measure width="317.76" number="11">
            <harmony print-frame="no">
                <root>
                    <root-step>G</root-step>
                </root>
                <kind text="7">dominant</kind>
            </harmony>
            <note default-y="-15.00" default-x="22.84">
                <pitch>
                    <step>C</step>
                    <octave>5</octave>
                </pitch>
                <duration>1</duration>
                <voice>1</voice>
                <type>quarter</type>
                <stem>down</stem>
                <lyric number="1">
                    <syllabic>begin</syllabic>
                    <text>turn</text>
                </lyric>
            </note>
            <note default-y="-20.00" default-x="104.32">
                <pitch>
                    <step>B</step>
                    <octave>4</octave>
                </pitch>
                <duration>2</duration>
                <voice>1</voice>
                <type>half</type>
                <accidental>natural</accidental>
                <stem>down</stem>
                <lyric number="1">
                    <syllabic>end</syllabic>
                    <text>ing</text>
                </lyric>
            </note>
            <note default-y="-10.00" default-x="234.68">
                <pitch>
                    <step>D</step>
                    <octave>5</octave>
                </pitch>
                <duration>1</duration>
                <voice>1</voice>
                <type>quarter</type>
                <stem>down</stem>
                <lyric number="1">
                    <syllabic>single</syllabic>
                    <text>to</text>
                </lyric>
            </note>
        </measure>
        <measure width="362.50" number="12">
            <harmony print-frame="no">
                <root>
                    <root-step>C</root-step>
                </root>
                <kind text="7">dominant</kind>
            </harmony>
            <note default-y="-25.00" default-x="24.71">
                <pitch>
                    <step>A</step>
                    <alter>-1</alter>
                    <octave>4</octave>
                </pitch>
                <duration>1</duration>
                <voice>1</voice>
                <type>quarter</type>
                <accidental>flat</accidental>
                <stem>up</stem>
                <lyric number="1">
                    <syllabic>single</syllabic>
                    <text>hold</text>
                </lyric>
            </note>
            <note default-y="-30.00" default-x="108.76">
                <pitch>
                    <step>G</step>
                    <octave>4</octave>
                </pitch>
                <duration>1</duration>
                <voice>1</voice>
                <type>quarter</type>
                <stem>up</stem>
                <lyric number="1">
                    <syllabic>single</syllabic>
                    <text>you</text>
                </lyric>
            </note>
            <note default-y="-30.00" default-x="192.81">
                <pitch>
                    <step>G</step>
                    <octave>4</octave>
                </pitch>
                <duration>1</duration>
                <voice>1</voice>
                <type>quarter</type>
                <stem>up</stem>
                <lyric number="1">
                    <syllabic>single</syllabic>
                    <text>in</text>
                </lyric>
            </note>
            <note default-y="-15.00" default-x="276.85">
                <pitch>
                    <step>C</step>
                    <octave>5</octave>
                </pitch>
                <duration>1</duration>
                <voice>1</voice>
                <type>quarter</type>
                <stem>down</stem>
                <lyric number="1">
                    <syllabic>single</syllabic>
                    <text>my</text>
                </lyric>
            </note>
        </measure>
        <measure width="313.76" number="13">
            <print new-system="yes">
                <system-layout>
                    <system-margins>
                        <left-margin>3.00</left-margin>
                        <right-margin>-0.00</right-margin>
                    </system-margins>
                    <system-distance>166.96</system-distance>
                </system-layout>
            </print>
            <note default-y="-30.00" default-x="29.36">
                <pitch>
                    <step>G</step>
                    <octave>4</octave>
                </pitch>
                <duration>3</duration>
                <voice>1</voice>
                <type>half</type>
                <dot/>
                <stem>up</stem>
                <lyric number="1">
                    <syllabic>single</syllabic>
                    <text>arms,</text>
                </lyric>
            </note>
            <note default-y="-15.00" default-x="216.33">
                <pitch>
                    <step>C</step>
                    <octave>5</octave>
                </pitch>
                <duration>1</duration>
                <voice>1</voice>
                <type>quarter</type>
                <stem>down</stem>
                <lyric number="1">
                    <syllabic>single</syllabic>
                    <text>Won't</text>
                </lyric>
            </note>
        </measure>
        <measure width="297.41" number="14">
            <harmony print-frame="no">
                <root>
                    <root-step>F</root-step>
                </root>
                <kind text="7">dominant</kind>
            </harmony>
            <note default-y="-20.00" default-x="16.02">
                <pitch>
                    <step>B</step>
                    <alter>-1</alter>
                    <octave>4</octave>
                </pitch>
                <duration>1</duration>
                <voice>1</voice>
                <type>quarter</type>
                <stem>down</stem>
                <lyric number="1">
                    <syllabic>single</syllabic>
                    <text>go</text>
                </lyric>
            </note>
            <note default-y="-25.00" default-x="93.74">
                <pitch>
                    <step>A</step>
                    <octave>4</octave>
                </pitch>
                <duration>2</duration>
                <voice>1</voice>
                <type>half</type>
                <stem>up</stem>
                <lyric number="1">
                    <syllabic>single</syllabic>
                    <text>love</text>
                </lyric>
            </note>
            <note default-y="-15.00" default-x="218.09">
                <pitch>
                    <step>C</step>
                    <octave>5</octave>
                </pitch>
                <duration>1</duration>
                <voice>1</voice>
                <type>quarter</type>
                <stem>down</stem>
                <lyric number="1">
                    <syllabic>single</syllabic>
                    <text>I</text>
                </lyric>
            </note>
        </measure>
        <measure width="353.65" number="15">
            <harmony print-frame="no">
                <root>
                    <root-step>E</root-step>
                    <root-alter>-1</root-alter>
                </root>
                <kind text="dim">diminished</kind>
            </harmony>
            <note default-y="-25.00" default-x="29.67">
                <pitch>
                    <step>A</step>
                    <octave>4</octave>
                </pitch>
                <duration>1</duration>
                <voice>1</voice>
                <type>quarter</type>
                <stem>up</stem>
                <lyric number="1">
                    <syllabic>single</syllabic>
                    <text>know</text>
                </lyric>
            </note>
            <harmony print-frame="no">
                <root>
                    <root-step>F</root-step>
                </root>
                <kind text="7">dominant</kind>
            </harmony>
            <note default-y="-30.00" default-x="119.22">
                <pitch>
                    <step>G</step>
                    <octave>4</octave>
                </pitch>
                <duration>2</duration>
                <voice>1</voice>
                <type>half</type>
                <stem>up</stem>
                <lyric number="1">
                    <syllabic>single</syllabic>
                    <text>love,</text>
                </lyric>
            </note>
            <note default-y="-25.00" default-x="262.50">
                <pitch>
                    <step>A</step>
                    <octave>4</octave>
                </pitch>
                <duration>1</duration>
                <voice>1</voice>
                <type>quarter</type>
                <stem>up</stem>
                <lyric number="1">
                    <syllabic>begin</syllabic>
                    <text>with</text>
                </lyric>
            </note>
        </measure>
        <measure width="365.51" number="16">
            <harmony print-frame="no">
                <root>
                    <root-step>B</root-step>
                    <root-alter>-1</root-alter>
                </root>
                <kind text="">major</kind>
            </harmony>
            <note default-y="-30.00" default-x="19.12">
                <pitch>
                    <step>G</step>
                    <octave>4</octave>
                </pitch>
                <duration>1</duration>
                <voice>1</voice>
                <type>quarter</type>
                <stem>up</stem>
                <lyric number="1">
                    <syllabic>end</syllabic>
                    <text>out</text>
                </lyric>
            </note>
            <note default-y="-35.00" default-x="105.32">
                <pitch>
                    <step>F</step>
                    <octave>4</octave>
                </pitch>
                <duration>1</duration>
                <voice>1</voice>
                <type>quarter</type>
                <stem>up</stem>
                <lyric number="1">
                    <syllabic>single</syllabic>
                    <text>you</text>
                </lyric>
            </note>
            <harmony print-frame="no">
                <root>
                    <root-step>B</root-step>
                </root>
                <kind text="dim">diminished</kind>
            </harmony>
            <note default-y="-15.00" default-x="191.52">
                <pitch>
                    <step>C</step>
                    <alter>1</alter>
                    <octave>5</octave>
                </pitch>
                <duration>1</duration>
                <voice>1</voice>
                <type>quarter</type>
                <accidental>sharp</accidental>
                <stem>down</stem>
                <lyric number="1">
                    <syllabic>single</syllabic>
                    <text>night</text>
                </lyric>
            </note>
            <note default-y="-10.00" default-x="277.72">
                <pitch>
                    <step>D</step>
                    <octave>5</octave>
                </pitch>
                <duration>1</duration>
                <voice>1</voice>
                <type>quarter</type>
                <stem>down</stem>
                <lyric number="1">
                    <syllabic>single</syllabic>
                    <text>has</text>
                </lyric>
            </note>
        </measure>
        <measure width="384.70" number="17">
            <print new-system="yes">
                <system-layout>
                    <system-margins>
                        <left-margin>3.00</left-margin>
                        <right-margin>0.00</right-margin>
                    </system-margins>
                    <system-distance>166.96</system-distance>
                </system-layout>
            </print>
            <harmony print-frame="no">
                <root>
                    <root-step>C</root-step>
                </root>
                <kind text="m6">minor-sixth</kind>
            </harmony>
            <note default-y="0.00" default-x="20.99">
                <pitch>
                    <step>F</step>
                    <octave>5</octave>
                </pitch>
                <duration>1</duration>
                <voice>1</voice>
                <type>quarter</type>
                <stem>down</stem>
                <lyric number="1">
                    <syllabic>single</syllabic>
                    <text>lost</text>
                </lyric>
            </note>
            <note default-y="-5.00" default-x="111.52">
                <pitch>
                    <step>E</step>
                    <alter>-1</alter>
                    <octave>5</octave>
                </pitch>
                <duration>1</duration>
                <voice>1</voice>
                <type>quarter</type>
                <stem>down</stem>
                <lyric number="1">
                    <syllabic>single</syllabic>
                    <text>its</text>
                </lyric>
            </note>
            <harmony print-frame="no">
                <root>
                    <root-step>F</root-step>
                </root>
                <kind text="9">dominant-ninth</kind>
            </harmony>
            <note default-y="-15.00" default-x="202.05">
                <pitch>
                    <step>C</step>
                    <octave>5</octave>
                </pitch>
                <duration>1</duration>
                <voice>1</voice>
                <type>quarter</type>
                <stem>down</stem>
                <lyric number="1">
                    <syllabic>single</syllabic>
                    <text>charms!</text>
                </lyric>
            </note>
            <harmony print-frame="no">
                <root>
                    <root-step>F</root-step>
                </root>
                <kind text="7">dominant</kind>
            </harmony>
            <note default-y="-15.00" default-x="292.58">
                <pitch>
                    <step>C</step>
                    <octave>5</octave>
                </pitch>
                <duration>1</duration>
                <voice>1</voice>
                <type>quarter</type>
                <stem>down</stem>
                <lyric number="1">
                    <syllabic>single</syllabic>
                    <text>When</text>
                </lyric>
            </note>
        </measure>
        <measure width="331.93" number="18">
            <harmony print-frame="no">
                <root>
                    <root-step>B</root-step>
                    <root-alter>-1</root-alter>
                </root>
                <kind text="">major</kind>
            </harmony>
            <note default-y="-20.00" default-x="20.98">
                <pitch>
                    <step>B</step>
                    <alter>-1</alter>
                    <octave>4</octave>
                </pitch>
                <duration>1</duration>
                <voice>1</voice>
                <type>quarter</type>
                <stem>down</stem>
                <lyric number="1">
                    <syllabic>single</syllabic>
                    <text>day</text>
                </lyric>
            </note>
            <note default-y="-20.00" default-x="98.32">
                <pitch>
                    <step>B</step>
                    <alter>-1</alter>
                    <octave>4</octave>
                </pitch>
                <duration>1</duration>
                <voice>1</voice>
                <type>quarter</type>
                <stem>down</stem>
                <lyric number="1">
                    <syllabic>single</syllabic>
                    <text>is</text>
                </lyric>
            </note>
            <note default-y="-20.00" default-x="175.66">
                <pitch>
                    <step>B</step>
                    <alter>-1</alter>
                    <octave>4</octave>
                </pitch>
                <duration>1</duration>
                <voice>1</voice>
                <type>quarter</type>
                <stem>down</stem>
                <lyric number="1">
                    <syllabic>single</syllabic>
                    <text>done</text>
                </lyric>
            </note>
            <note default-y="-35.00" default-x="252.99">
                <pitch>
                    <step>F</step>
                    <octave>4</octave>
                </pitch>
                <duration>1</duration>
                <voice>1</voice>
                <type>quarter</type>
                <stem>up</stem>
                <lyric number="1">
                    <syllabic>single</syllabic>
                    <text>and</text>
                </lyric>
            </note>
        </measure>
        <measure width="341.86" number="19">
            <harmony print-frame="no">
                <root>
                    <root-step>B</root-step>
                    <root-alter>-1</root-alter>
                </root>
                <kind text="dim">diminished</kind>
            </harmony>
            <note default-y="-25.00" default-x="27.81">
                <pitch>
                    <step>A</step>
                    <octave>4</octave>
                </pitch>
                <duration>1</duration>
                <voice>1</voice>
                <type>quarter</type>
                <stem>up</stem>
                <lyric number="1">
                    <syllabic>single</syllabic>
                    <text>grass</text>
                </lyric>
            </note>
            <note default-y="-25.00" default-x="105.92">
                <pitch>
                    <step>A</step>
                    <octave>4</octave>
                </pitch>
                <duration>1</duration>
                <voice>1</voice>
                <type>quarter</type>
                <stem>up</stem>
                <lyric number="1">
                    <syllabic>single</syllabic>
                    <text>is</text>
                </lyric>
            </note>
            <note default-y="-25.00" default-x="184.03">
                <pitch>
                    <step>A</step>
                    <octave>4</octave>
                </pitch>
                <duration>1</duration>
                <voice>1</voice>
                <type>quarter</type>
                <stem>up</stem>
                <lyric number="1">
                    <syllabic>single</syllabic>
                    <text>wet</text>
                </lyric>
            </note>
            <note default-y="-40.00" default-x="262.15">
                <pitch>
                    <step>E</step>
                    <octave>4</octave>
                </pitch>
                <duration>1</duration>
                <voice>1</voice>
                <type>quarter</type>
                <accidental>natural</accidental>
                <stem>up</stem>
                <lyric number="1">
                    <syllabic>single</syllabic>
                    <text>with</text>
                </lyric>
            </note>
        </measure>
        <measure width="271.84" number="20">
            <harmony print-frame="no">
                <root>
                    <root-step>F</root-step>
                </root>
                <kind text="9">dominant-ninth</kind>
            </harmony>
            <note default-y="-30.00" default-x="19.11">
                <pitch>
                    <step>G</step>
                    <octave>4</octave>
                </pitch>
                <duration>2</duration>
                <voice>1</voice>
                <type>half</type>
                <stem>up</stem>
                <lyric number="1">
                    <syllabic>begin</syllabic>
                    <text>twi</text>
                </lyric>
            </note>
            <note default-y="-30.00" default-x="144.68">
                <pitch>
                    <step>G</step>
                    <octave>4</octave>
                </pitch>
                <duration>2</duration>
                <voice>1</voice>
                <type>half</type>
                <stem>up</stem>
                <lyric number="1">
                    <syllabic>end</syllabic>
                    <text>light's</text>
                </lyric>
            </note>
        </measure>
        <measure width="252.63" number="21">
            <print new-system="yes">
                <system-layout>
                    <system-margins>
                        <left-margin>3.00</left-margin>
                        <right-margin>0.00</right-margin>
                    </system-margins>
                    <system-distance>166.96</system-distance>
                </system-layout>
            </print>
            <note default-y="-30.00" default-x="25.57">
                <pitch>
                    <step>G</step>
                    <octave>4</octave>
                </pitch>
                <duration>3</duration>
                <voice>1</voice>
                <type>half</type>
                <dot/>
                <stem>up</stem>
                <lyric number="1">
                    <syllabic>single</syllabic>
                    <text>dew,</text>
                </lyric>
            </note>
            <harmony print-frame="no">
                <root>
                    <root-step>F</root-step>
                </root>
                <kind text="7">dominant</kind>
            </harmony>
            <note default-y="-35.00" default-x="174.63">
                <pitch>
                    <step>F</step>
                    <octave>4</octave>
                </pitch>
                <duration>1</duration>
                <voice>1</voice>
                <type>quarter</type>
                <stem>up</stem>
                <lyric number="1">
                    <syllabic>single</syllabic>
                    <text>My</text>
                </lyric>
            </note>
        </measure>
        <measure width="317.79" number="22">
            <note default-y="-25.00" default-x="24.08">
                <pitch>
                    <step>A</step>
                    <octave>4</octave>
                </pitch>
                <duration>1</duration>
                <voice>1</voice>
                <type>quarter</type>
                <stem>up</stem>
                <lyric number="1">
                    <syllabic>begin</syllabic>
                    <text>lone</text>
                </lyric>
            </note>
            <note default-y="-25.00" default-x="97.11">
                <pitch>
                    <step>A</step>
                    <octave>4</octave>
                </pitch>
                <duration>1</duration>
                <voice>1</voice>
                <type>quarter</type>
                <stem>up</stem>
                <lyric number="1">
                    <syllabic>end</syllabic>
                    <text>ly</text>
                </lyric>
            </note>
            <note default-y="-25.00" default-x="170.14">
                <pitch>
                    <step>A</step>
                    <octave>4</octave>
                </pitch>
                <duration>1</duration>
                <voice>1</voice>
                <type>quarter</type>
                <stem>up</stem>
                <lyric number="1">
                    <syllabic>single</syllabic>
                    <text>heart</text>
                </lyric>
            </note>
            <note default-y="-35.00" default-x="243.16">
                <pitch>
                    <step>F</step>
                    <octave>4</octave>
                </pitch>
                <duration>1</duration>
                <voice>1</voice>
                <type>quarter</type>
                <stem>up</stem>
                <lyric number="1">
                    <syllabic>single</syllabic>
                    <text>is</text>
                </lyric>
            </note>
        </measure>
        <measure width="327.50" number="23">
            <harmony print-frame="no">
                <root>
                    <root-step>F</root-step>
                </root>
                <kind text="9">dominant-ninth</kind>
            </harmony>
            <note default-y="-30.00" default-x="23.47">
                <pitch>
                    <step>G</step>
                    <octave>4</octave>
                </pitch>
                <duration>1</duration>
                <voice>1</voice>
                <type>quarter</type>
                <stem>up</stem>
                <lyric number="1">
                    <syllabic>begin</syllabic>
                    <text>sink</text>
                </lyric>
            </note>
            <note default-y="-30.00" default-x="99.08">
                <pitch>
                    <step>G</step>
                    <octave>4</octave>
                </pitch>
                <duration>1</duration>
                <voice>1</voice>
                <type>quarter</type>
                <stem>up</stem>
                <lyric number="1">
                    <syllabic>end</syllabic>
                    <text>ing</text>
                </lyric>
            </note>
            <note default-y="-30.00" default-x="174.69">
                <pitch>
                    <step>G</step>
                    <octave>4</octave>
                </pitch>
                <duration>1</duration>
                <voice>1</voice>
                <type>quarter</type>
                <stem>up</stem>
                <lyric number="1">
                    <syllabic>single</syllabic>
                    <text>with</text>
                </lyric>
            </note>
            <harmony print-frame="no">
                <root>
                    <root-step>F</root-step>
                </root>
                <kind text="7">dominant</kind>
            </harmony>
            <note default-y="-25.00" default-x="250.29">
                <pitch>
                    <step>A</step>
                    <octave>4</octave>
                </pitch>
                <duration>1</duration>
                <voice>1</voice>
                <type>quarter</type>
                <stem>up</stem>
                <lyric number="1">
                    <syllabic>single</syllabic>
                    <text>the</text>
                </lyric>
            </note>
        </measure>
        <measure width="209.09" number="24">
            <harmony print-frame="no">
                <root>
                    <root-step>D</root-step>
                </root>
                <kind text="7">dominant</kind>
            </harmony>
            <harmony print-frame="no">
                <root>
                    <root-step>E</root-step>
                    <root-alter>-1</root-alter>
                </root>
                <kind text="dim">diminished</kind>
                <offset>2</offset>
            </harmony>
            <note default-y="-10.00" default-x="23.16">
                <pitch>
                    <step>D</step>
                    <octave>5</octave>
                </pitch>
                <duration>4</duration>
                <tie type="start"/>
                <voice>1</voice>
                <type>whole</type>
                <notations>
                    <tied type="start"/>
                </notations>
                <lyric number="1">
                    <syllabic>single</syllabic>
                    <text>sun.</text>
                </lyric>
            </note>
        </measure>
        <measure width="223.33" number="25">
            <harmony print-frame="no">
                <root>
                    <root-step>D</root-step>
                </root>
                <kind text="7">dominant</kind>
            </harmony>
            <note default-y="-10.00" default-x="12.00">
                <pitch>
                    <step>D</step>
                    <octave>5</octave>
                </pitch>
                <duration>2</duration>
                <tie type="stop"/>
                <voice>1</voice>
                <type>half</type>
                <stem>down</stem>
                <notations>
                    <tied type="stop"/>
                </notations>
            </note>
            <note default-y="-10.00" default-x="116.86">
                <pitch>
                    <step>D</step>
                    <octave>5</octave>
                </pitch>
                <duration>2</duration>
                <voice>1</voice>
                <type>half</type>
                <stem>down</stem>
                <lyric number="1">
                    <syllabic>begin</syllabic>
                    <text>Al</text>
                </lyric>
            </note>
        </measure>
        <measure width="312.61" number="26">
            <print new-system="yes">
                <system-layout>
                    <system-margins>
                        <left-margin>3.00</left-margin>
                        <right-margin>0.00</right-margin>
                    </system-margins>
                    <system-distance>166.96</system-distance>
                </system-layout>
            </print>
            <harmony print-frame="no">
                <root>
                    <root-step>B</root-step>
                    <root-alter>-1</root-alter>
                </root>
                <kind text="9">dominant-ninth</kind>
            </harmony>
            <note default-y="0.00" default-x="35.89">
                <pitch>
                    <step>F</step>
                    <octave>5</octave>
                </pitch>
                <duration>1</duration>
                <voice>1</voice>
                <type>quarter</type>
                <stem>down</stem>
                <lyric number="1">
                    <syllabic>end</syllabic>
                    <text>though</text>
                </lyric>
            </note>
            <note default-y="0.00" default-x="104.67">
                <pitch>
                    <step>F</step>
                    <octave>5</octave>
                </pitch>
                <duration>1</duration>
                <voice>1</voice>
                <type>quarter</type>
                <stem>down</stem>
                <lyric number="1">
                    <syllabic>single</syllabic>
                    <text>I</text>
                </lyric>
            </note>
            <note default-y="0.00" default-x="173.45">
                <pitch>
                    <step>F</step>
                    <octave>5</octave>
                </pitch>
                <duration>1</duration>
                <voice>1</voice>
                <type>quarter</type>
                <stem>down</stem>
                <lyric number="1">
                    <syllabic>single</syllabic>
                    <text>miss</text>
                </lyric>
            </note>
            <note default-y="-15.00" default-x="242.23">
                <pitch>
                    <step>C</step>
                    <octave>5</octave>
                </pitch>
                <duration>1</duration>
                <voice>1</voice>
                <type>quarter</type>
                <stem>down</stem>
                <lyric number="1">
                    <syllabic>single</syllabic>
                    <text>your</text>
                </lyric>
            </note>
        </measure>
        <measure width="270.83" number="27">
            <harmony print-frame="no">
                <root>
                    <root-step>A</root-step>
                    <root-alter>-1</root-alter>
                </root>
                <kind text="">major</kind>
            </harmony>
            <note default-y="-5.00" default-x="18.49">
                <pitch>
                    <step>E</step>
                    <alter>-1</alter>
                    <octave>5</octave>
                </pitch>
                <duration>1</duration>
                <voice>1</voice>
                <type>quarter</type>
                <stem>down</stem>
                <lyric number="1">
                    <syllabic>begin</syllabic>
                    <text>ten</text>
                </lyric>
            </note>
            <note default-y="-5.00" default-x="81.18">
                <pitch>
                    <step>E</step>
                    <alter>-1</alter>
                    <octave>5</octave>
                </pitch>
                <duration>1</duration>
                <voice>1</voice>
                <type>quarter</type>
                <stem>down</stem>
                <lyric number="1">
                    <syllabic>end</syllabic>
                    <text>der</text>
                </lyric>
            </note>
            <note default-y="-5.00" default-x="143.86">
                <pitch>
                    <step>E</step>
                    <alter>-1</alter>
                    <octave>5</octave>
                </pitch>
                <duration>1</duration>
                <voice>1</voice>
                <type>quarter</type>
                <stem>down</stem>
                <lyric number="1">
                    <syllabic>single</syllabic>
                    <text>kiss</text>
                </lyric>
            </note>
            <harmony print-frame="no">
                <root>
                    <root-step>B</root-step>
                    <root-alter>-1</root-alter>
                </root>
                <kind text="+">augmented</kind>
            </harmony>
            <note default-y="-20.00" default-x="206.55">
                <pitch>
                    <step>B</step>
                    <alter>-1</alter>
                    <octave>4</octave>
                </pitch>
                <duration>1</duration>
                <voice>1</voice>
                <type>quarter</type>
                <stem>down</stem>
                <lyric number="1">
                    <syllabic>single</syllabic>
                    <text>the</text>
                </lyric>
            </note>
        </measure>
        <measure width="224.82" number="28">
            <harmony print-frame="no">
                <root>
                    <root-step>E</root-step>
                    <root-alter>-1</root-alter>
                </root>
                <kind text="Maj7">major-seventh</kind>
            </harmony>
            <note default-y="-10.00" default-x="32.15">
                <pitch>
                    <step>D</step>
                    <octave>5</octave>
                </pitch>
                <duration>2</duration>
                <voice>1</voice>
                <type>half</type>
                <stem>down</stem>
                <lyric number="1">
                    <syllabic>single</syllabic>
                    <text>whole</text>
                </lyric>
            </note>
            <note default-y="-10.00" default-x="127.68">
                <pitch>
                    <step>D</step>
                    <octave>5</octave>
                </pitch>
                <duration>2</duration>
                <voice>1</voice>
                <type>half</type>
                <stem>down</stem>
                <lyric number="1">
                    <syllabic>single</syllabic>
                    <text>day</text>
                </lyric>
            </note>
        </measure>
        <measure width="228.71" number="29">
            <harmony print-frame="no">
                <root>
                    <root-step>D</root-step>
                </root>
                <kind text="7b5">dominant</kind>
                <degree>
                    <degree-value>5</degree-value>
                    <degree-alter>-1</degree-alter>
                    <degree-type>alter</degree-type>
                </degree>
            </harmony>
            <note default-y="-10.00" default-x="42.41">
                <pitch>
                    <step>D</step>
                    <octave>5</octave>
                </pitch>
                <duration>3</duration>
                <voice>1</voice>
                <type>half</type>
                <dot/>
                <stem>down</stem>
                <lyric number="1">
                    <syllabic>single</syllabic>
                    <text>through,</text>
                </lyric>
            </note>
            <note default-y="-10.00" default-x="164.52">
                <pitch>
                    <step>D</step>
                    <octave>5</octave>
                </pitch>
                <duration>1</duration>
                <voice>1</voice>
                <type>quarter</type>
                <stem>down</stem>
                <lyric number="1">
                    <syllabic>single</syllabic>
                    <text>I</text>
                </lyric>
            </note>
        </measure>
        <measure width="293.36" number="30">
            <harmony print-frame="no">
                <root>
                    <root-step>G</root-step>
                </root>
                <kind text="7">dominant</kind>
            </harmony>
            <note default-y="0.00" default-x="25.34">
                <pitch>
                    <step>F</step>
                    <octave>5</octave>
                </pitch>
                <duration>1</duration>
                <voice>1</voice>
                <type>quarter</type>
                <stem>down</stem>
                <lyric number="1">
                    <syllabic>single</syllabic>
                    <text>miss</text>
                </lyric>
            </note>
            <note default-y="0.00" default-x="91.95">
                <pitch>
                    <step>F</step>
                    <octave>5</octave>
                </pitch>
                <duration>1</duration>
                <voice>1</voice>
                <type>quarter</type>
                <stem>down</stem>
                <lyric number="1">
                    <syllabic>single</syllabic>
                    <text>you</text>
                </lyric>
            </note>
            <harmony print-frame="no">
                <root>
                    <root-step>F</root-step>
                    <root-alter>1</root-alter>
                </root>
                <kind text="7">dominant</kind>
            </harmony>
            <note default-y="0.00" default-x="158.55">
                <pitch>
                    <step>F</step>
                    <alter>1</alter>
                    <octave>5</octave>
                </pitch>
                <duration>1</duration>
                <voice>1</voice>
                <type>quarter</type>
                <accidental>sharp</accidental>
                <stem>down</stem>
                <lyric number="1">
                    <syllabic>single</syllabic>
                    <text>most</text>
                </lyric>
            </note>
            <note default-y="0.00" default-x="225.16">
                <pitch>
                    <step>F</step>
                    <alter>1</alter>
                    <octave>5</octave>
                </pitch>
                <duration>1</duration>
                <voice>1</voice>
                <type>quarter</type>
                <stem>down</stem>
                <lyric number="1">
                    <syllabic>single</syllabic>
                    <text>of</text>
                </lyric>
            </note>
        </measure>
        <measure width="501.73" number="31">
            <print new-system="yes">
                <system-layout>
                    <system-margins>
                        <left-margin>3.00</left-margin>
                        <right-margin>0.00</right-margin>
                    </system-margins>
                    <system-distance>166.96</system-distance>
                </system-layout>
            </print>
            <harmony print-frame="no">
                <root>
                    <root-step>C</root-step>
                </root>
                <kind text="m7">minor-seventh</kind>
            </harmony>
            <note default-y="5.00" default-x="16.01">
                <pitch>
                    <step>G</step>
                    <octave>5</octave>
                </pitch>
                <duration>1</duration>
                <voice>1</voice>
                <type>quarter</type>
                <stem>down</stem>
                <lyric number="1">
                    <syllabic>single</syllabic>
                    <text>all</text>
                </lyric>
            </note>
            <note default-y="5.00" default-x="137.04">
                <pitch>
                    <step>G</step>
                    <octave>5</octave>
                </pitch>
                <duration>1</duration>
                <voice>1</voice>
                <type>quarter</type>
                <stem>down</stem>
                <lyric number="1">
                    <syllabic>single</syllabic>
                    <text>when</text>
                </lyric>
            </note>
            <harmony print-frame="no">
                <root>
                    <root-step>F</root-step>
                </root>
                <kind text="7">dominant</kind>
            </harmony>
            <note default-y="0.00" default-x="258.07">
                <pitch>
                    <step>F</step>
                    <octave>5</octave>
                </pitch>
                <duration>1</duration>
                <voice>1</voice>
                <type>quarter</type>
                <stem>down</stem>
                <lyric number="1">
                    <syllabic>single</syllabic>
                    <text>day</text>
                </lyric>
            </note>
            <note default-y="-10.00" default-x="379.10">
                <pitch>
                    <step>D</step>
                    <octave>5</octave>
                </pitch>
                <duration>1</duration>
                <voice>1</voice>
                <type>quarter</type>
                <stem>down</stem>
                <lyric number="1">
                    <syllabic>single</syllabic>
                    <text>is</text>
                </lyric>
            </note>
        </measure>
        <measure width="407.05" number="32">
            <harmony print-frame="no">
                <root>
                    <root-step>B</root-step>
                    <root-alter>-1</root-alter>
                </root>
                <kind text="">major</kind>
            </harmony>
            <note default-y="-20.00" default-x="30.29">
                <pitch>
                    <step>B</step>
                    <alter>-1</alter>
                    <octave>4</octave>
                </pitch>
                <duration>4</duration>
                <tie type="start"/>
                <voice>1</voice>
                <type>whole</type>
                <notations>
                    <tied type="start"/>
                </notations>
                <lyric number="1">
                    <syllabic>begin</syllabic>
                    <text>done!</text>
                </lyric>
            </note>
        </measure>
        <measure width="421.55" number="33">
            <note default-y="-20.00" default-x="12.00">
                <pitch>
                    <step>B</step>
                    <alter>-1</alter>
                    <octave>4</octave>
                </pitch>
                <duration>1</duration>
                <tie type="stop"/>
                <voice>1</voice>
                <type>quarter</type>
                <stem>down</stem>
                <notations>
                    <tied type="stop"/>
                </notations>
            </note>
            <note>
                <rest/>
                <duration>1</duration>
                <voice>1</voice>
                <type>quarter</type>
            </note>
            <note>
                <rest/>
                <duration>2</duration>
                <voice>1</voice>
                <type>half</type>
            </note>
            <barline location="right">
                <bar-style>light-heavy</bar-style>
            </barline>
        </measure>
    </part>
</score-partwise>
